<svg width="256" height="256" viewBox="0 0 256 256" fill="none" xmlns="http://www.w3.org/2000/svg">
<path fill-rule="evenodd" clip-rule="evenodd" d="M100.571 33.2456C100.868 33.0848 101.168 33.0033 101.491 33.0001C102.183 32.9936 102.838 33.3314 103.207 33.9822L112.954 51.1689C120.927 47.7093 129.871 45.7674 139.309 45.7674C148.747 45.7674 157.69 47.7093 165.664 51.1689L175.411 33.9822C175.78 33.3314 176.435 32.9936 177.126 33.0001C177.449 33.0031 177.75 33.0848 178.047 33.2456C179.021 33.7737 179.341 34.8685 178.8 35.8236L169.178 52.8262C187.69 62.2482 200.193 80.1538 200.218 100.703H78.3993C78.4243 80.1538 90.928 62.2482 109.44 52.8262L99.818 35.8236C99.2768 34.8685 99.5971 33.7737 100.571 33.2456ZM106.115 73.9207C106.115 71.2005 108.416 68.9488 111.197 68.9488C113.978 68.9488 116.28 71.2005 116.28 73.9207C116.28 76.6409 113.978 78.8926 111.197 78.8926C108.416 78.8926 106.115 76.6409 106.115 73.9207ZM162.339 73.9207C162.339 71.2005 164.641 68.9488 167.421 68.9488C170.202 68.9488 172.504 71.2005 172.504 73.9207C172.504 76.6409 170.202 78.8926 167.421 78.8926C164.641 78.8926 162.339 76.6409 162.339 73.9207Z" fill="currentColor"/>
<path d="M78.3993 191.773V105.409H200.218V191.773C200.218 199.753 193.651 206.177 185.493 206.177H175.726V235.639C175.726 243.08 169.673 249 162.067 249C154.461 249 148.409 243.08 148.409 235.639V206.177H130.211V235.639C130.211 243.08 124.159 249 116.552 249C108.946 249 102.894 243.08 102.894 235.639V206.177H93.1247C84.9668 206.177 78.3993 199.753 78.3993 191.773Z" fill="currentColor"/>
<path d="M59.6586 103.118C52.0524 103.118 46 109.038 46 116.478V172.131C46 179.571 52.0524 185.491 59.6586 185.491C67.2649 185.491 73.3173 179.571 73.3173 172.131V116.478C73.3173 109.038 67.2649 103.118 59.6586 103.118Z" fill="currentColor"/>
<path d="M218.961 103.118C211.354 103.118 205.302 109.038 205.302 116.478V172.131C205.302 179.571 211.354 185.491 218.961 185.491C226.567 185.491 232.619 179.571 232.619 172.131V116.478C232.619 109.038 226.567 103.118 218.961 103.118Z" fill="currentColor"/>
</svg>
