<svg width="256" height="256" viewBox="0 0 256 256" fill="none" xmlns="http://www.w3.org/2000/svg">
<path d="M147.55 171.406H169.767C174.91 171.406 178.407 173.874 180.464 178.606C182.521 183.337 181.493 187.657 177.996 191.154L136.441 232.709C134.178 234.971 131.504 236 128.213 236C124.921 236 122.247 234.971 119.984 232.709L78.4299 191.154C74.9327 187.657 74.1099 183.337 75.9613 178.606C77.8127 173.874 81.5156 171.406 86.6585 171.406H108.876V25.76C108.876 21.8514 110.727 20 114.636 20H141.584C145.493 20 147.344 21.8514 147.344 25.76V171.406H147.55Z" fill="currentColor"/>
</svg>
