<svg width="256" height="256" viewBox="0 0 256 256" fill="none" xmlns="http://www.w3.org/2000/svg">
<circle cx="128" cy="128" r="34" fill="currentColor"/>
<path d="M133.573 233.475L161.477 205.571C166.689 200.358 163.062 191.132 155.585 191.158L137.754 191.219L137.8 178.038C137.81 175.268 135.568 173.018 132.798 173.018H122.85C120.094 173.018 117.857 175.247 117.848 178.002L117.801 191.291L99.9702 191.352C92.5718 191.378 88.7231 200.553 93.9781 205.808L121.686 233.516C125.031 236.861 130.24 236.808 133.573 233.475Z" fill="currentColor"/>
<path d="M77.9976 138.152C80.7533 138.143 82.982 135.906 82.982 133.15V123.202C82.982 120.432 80.7319 118.19 77.9625 118.2L64.7807 118.246L64.8419 100.415C64.8681 92.9492 55.6611 89.291 50.429 94.5232L22.5248 122.427C19.1917 125.76 19.1389 130.969 22.4844 134.314L50.1921 162.022C55.4281 167.258 64.6221 163.44 64.6481 156.03L64.7094 138.199L77.9976 138.152Z" fill="currentColor"/>
<path d="M123.202 82.9819C120.433 82.9819 118.19 80.7317 118.2 77.9623L118.246 64.7805L100.414 64.8431C92.9365 64.8693 89.3094 55.6427 94.522 50.4301L122.426 22.5259C125.76 19.1924 130.968 19.1379 134.314 22.4842L162.022 50.192C167.277 55.447 163.428 64.622 156.03 64.6479L138.198 64.7105L138.151 77.9974C138.142 80.7531 135.905 82.9819 133.149 82.9819H123.202Z" fill="currentColor"/>
<path d="M191.289 117.802L178.003 117.849C175.247 117.858 173.018 120.095 173.018 122.851V132.798C173.018 135.567 175.268 137.81 178.038 137.8L191.219 137.754L191.157 155.586C191.131 163.052 200.338 166.71 205.57 161.478L233.474 133.574C236.808 130.24 236.862 125.032 233.516 121.686L205.808 93.978C200.572 88.742 191.378 92.5599 191.352 99.9701L191.289 117.802Z" fill="currentColor"/>
</svg>
