<svg width="256" height="256" viewBox="0 0 256 256" fill="none" xmlns="http://www.w3.org/2000/svg">
<path d="M108.967 84.5943H86.7496C81.6067 84.5943 78.1096 82.1257 76.0524 77.3943C73.9953 72.6629 75.0239 68.3429 78.521 64.8457L120.075 23.2914C122.338 21.0286 125.012 20 128.304 20C131.595 20 134.27 21.0286 136.532 23.2914L178.087 64.8457C181.584 68.3429 182.407 72.6629 180.555 77.3943C178.704 82.1257 175.001 84.5943 169.858 84.5943H147.641V230.24C147.641 234.149 145.79 236 141.881 236H114.932C111.024 236 109.172 234.149 109.172 230.24V84.5943H108.967Z" fill="currentColor"/>
</svg>
