<svg width="256" height="256" viewBox="0 0 256 256" fill="none" xmlns="http://www.w3.org/2000/svg">
<path d="M179.433 91.2717C179.433 86.7758 181.595 83.7186 185.738 81.9202C189.882 80.1219 193.665 81.0211 196.727 84.0783L233.118 120.405C235.099 122.383 236 124.721 236 127.599C236 130.476 235.099 132.814 233.118 134.792L196.727 171.119C193.665 174.176 189.882 174.895 185.738 173.277C181.595 171.658 179.433 168.421 179.433 163.925V144.503H76.387V163.925C76.387 168.421 74.2252 171.478 70.0817 173.277C65.9383 175.075 62.1551 174.176 59.0926 171.119L22.8824 134.612C20.9008 132.634 20 130.296 20 127.419C20 124.541 20.9008 122.203 22.8824 120.225L59.0926 84.0783C62.1551 81.0211 65.9383 80.3017 70.0817 81.9202C74.2252 83.5388 76.387 86.7758 76.387 91.2717V110.694H179.433V91.2717Z" fill="currentColor"/>
</svg>
