<svg width="256" height="256" viewBox="0 0 256 256" fill="none" xmlns="http://www.w3.org/2000/svg">
<path d="M123.202 82.9819C120.433 82.9819 118.19 80.7317 118.2 77.9623L118.246 64.7805L100.414 64.8431C92.9365 64.8693 89.3094 55.6427 94.522 50.4301L122.426 22.5259C125.76 19.1924 130.968 19.1379 134.314 22.4842L162.022 50.192C167.277 55.447 163.428 64.622 156.03 64.6479L138.198 64.7105L138.151 77.9974C138.142 80.7531 135.905 82.9819 133.149 82.9819H123.202Z" fill="currentColor"/>
<path d="M82.982 133.15C82.982 135.906 80.7533 138.143 77.9976 138.152L64.7094 138.199L64.6481 156.03C64.6221 163.44 55.4281 167.258 50.1921 162.022L22.4844 134.314C19.1389 130.969 19.1917 125.76 22.5248 122.427L50.429 94.5232C55.6611 89.291 64.8681 92.9492 64.8419 100.415L64.7807 118.246L77.9625 118.2C80.7319 118.19 82.982 120.432 82.982 123.202V133.15Z" fill="currentColor"/>
<path d="M161.477 205.571L133.573 233.475C130.24 236.808 125.031 236.861 121.686 233.516L93.9781 205.808C88.7231 200.553 92.5718 191.378 99.9702 191.352L117.801 191.291L117.848 178.002C117.857 175.247 120.094 173.018 122.85 173.018H132.798C135.568 173.018 137.81 175.268 137.8 178.038L137.754 191.219L155.585 191.158C163.062 191.132 166.689 200.358 161.477 205.571Z" fill="currentColor"/>
<path d="M178.003 117.849L191.289 117.802L191.352 99.9701C191.378 92.5599 200.572 88.742 205.808 93.978L233.516 121.686C236.862 125.032 236.808 130.24 233.474 133.574L205.57 161.478C200.338 166.71 191.131 163.052 191.157 155.586L191.219 137.754L178.038 137.8C175.268 137.81 173.018 135.567 173.018 132.798V122.851C173.018 120.095 175.247 117.858 178.003 117.849Z" fill="currentColor"/>
<path d="M128 162C146.778 162 162 146.778 162 128C162 109.222 146.778 94 128 94C109.222 94 94 109.222 94 128C94 146.778 109.222 162 128 162Z" fill="currentColor"/>
</svg>
