<svg width="256" height="256" viewBox="0 0 256 256" fill="none" xmlns="http://www.w3.org/2000/svg">
<path d="M182 94.2674H168.5L75.6194 194.474C74.5394 195.561 73.2801 196.105 71.8401 196.105H25.0405C21.6205 196.105 20 194.474 20 191.031V167.293C20 163.85 21.6205 162.219 25.0405 162.219H60.5L153.381 62.0136C154.461 60.9264 155.72 60.3823 157.16 60.3823H182V43.3491C182 38.819 184.16 35.7393 188.3 33.9273C192.44 32.1152 196.219 33.0211 199.279 36.1016L233.119 70.168C235.099 72.1613 236 74.5163 236 77.4155C236 80.3148 235.099 82.6709 233.119 84.6641L199.279 118.731C196.219 121.811 192.44 122.536 188.3 120.905C184.16 119.274 182 116.012 182 111.482V94.4487V94.2674ZM25.0405 94.2674C21.6205 94.2674 20 92.6371 20 89.1942V65.4566C20 62.0137 21.6205 60.3823 25.0405 60.3823H71.8401C73.2801 60.3823 74.5394 60.9264 75.6194 62.0136L105.14 93.9057L82.8198 118.549L60.5 94.2674H25.0405ZM232.941 172.005C234.921 173.998 235.82 176.353 235.82 179.252C235.82 182.151 234.921 184.507 232.941 186.501L199.101 220.567C196.041 223.648 192.259 224.372 188.119 222.741C183.979 221.111 181.82 217.849 181.82 213.318V196.285H156.98C155.54 196.285 154.28 195.742 153.2 194.655L123.68 162.763L146 138.12L168.32 162.4H181.82V145.367C181.82 140.837 183.979 137.757 188.119 135.945C192.259 134.133 196.041 135.039 199.101 138.12L232.941 172.186V172.005Z" fill="currentColor"/>
</svg>
