<svg width="256" height="256" viewBox="0 0 256 256" fill="none" xmlns="http://www.w3.org/2000/svg">
<path d="M28 93.8532V87.5197C28 84.8531 28.8359 82.686 30.6693 80.8527C32.5026 79.0193 34.6676 78.1864 37.3343 78.1864H178V59.5199C178 55.3532 180.002 52.5195 183.835 50.8529C187.668 49.1862 191.17 50.0195 194.003 52.8528L225.335 84.1862C227.168 86.0195 228 88.1866 228 90.8533C228 93.5199 227.168 95.686 225.335 97.5193L194.003 128.853C191.17 131.686 187.668 132.353 183.835 130.853C180.002 129.353 178 126.353 178 122.187V103.52H37.3343C34.6676 103.52 32.5026 102.686 30.6693 100.853C28.8359 99.0195 28 96.8535 28 94.1868V93.8532ZM218.67 153.186C221.336 153.186 223.501 154.019 225.335 155.853C227.168 157.686 228 159.853 228 162.52V168.853C228 171.52 227.168 173.687 225.335 175.52C223.501 177.354 221.336 178.186 218.67 178.186H78V196.853C78 201.02 76.0024 203.853 72.1691 205.52C68.3358 207.187 64.834 206.353 62.0006 203.52L30.6693 172.187C28.8359 170.353 28 168.186 28 165.52C28 162.853 28.8359 160.687 30.6693 158.854L62.0006 127.52C64.834 124.687 68.3358 124.02 72.1691 125.52C76.0024 127.02 78 130.02 78 134.186V152.853H218.67V153.186Z" fill="currentColor"/>
</svg>
