<svg width="256" height="256" viewBox="0 0 256 256" fill="none" xmlns="http://www.w3.org/2000/svg">
<path d="M199.955 115.283L208.401 124.055C211.878 127.532 211.878 133.569 208.401 137.046L134.497 210.947C131.018 214.426 124.982 214.426 121.503 210.947L47.5988 137.046C44.1217 133.569 44.1217 127.532 47.5988 124.055L56.045 115.283C59.7036 111.624 65.5338 112.261 69.0392 115.767L112.894 161.41L112.894 52.0968C112.894 46.989 116.882 43 121.99 43L134.172 43C139.28 43 143.268 46.9893 143.268 52.0968L143.268 161.41L187.123 115.767C190.57 112.32 196.52 111.685 200.117 115.283L199.955 115.283Z" fill="currentColor"/>
</svg>
