<svg width="256" height="256" viewBox="0 0 256 256" fill="none" xmlns="http://www.w3.org/2000/svg">
<path d="M128.378 232.664C58.061 232.664 20 188.78 20 132.125C20 71.582 62.858 23 139.484 23C195.41 23 236 59.342 236 109.409C236 187.817 143.03 208.517 147.692 163.787C141.302 173.759 131.006 184.973 111.215 184.973C88.571 184.973 74.495 168.395 74.495 141.71C74.495 101.714 100.784 67.919 131.906 67.919C146.837 67.919 157.106 75.803 161.399 87.908L165.575 73.22H186.617C184.421 80.708 165.728 149.963 165.728 149.963C159.896 173.957 177.878 174.38 193.826 161.636C223.787 138.416 225.335 77.693 184.844 52.367C141.455 26.348 42.689 42.449 42.689 130.604C42.689 181.103 78.239 215.033 131.15 215.033C162.074 215.033 181.028 206.663 196.805 197.501L207.398 212.783C191.999 221.477 167.249 232.664 128.378 232.664ZM107.282 103.919C100.847 115.979 96.689 131.603 96.689 143.735C96.689 176.225 128.387 176.432 143.957 145.886C150.365 133.34 154.496 117.347 154.496 105.125C154.496 78.872 123.041 74.219 107.282 103.919Z" fill="currentColor"/>
</svg>
