<svg width="256" height="256" viewBox="0 0 256 256" fill="none" xmlns="http://www.w3.org/2000/svg">
<path d="M44.5144 78.8258C42.6305 78.8258 41.0888 78.1478 39.89 76.9609C38.6912 75.7739 38.0001 74.2475 38.0001 72.3823V56.4431C38.0001 54.5778 38.6912 53.0519 39.89 51.865C41.0888 50.678 42.6305 50 44.5144 50H211.494C213.378 50 214.92 50.678 216.119 51.865C217.317 53.0519 218 54.5778 218 56.4431V72.3823C218 74.2475 217.317 75.7739 216.119 76.9609C214.92 78.1478 213.378 78.8258 211.494 78.8258H44.5144ZM44.5144 142.413C42.6305 142.413 41.0888 141.735 39.89 140.548C38.6912 139.361 38.0001 137.835 38.0001 135.969V120.03C38.0001 118.165 38.6912 116.639 39.89 115.452C41.0888 114.265 42.6305 113.587 44.5144 113.587H211.494C213.378 113.587 214.92 114.265 216.119 115.452C217.317 116.639 218 118.165 218 120.03V135.969C218 137.835 217.317 139.361 216.119 140.548C214.92 141.735 213.378 142.413 211.494 142.413H44.5144ZM44.5144 206C42.6305 206 41.0888 205.322 39.89 204.135C38.6912 202.948 38.0001 201.422 38.0001 199.556V183.617C38.0001 181.752 38.6912 180.226 39.89 179.039C41.0888 177.852 42.6305 177.174 44.5144 177.174H211.494C213.378 177.174 214.92 177.852 216.119 179.039C217.317 180.226 218 181.752 218 183.617V199.556C218 201.422 217.317 202.948 216.119 204.135C214.92 205.322 213.378 206 211.494 206H44.5144Z" fill="currentColor"/>
</svg>
