<svg width="256" height="256" viewBox="0 0 256 256" fill="none" xmlns="http://www.w3.org/2000/svg">
<path d="M92.4417 61.9333V88.5667C92.4417 90.8334 91.7335 92.6754 90.1751 94.2337C88.6168 95.792 86.775 96.5 84.5084 96.5H50.9334C48.6668 96.5 46.8252 95.792 45.2668 94.2337C43.7085 92.6754 43.0001 90.8334 43.0001 88.5667V61.9333C43.0001 59.6666 43.7085 57.8246 45.2668 56.2663C46.8252 54.708 48.6668 54 50.9334 54H84.5084C86.775 54 88.6168 54.708 90.1751 56.2663C91.7335 57.8246 92.4417 59.6666 92.4417 61.9333ZM84.5084 107.125C86.775 107.125 88.6168 107.833 90.1751 109.391C91.7335 110.95 92.4417 112.792 92.4417 115.058V141.692C92.4417 143.958 91.7335 145.8 90.1751 147.359C88.6168 148.917 86.775 149.625 84.5084 149.625H50.9334C48.6668 149.625 46.8252 148.917 45.2668 147.359C43.7085 145.8 43.0001 143.958 43.0001 141.692V115.058C43.0001 112.792 43.7085 110.95 45.2668 109.391C46.8252 107.833 48.6668 107.125 50.9334 107.125H84.5084ZM43.0001 168.183C43.0001 165.917 43.7085 164.075 45.2668 162.516C46.8252 160.958 48.6668 160.25 50.9334 160.25H84.5084C86.775 160.25 88.6168 160.958 90.1751 162.516C91.7335 164.075 92.4417 165.917 92.4417 168.183V194.817C92.4417 197.083 91.7335 198.925 90.1751 200.484C88.6168 202.042 86.775 202.75 84.5084 202.75H50.9334C48.6668 202.75 46.8252 202.042 45.2668 200.484C43.7085 198.925 43.0001 197.083 43.0001 194.817V168.183ZM152.933 88.5667C152.933 90.8334 152.225 92.6754 150.667 94.2337C149.108 95.792 147.267 96.5 145 96.5H111.142C108.875 96.5 107.034 95.792 105.475 94.2337C103.917 92.6754 103.208 90.8334 103.208 88.5667V61.9333C103.208 59.6666 103.917 57.8246 105.475 56.2663C107.034 54.708 108.875 54 111.142 54H145C147.267 54 149.108 54.708 150.667 56.2663C152.225 57.8246 152.933 59.6666 152.933 61.9333V88.5667ZM152.933 141.692C152.933 143.958 152.225 145.8 150.667 147.359C149.108 148.917 147.267 149.625 145 149.625H111.142C108.875 149.625 107.034 148.917 105.475 147.359C103.917 145.8 103.208 143.958 103.208 141.692V115.058C103.208 112.792 103.917 110.95 105.475 109.391C107.034 107.833 108.875 107.125 111.142 107.125H145C147.267 107.125 149.108 107.833 150.667 109.391C152.225 110.95 152.933 112.792 152.933 115.058V141.692ZM103.067 168.325C103.067 166.058 103.775 164.216 105.333 162.658C106.892 161.1 108.733 160.392 111 160.392H144.858C147.125 160.392 148.967 161.1 150.525 162.658C152.083 164.216 152.792 166.058 152.792 168.325V194.958C152.792 197.225 152.083 199.066 150.525 200.625C148.967 202.183 147.125 202.892 144.858 202.892H111C108.733 202.892 106.892 202.183 105.333 200.625C103.775 199.066 103.067 197.225 103.067 194.958V168.325ZM163.558 62.0751C163.558 59.8084 164.267 57.9664 165.825 56.4081C167.383 54.8498 169.225 54.1418 171.492 54.1418H205.067C207.333 54.1418 209.175 54.8498 210.733 56.4081C212.292 57.9664 213 59.8084 213 62.0751V88.7085C213 90.9752 212.292 92.8163 210.733 94.3747C209.175 95.933 207.333 96.6418 205.067 96.6418H171.492C169.225 96.6418 167.383 95.933 165.825 94.3747C164.267 92.8163 163.558 90.9752 163.558 88.7085V62.0751ZM171.492 149.767C169.225 149.767 167.383 149.058 165.825 147.5C164.267 145.941 163.558 144.1 163.558 141.834V115.2C163.558 112.933 164.267 111.091 165.825 109.533C167.383 107.975 169.225 107.267 171.492 107.267H205.067C207.333 107.267 209.175 107.975 210.733 109.533C212.292 111.091 213 112.933 213 115.2V141.834C213 144.1 212.292 145.941 210.733 147.5C209.175 149.058 207.333 149.767 205.067 149.767H171.492ZM171.492 202.892C169.225 202.892 167.383 202.183 165.825 200.625C164.267 199.066 163.558 197.225 163.558 194.958V168.325C163.558 166.058 164.267 164.216 165.825 162.658C167.383 161.1 169.225 160.392 171.492 160.392H205.067C207.333 160.392 209.175 161.1 210.733 162.658C212.292 164.216 213 166.058 213 168.325V194.958C213 197.225 212.292 199.066 210.733 200.625C209.175 202.183 207.333 202.892 205.067 202.892H171.492Z" fill="currentColor"/>
</svg>
