<svg width="256" height="256" viewBox="0 0 256 256" fill="none" xmlns="http://www.w3.org/2000/svg">
<path d="M216.938 87.5H208.5V114.5H216.938C219.469 114.5 222 117.031 222 119.562V136.438C222 139.391 219.469 141.5 216.938 141.5H208.5V168.5H216.938C219.469 168.5 222 171.031 222 173.562V190.438C222 193.391 219.469 195.5 216.938 195.5H208.5V215.75C208.5 227.141 199.219 236 188.25 236H53.25C41.8594 236 33 227.141 33 215.75V40.25C33 29.2812 41.8594 20 53.25 20H188.25C199.219 20 208.5 29.2812 208.5 40.25V60.5H216.938C219.469 60.5 222 63.0312 222 65.5625V82.4375C222 85.3906 219.469 87.5 216.938 87.5ZM188.25 215.75V40.25H53.25V215.75H188.25ZM120.75 128C105.563 128 93.75 116.188 93.75 101C93.75 86.2344 105.563 74 120.75 74C135.516 74 147.75 86.2344 147.75 101C147.75 116.188 135.516 128 120.75 128ZM82.7813 182C77.7188 182 73.5 178.625 73.5 173.984V165.969C73.5 152.469 86.1563 141.5 101.766 141.5C106.406 141.5 109.359 144.875 120.75 144.875C131.719 144.875 135.094 141.5 139.313 141.5C154.922 141.5 168 152.469 168 165.969V173.984C168 178.625 163.781 182 158.297 182H82.7813Z" fill="currentColor"/>
</svg>
