<svg width="256" height="256" viewBox="0 0 256 256" fill="none" xmlns="http://www.w3.org/2000/svg">
<path d="M231.687 58.8476C234.562 59.9267 235.82 62.0849 235.82 65.1424V80.7893C235.82 82.7677 235.101 84.3863 233.844 85.6453C232.586 86.9042 230.968 87.6236 228.992 87.6236H26.8286C24.8519 87.6236 23.2346 86.9042 21.9767 85.6453C20.7188 84.3863 20 82.7677 20 80.7893V65.1424C20 62.0849 21.4376 59.9267 24.1331 58.8476L123.328 20.8993C124.765 20.3597 126.203 20 128 20C129.797 20 131.235 20.3597 132.672 20.8993L231.687 58.8476ZM229.171 208.843C231.148 208.843 232.765 209.562 234.023 210.821C235.281 212.08 236 213.699 236 215.677V229.166C236 231.144 235.281 232.763 234.023 234.022C232.765 235.281 231.148 236 229.171 236H26.8286C24.8519 236 23.2346 235.281 21.9767 234.022C20.7188 232.763 20 231.144 20 229.166V215.677C20 213.699 20.7188 212.08 21.9767 210.821C23.2346 209.562 24.8519 208.843 26.8286 208.843H228.992H229.171ZM47.1348 100.933H74.0898V168.376H114.522V100.933H141.478V168.376H181.91V100.933H208.865V168.376H215.694C217.671 168.376 219.288 169.096 220.546 170.355C221.804 171.614 222.522 173.232 222.522 175.211V195.354H33.6572V175.211C33.6572 173.232 34.376 171.614 35.6339 170.355C36.8918 169.096 38.5091 168.376 40.4859 168.376H47.3145V100.933H47.1348Z" fill="currentColor"/>
</svg>
