<svg width="256" height="256" viewBox="0 0 256 256" fill="none" xmlns="http://www.w3.org/2000/svg">
<path d="M217.959 222.5C221.379 222.5 223 224.121 223 227.541V236H34V227.541C34 224.121 35.6205 222.5 39.0405 222.5H47.5V30.08C47.5 27.2 48.3984 24.8606 50.3784 22.8806C52.3584 20.9006 54.7011 20 57.5811 20H199.419C202.299 20 204.642 20.9006 206.622 22.8806C208.602 24.8606 209.5 27.2 209.5 30.08V222.5H217.959ZM93.0405 47C89.6205 47 88 48.6205 88 52.0405V68.9606C88 72.3806 89.6205 74 93.0405 74H109.959C113.379 74 115 72.3806 115 68.9606V52.0405C115 48.6205 113.379 47 109.959 47H93.0405ZM93.0405 87.5C89.6205 87.5 88 89.1205 88 92.5405V109.461C88 112.881 89.6205 114.5 93.0405 114.5H109.959C113.379 114.5 115 112.881 115 109.461V92.5405C115 89.1205 113.379 87.5 109.959 87.5H93.0405ZM109.959 155C113.379 155 115 153.381 115 149.961V133.041C115 129.621 113.379 128 109.959 128H93.0405C89.6205 128 88 129.621 88 133.041V149.961C88 153.381 89.6205 155 93.0405 155H109.959ZM142 222.5V187.041C142 183.621 140.379 182 136.959 182H120.041C116.621 182 115 183.621 115 187.041V222.5H142ZM163.959 74C167.379 74 169 72.3806 169 68.9606V52.0405C169 48.6205 167.379 47 163.959 47H147.041C143.621 47 142 48.6205 142 52.0405V68.9606C142 72.3806 143.621 74 147.041 74H163.959ZM163.959 114.5C167.379 114.5 169 112.881 169 109.461V92.5405C169 89.1205 167.379 87.5 163.959 87.5H147.041C143.621 87.5 142 89.1205 142 92.5405V109.461C142 112.881 143.621 114.5 147.041 114.5H163.959ZM163.959 155C167.379 155 169 153.381 169 149.961V133.041C169 129.621 167.379 128 163.959 128H147.041C143.621 128 142 129.621 142 133.041V149.961C142 153.381 143.621 155 147.041 155H163.959Z" fill="currentColor"/>
</svg>
