<svg width="256" height="256" viewBox="0 0 256 256" fill="none" xmlns="http://www.w3.org/2000/svg">
<path d="M201.75 20C212.297 20 222 29.7031 222 40.25V215.75C222 226.719 212.297 236 201.75 236H53.25C42.2812 236 33 226.719 33 215.75V40.25C33 29.7031 42.2812 20 53.25 20H201.75ZM87 203.938V187.484C87 184.953 84.0469 182 81.5156 182H65.0625C62.5312 182 60 184.953 60 187.484V203.938C60 206.469 62.5312 209 65.0625 209H81.5156C84.0469 209 87 206.469 87 203.938ZM87 149.938V133.484C87 130.953 84.0469 128 81.5156 128H65.0625C62.5312 128 60 130.953 60 133.484V149.938C60 152.469 62.5312 155 65.0625 155H81.5156C84.0469 155 87 152.469 87 149.938ZM141 203.938V187.484C141 184.953 138.047 182 135.516 182H119.062C116.531 182 114 184.953 114 187.484V203.938C114 206.469 116.531 209 119.062 209H135.516C138.047 209 141 206.469 141 203.938ZM141 149.938V133.484C141 130.953 138.047 128 135.516 128H119.062C116.531 128 114 130.953 114 133.484V149.938C114 152.469 116.531 155 119.062 155H135.516C138.047 155 141 152.469 141 149.938ZM195 203.938V133.484C195 130.953 192.047 128 189.516 128H173.062C170.531 128 168 130.953 168 133.484V203.938C168 206.469 170.531 209 173.062 209H189.516C192.047 209 195 206.469 195 203.938ZM195 95.9375V52.4844C195 49.9531 192.047 47 189.516 47H65.0625C62.5312 47 60 49.9531 60 52.4844V95.9375C60 98.4688 62.5312 101 65.0625 101H189.516C192.047 101 195 98.4688 195 95.9375Z" fill="currentColor"/>
</svg>
