<svg width="256" height="256" viewBox="0 0 256 256" fill="none" xmlns="http://www.w3.org/2000/svg">
<path d="M222.023 67.3006V215.677C222.023 221.252 220.044 226.108 216.087 230.065C212.131 234.022 207.455 236 201.699 236H53.3231C47.7477 236 42.8918 234.022 38.9351 230.065C34.9784 226.108 33 221.432 33 215.677V67.3006C33 61.7252 34.9784 56.8693 38.9351 52.9126C42.8918 48.9559 47.5679 46.9775 53.3231 46.9775H73.4663V25.0358C73.4663 21.6187 75.0849 20 78.5021 20H95.408C98.8251 20 100.444 21.6187 100.444 25.0358V46.9775H154.399V25.0358C154.399 21.6187 156.017 20 159.435 20H176.341C179.758 20 181.376 21.6187 181.376 25.0358V46.9775H201.52C207.095 46.9775 211.951 48.9559 215.908 52.9126C219.864 56.8693 221.843 61.5454 221.843 67.3006H222.023ZM199.182 215.677C200.8 215.677 201.699 214.778 201.699 213.159V87.6236H53.3231V213.159C53.3231 214.778 54.2223 215.677 55.841 215.677H199.182ZM164.65 171.074C166.809 173.412 166.809 175.75 164.65 178.268L157.456 185.462C154.938 187.8 152.6 187.8 150.262 185.462L127.421 162.621L104.58 185.462C102.242 187.8 99.9043 187.8 97.3864 185.462L90.1923 178.268C87.8543 175.75 87.8543 173.412 90.1923 171.074L113.033 148.233L90.1923 125.392C87.8543 123.234 87.8543 120.716 90.1923 118.198L97.3864 111.004C99.9043 108.846 102.242 108.846 104.58 111.004L127.421 133.845L150.262 111.004C152.42 108.846 154.938 108.846 157.456 111.004L164.65 118.198C166.809 120.716 166.809 123.054 164.65 125.392L141.809 148.233L164.65 171.074Z" fill="currentColor"/>
</svg>
