<svg width="256" height="256" viewBox="0 0 256 256" fill="none" xmlns="http://www.w3.org/2000/svg">
<path d="M222.022 67.3006V215.677C222.022 221.252 220.044 226.108 216.087 230.065C212.131 234.022 207.455 236 201.699 236H53.323C47.7477 236 42.8917 234.022 38.935 230.065C34.9783 226.108 33 221.432 33 215.677V67.3006C33 61.7252 34.9783 56.8693 38.935 52.9126C42.8917 48.9559 47.5678 46.9775 53.323 46.9775H73.4663V25.0358C73.4663 21.6187 75.0849 20 78.5021 20H95.4079C98.8251 20 100.444 21.6187 100.444 25.0358V46.9775H154.399V25.0358C154.399 21.6187 156.017 20 159.435 20H176.34C179.758 20 181.376 21.6187 181.376 25.0358V46.9775H201.52C207.095 46.9775 211.951 48.9559 215.908 52.9126C219.864 56.8693 221.843 61.5454 221.843 67.3006H222.022ZM199.182 215.677C200.8 215.677 201.699 214.778 201.699 213.159V87.6236H53.323V213.159C53.323 214.778 54.2223 215.677 55.8409 215.677H199.182ZM169.686 138.162C173.103 138.162 174.722 139.78 174.722 143.197V153.269C174.722 156.686 173.103 158.305 169.686 158.305H137.673V190.318C137.673 193.735 136.054 195.354 132.637 195.354H122.565C119.148 195.354 117.53 193.735 117.53 190.318V158.305H85.5162C82.099 158.305 80.4804 156.686 80.4804 153.269V143.197C80.4804 139.78 82.099 138.162 85.5162 138.162H117.53V106.148C117.53 102.731 119.148 101.112 122.565 101.112H132.637C136.054 101.112 137.673 102.731 137.673 106.148V138.162H169.686Z" fill="currentColor"/>
</svg>
