<svg width="256" height="256" viewBox="0 0 256 256" fill="none" xmlns="http://www.w3.org/2000/svg">
<path d="M223 67.3006V215.677C223 221.252 221.022 226.108 217.066 230.065C213.109 234.021 208.434 236 202.679 236H54.3207C48.746 236 43.8906 234.021 39.9343 230.065C35.9781 226.108 34 221.432 34 215.677V67.3006C34 61.7253 35.9781 56.869 39.9343 52.9123C43.8906 48.9556 48.5661 46.9775 54.3207 46.9775H74.4615V25.0358C74.4615 21.6186 76.0799 20 79.4967 20H96.4006C99.8173 20 101.436 21.6186 101.436 25.0358V46.9775H155.384V25.0358C155.384 21.6186 157.003 20 160.42 20H177.324C180.74 20 182.359 21.6186 182.359 25.0358V46.9775H202.5C208.074 46.9775 212.93 48.9556 216.886 52.9123C220.842 56.869 222.82 61.5454 222.82 67.3006H223ZM200.162 215.677C201.78 215.677 202.679 214.777 202.679 213.159V87.6238H54.3207V213.159C54.3207 214.777 55.2198 215.677 56.8382 215.677H200.162ZM101.616 136.363C101.616 139.78 99.9971 141.399 96.5804 141.399H79.6765C76.2598 141.399 74.6413 139.78 74.6413 136.363V119.457C74.6413 116.04 76.2598 114.421 79.6765 114.421H96.5804C99.9971 114.421 101.616 116.04 101.616 119.457V136.363ZM101.616 176.829C101.616 180.246 99.9971 181.865 96.5804 181.865H79.6765C76.2598 181.865 74.6413 180.246 74.6413 176.829V159.923C74.6413 156.506 76.2598 154.887 79.6765 154.887H96.5804C99.9971 154.887 101.616 156.506 101.616 159.923V176.829ZM142.077 136.363C142.077 139.78 140.459 141.399 137.042 141.399H120.138C116.721 141.399 115.103 139.78 115.103 136.363V119.457C115.103 116.04 116.721 114.421 120.138 114.421H137.042C140.459 114.421 142.077 116.04 142.077 119.457V136.363ZM142.077 176.829C142.077 180.246 140.459 181.865 137.042 181.865H120.138C116.721 181.865 115.103 180.246 115.103 176.829V159.923C115.103 156.506 116.721 154.887 120.138 154.887H137.042C140.459 154.887 142.077 156.506 142.077 159.923V176.829ZM182.539 136.363C182.539 139.78 180.92 141.399 177.503 141.399H160.599C157.183 141.399 155.564 139.78 155.564 136.363V119.457C155.564 116.04 157.183 114.421 160.599 114.421H177.503C180.92 114.421 182.539 116.04 182.539 119.457V136.363ZM182.539 176.829C182.539 180.246 180.92 181.865 177.503 181.865H160.599C157.183 181.865 155.564 180.246 155.564 176.829V159.923C155.564 156.506 157.183 154.887 160.599 154.887H177.503C180.92 154.887 182.539 156.506 182.539 159.923V176.829Z" fill="currentColor"/>
</svg>
