<svg width="256" height="256" viewBox="0 0 256 256" fill="none" xmlns="http://www.w3.org/2000/svg">
<path d="M201.699 46.9775C207.275 46.9775 212.131 48.9559 216.088 52.9126C220.044 56.8693 222.023 61.5454 222.023 67.3006V215.677C222.023 221.252 220.044 226.108 216.088 230.065C212.131 234.022 207.455 236 201.699 236H53.3232C47.7478 236 42.8918 234.022 38.9351 230.065C34.9784 226.108 33 221.432 33 215.677V67.3006C33 61.7252 34.9784 56.8693 38.9351 52.9126C42.8918 48.9559 47.5679 46.9775 53.3232 46.9775H73.4663V25.0358C73.4663 21.6187 75.0852 20 78.5023 20H95.408C98.8252 20 100.444 21.6187 100.444 25.0358V46.9775H154.399V25.0358C154.399 21.6187 156.018 20 159.435 20H176.341C179.758 20 181.376 21.6187 181.376 25.0358V46.9775H201.52H201.699ZM199.182 215.677C200.8 215.677 201.699 214.778 201.699 213.159V87.6236H53.3232V213.159C53.3232 214.778 54.2224 215.677 55.841 215.677H199.182ZM176.88 123.774C179.398 126.291 179.398 128.629 176.88 130.968L116.99 190.858C114.472 193.196 112.134 193.016 109.796 190.498L78.1426 158.844C75.6247 156.326 75.6247 153.988 78.1426 151.65L87.8543 141.938C90.0125 139.78 92.5306 139.78 95.0485 141.938L113.573 160.823L160.334 114.421C162.492 111.903 165.01 111.903 167.528 114.421L176.88 123.774Z" fill="currentColor"/>
</svg>
