<svg width="256" height="256" viewBox="0 0 256 256" fill="none" xmlns="http://www.w3.org/2000/svg">
<path d="M202.593 44.9792C208.192 44.9792 213.065 46.8102 217.039 50.4739C221.012 54.1375 223 58.468 223 63.7969V82.4479H33.3616V63.7969C33.3616 58.6345 35.3497 54.1375 39.323 50.4739C43.2964 46.8102 47.9887 44.9792 53.7682 44.9792H73.9984V26.3281C73.9984 24.4963 74.7183 22.9973 75.9826 21.8316C77.2468 20.6659 78.8727 20 80.8594 20H94.405C96.3917 20 98.0175 20.6659 99.2817 21.8316C100.546 22.9973 101.266 24.4963 101.266 26.3281V44.9792H155.448V26.3281C155.448 24.4963 156.177 22.9973 157.441 21.8316C158.706 20.6659 160.331 20 162.318 20H175.864C177.85 20 179.476 20.6659 180.741 21.8316C182.005 22.9973 182.725 24.4963 182.725 26.3281V44.9792H202.955H202.593ZM33.1764 201.182V94.9375H222.815V201.182C222.815 206.345 220.836 210.84 216.862 214.503C212.889 218.167 208.188 220 202.408 220H53.4066C47.8077 220 42.9349 218.167 38.9615 214.503C34.9881 210.84 33 206.511 33 201.182H33.1764ZM65.3295 119.917C61.898 119.917 60.2676 121.414 60.2676 124.578V140.233C60.2676 143.397 61.898 144.896 65.3295 144.896H82.3056C85.7372 144.896 87.3588 143.397 87.3588 140.233V124.578C87.3588 121.414 85.7372 119.917 82.3056 119.917H65.3295ZM65.3295 169.875C61.898 169.875 60.2676 171.372 60.2676 174.536V190.191C60.2676 193.355 61.898 194.854 65.3295 194.854H82.3056C85.7372 194.854 87.3588 193.355 87.3588 190.191V174.536C87.3588 171.372 85.7372 169.875 82.3056 169.875H65.3295ZM119.512 119.917C116.08 119.917 114.45 121.414 114.45 124.578V140.233C114.45 143.397 116.08 144.896 119.512 144.896H136.488C139.92 144.896 141.541 143.397 141.541 140.233V124.578C141.541 121.414 139.92 119.917 136.488 119.917H119.512ZM119.512 169.875C116.08 169.875 114.45 171.372 114.45 174.536V190.191C114.45 193.355 116.08 194.854 119.512 194.854H136.488C139.92 194.854 141.541 193.355 141.541 190.191V174.536C141.541 171.372 139.92 169.875 136.488 169.875H119.512ZM173.694 119.917C170.263 119.917 168.632 121.414 168.632 124.578V140.233C168.632 143.397 170.263 144.896 173.694 144.896H190.67C194.102 144.896 195.724 143.397 195.724 140.233V124.578C195.724 121.414 194.102 119.917 190.67 119.917H173.694ZM173.694 169.875C170.263 169.875 168.632 171.372 168.632 174.536V190.191C168.632 193.355 170.263 194.854 173.694 194.854H190.67C194.102 194.854 195.724 193.355 195.724 190.191V174.536C195.724 171.372 194.102 169.875 190.67 169.875H173.694Z" fill="currentColor"/>
</svg>
