<svg width="256" height="256" viewBox="0 0 256 256" fill="none" xmlns="http://www.w3.org/2000/svg">
<path d="M201.699 46.9775C207.275 46.9775 212.131 48.9559 216.087 52.9126C220.044 56.8693 222.022 61.5454 222.022 67.3006V215.677C222.022 221.252 220.044 226.108 216.087 230.065C212.131 234.022 207.455 236 201.699 236H53.3231C47.7477 236 42.8918 234.022 38.9351 230.065C34.9784 226.108 33 221.432 33 215.677V67.3006C33 61.7252 34.9784 56.8693 38.9351 52.9126C42.8918 48.9559 47.5679 46.9775 53.3231 46.9775H73.4663V25.0358C73.4663 21.6187 75.0849 20 78.5021 20H95.408C98.8251 20 100.444 21.6187 100.444 25.0358V46.9775H154.399V25.0358C154.399 21.6187 156.017 20 159.435 20H176.341C179.758 20 181.376 21.6187 181.376 25.0358V46.9775H201.52H201.699ZM199.182 215.677C200.8 215.677 201.699 214.778 201.699 213.159V87.6237H53.3231V213.159C53.3231 214.778 54.2223 215.677 55.841 215.677H199.182Z" fill="currentColor"/>
</svg>
