<svg width="256" height="256" viewBox="0 0 256 256" fill="none" xmlns="http://www.w3.org/2000/svg">
<path d="M222.023 67.3006V215.677C222.023 221.252 220.044 226.108 216.087 230.065C212.131 234.022 207.455 236 201.699 236H53.323C47.7477 236 42.8918 234.022 38.9351 230.065C34.9784 226.108 33 221.432 33 215.677V67.3006C33 61.7252 34.9784 56.8693 38.9351 52.9126C42.8918 48.9559 47.5678 46.9775 53.323 46.9775H73.4663V25.0358C73.4663 21.6187 75.0849 20 78.5021 20H95.408C98.8252 20 100.444 21.6187 100.444 25.0358V46.9775H154.399V25.0358C154.399 21.6187 156.017 20 159.435 20H176.341C179.758 20 181.376 21.6187 181.376 25.0358V46.9775H201.52C207.095 46.9775 211.951 48.9559 215.908 52.9126C219.864 56.8693 221.843 61.5454 221.843 67.3006H222.023ZM199.181 215.677C200.8 215.677 201.699 214.778 201.699 213.159V87.6236H53.323V213.159C53.323 214.778 54.2224 215.677 55.841 215.677H199.181ZM85.3365 158.305C81.9193 158.305 80.3005 156.686 80.3005 153.269V143.197C80.3005 139.78 81.9193 138.162 85.3365 138.162H169.686C173.103 138.162 174.722 139.78 174.722 143.197V153.269C174.722 156.686 173.103 158.305 169.686 158.305H85.3365Z" fill="currentColor"/>
</svg>
