<svg width="256" height="256" viewBox="0 0 256 256" fill="none" xmlns="http://www.w3.org/2000/svg">
<path d="M230.919 94.3007C232.537 94.3007 233.976 95.021 234.875 96.2799C235.774 97.5389 236.135 98.9777 235.955 100.776L233.439 110.848C232.54 113.366 230.921 114.624 228.403 114.624H219.95C226.065 120.019 229.303 126.674 229.303 134.767V154.91C229.303 161.745 226.963 167.5 222.466 172.536V195.377C222.466 198.974 221.208 202.211 218.51 204.909C215.812 207.607 212.754 208.865 208.978 208.865H195.489C191.892 208.865 188.654 207.607 185.956 204.909C183.258 202.211 182 199.153 182 195.377V181.888H74.0898V195.377C74.0898 198.974 72.8314 202.211 70.1336 204.909C67.4359 207.607 64.3779 208.865 60.601 208.865H47.1123C43.5153 208.865 40.2774 207.607 37.5797 204.909C34.8819 202.211 33.6235 199.153 33.6235 195.377V172.536C29.1272 167.5 26.7913 161.565 26.7913 154.91V134.767C26.7913 126.674 29.8491 119.84 36.1439 114.624H27.687C25.1691 114.624 23.5543 113.366 22.6551 110.848L20.1347 100.776C19.775 99.1575 20.1358 97.5389 21.2149 96.2799C22.1141 95.021 23.5524 94.3007 25.1711 94.3007H50.5284L57.725 76.6757C61.1422 67.6832 66.7167 60.489 74.8099 55.0935C82.9032 49.698 91.5353 47 101.067 47H155.022C164.555 47 173.367 49.698 181.28 55.0935C189.373 60.489 194.948 67.6832 198.365 76.6757L205.561 94.3007H230.919ZM60.601 155.09H68.1534C68.1534 155.09 70.1352 155.09 71.7539 154.91C73.3725 154.91 74.4508 154.551 75.35 154.191C76.2493 153.831 77.1468 153.472 78.046 153.112C78.9453 152.752 79.6668 152.033 80.2063 151.134C80.7459 150.235 80.9264 149.335 80.9264 148.256C80.9264 144.119 78.5857 139.623 73.7298 134.947C68.8738 130.271 64.5578 127.933 60.601 127.933C56.6443 127.933 53.4063 129.192 50.8884 131.71C48.3705 134.228 47.1123 137.465 47.1123 141.421C47.1123 145.378 48.3705 148.616 50.8884 151.134C53.4063 153.652 56.6443 154.91 60.601 154.91V155.09ZM82.5423 86.7473L74.0898 107.79H182L173.548 86.7473C172.109 83.1503 169.772 80.0929 166.175 77.7548C162.578 75.4167 158.979 74.1576 155.022 74.1576H101.067C97.1107 74.1576 93.3361 75.4167 89.9189 77.7548C86.3219 80.0929 83.9811 83.1503 82.5423 86.7473ZM195.489 155.09C199.446 155.09 202.684 153.832 205.201 151.314C207.719 148.796 208.978 145.558 208.978 141.601C208.978 137.645 207.719 134.408 205.201 131.89C202.684 129.372 199.446 128.113 195.489 128.113C191.532 128.113 187.216 130.451 182.36 135.127C177.504 139.803 175.168 144.119 175.168 148.436C175.168 149.515 175.344 150.595 175.884 151.314C176.423 152.033 176.965 152.753 178.044 153.292C178.943 153.652 180.02 154.012 180.74 154.371C181.639 154.731 182.722 154.91 184.34 155.09C185.959 155.09 187.037 155.27 187.936 155.27H195.489V155.09Z" fill="currentColor"/>
</svg>
