<svg width="256" height="256" viewBox="0 0 256 256" fill="none" xmlns="http://www.w3.org/2000/svg">
<path d="M217.948 44C222.901 44 227.216 45.7567 230.73 49.2716C234.245 52.7864 236 56.9411 236 62.0536V68.1248H20.3161V62.0536C20.3161 57.1009 22.0747 52.7864 25.5896 49.2716C29.1044 45.7567 33.2591 44 38.3716 44H218.108H217.948ZM20.1561 193.861V80.1073H235.84V193.861C235.84 198.813 234.085 203.126 230.571 206.641C227.056 210.156 222.901 211.914 217.789 211.914H38.0518C33.0991 211.914 28.7846 210.156 25.2697 206.641C21.7549 203.126 20.0001 198.973 20.0001 193.861H20.1561ZM45.2405 180.439C44.7612 182.196 45.2416 183.795 46.3599 185.552C47.6381 187.15 49.2365 187.949 51.1537 187.949H120.809C122.727 187.949 124.485 187.15 125.603 185.712C126.881 184.274 127.202 182.516 126.723 180.439C125.285 175.646 122.408 171.812 118.095 168.616C113.781 165.421 109.15 163.984 103.877 163.984H100.839C96.0458 166.061 91.0939 167.019 85.8217 167.019C80.5494 167.019 75.5976 166.061 70.8046 163.984H67.77C62.4977 163.984 57.7025 165.581 53.5486 168.616C49.235 171.812 46.3585 175.646 44.9206 180.439H45.2405ZM102.918 111.101C98.1247 106.308 92.5322 103.912 86.1415 103.912C79.7509 103.912 73.9985 106.308 69.3653 111.101C64.7321 115.894 62.1766 121.486 62.1766 127.877C62.1766 134.268 64.5723 140.018 69.3653 144.651C74.1583 149.444 79.7509 151.842 86.1415 151.842C92.5322 151.842 98.2845 149.444 102.918 144.651C107.551 139.858 110.106 134.268 110.106 127.877C110.106 121.486 107.711 115.734 102.918 111.101ZM155.002 103.912C152.925 103.912 151.963 104.87 151.963 106.947V113.018C151.963 115.095 152.925 116.055 155.002 116.055H209.001C210.918 116.055 212.035 115.095 212.035 113.018V106.947C212.035 105.03 211.078 103.912 209.001 103.912H155.002ZM155.002 127.877C152.925 127.877 151.963 128.835 151.963 130.912V136.983C151.963 139.06 152.925 140.02 155.002 140.02H209.001C210.918 140.02 212.035 139.06 212.035 136.983V130.912C212.035 128.995 211.078 127.877 209.001 127.877H155.002ZM155.002 151.842C152.925 151.842 151.963 152.8 151.963 154.877V160.948C151.963 163.025 152.925 163.984 155.002 163.984H209.001C210.918 163.984 212.035 163.025 212.035 160.948V154.877C212.035 152.959 211.078 151.842 209.001 151.842H155.002Z" fill="currentColor"/>
</svg>
