<svg width="256" height="256" viewBox="0 0 256 256" fill="none" xmlns="http://www.w3.org/2000/svg">
<path d="M218 44C227.75 44 236 52.25 236 62V194C236 204.125 227.75 212 218 212H38C27.875 212 20 204.125 20 194V62C20 52.25 27.875 44 38 44H218ZM218 194V62H38V194H218ZM98 128C84.5 128 74 117.5 74 104C74 90.875 84.5 80 98 80C111.125 80 122 90.875 122 104C122 117.5 111.125 128 98 128ZM64.25 176C59.75 176 56 173 56 168.875V161.75C56 149.75 67.25 140 81.125 140C85.25 140 87.875 143 98 143C107.75 143 110.75 140 114.5 140C128.375 140 140 149.75 140 161.75V168.875C140 173 136.25 176 131.375 176H64.25ZM155 152C153.125 152 152 150.875 152 149V143C152 141.5 153.125 140 155 140H197C198.5 140 200 141.5 200 143V149C200 150.875 198.5 152 197 152H155ZM155 128C153.125 128 152 126.875 152 125V119C152 117.5 153.125 116 155 116H197C198.5 116 200 117.5 200 119V125C200 126.875 198.5 128 197 128H155ZM155 104C153.125 104 152 102.875 152 101V95C152 93.5 153.125 92 155 92H197C198.5 92 200 93.5 200 95V101C200 102.875 198.5 104 197 104H155Z" fill="currentColor"/>
</svg>
