<svg width="256" height="256" viewBox="0 0 256 256" fill="none" xmlns="http://www.w3.org/2000/svg">
<path d="M218.016 145.015C217.056 149.817 214.174 152.218 209.372 152.218H99.3986L101.64 164.224H202.489C205.21 164.224 207.451 165.345 209.212 167.586C210.973 169.827 211.613 172.388 211.133 175.11L208.892 184.554C216.896 188.236 220.898 194.639 220.898 203.283C220.898 209.046 218.817 214.008 214.655 218.17C210.493 222.332 205.53 224.414 199.447 224.414C194.005 224.414 189.202 222.332 185.2 218.331C181.198 214.329 179.117 209.526 178.797 204.084C178.477 197.841 180.718 192.558 185.2 188.396H106.442C110.764 192.398 112.845 197.36 112.845 203.443C112.845 209.526 110.604 214.489 106.282 218.651C101.96 222.813 96.6773 224.734 90.7544 224.414C85.4718 224.093 80.9897 222.172 76.9877 218.17C72.9858 214.169 71.0648 209.686 70.7447 204.404C70.2644 195.92 73.7862 189.356 81.3098 184.874L55.2171 56.0117H28.9644C26.4031 56.0117 24.3221 55.2113 22.5612 53.4504C20.8004 51.6896 20 49.6085 20 47.0473V40.9643C20 38.4031 20.8004 36.3221 22.5612 34.5612C24.3221 32.8004 26.4031 32 28.9644 32H67.5431C69.464 32 71.385 32.6403 72.9858 34.081C74.5865 35.5217 75.7071 37.1225 76.1873 39.2035L79.549 56.0117H226.981C230.022 56.0117 232.423 57.1322 234.184 59.3733C235.945 61.6144 236.425 64.1756 235.625 66.8969L218.016 145.015ZM171.113 104.195H154.946V81.6241C154.946 78.5826 153.505 77.1419 150.463 77.1419H141.499C138.458 77.1419 137.017 78.5826 137.017 81.6241V104.195H120.849C118.768 104.195 117.487 105.156 116.687 107.076C115.887 108.997 116.207 110.438 117.487 111.719L142.94 137.171C144.861 139.252 146.942 139.252 149.023 137.171L174.475 111.719C175.756 110.438 175.916 108.837 175.275 107.076C174.635 105.316 173.194 104.195 171.113 104.195Z" fill="currentColor"/>
</svg>
