<svg width="256" height="256" viewBox="0 0 256 256" fill="none" xmlns="http://www.w3.org/2000/svg">
<path d="M218.016 145.015C217.056 149.817 214.174 152.218 209.372 152.218H99.3986L101.64 164.224H202.489C208.076 164.224 212.074 169.776 211.133 175.11L208.892 184.554C216.896 188.236 220.898 194.639 220.898 203.283C220.898 214.986 211.036 224.414 199.447 224.414C188.37 224.414 179.433 214.89 178.797 204.084C178.477 197.841 180.718 192.558 185.2 188.396H106.442C110.764 192.398 112.845 197.36 112.845 203.443C112.845 215.309 102.615 225.055 90.7544 224.414C80.1216 223.769 71.3891 215.037 70.7447 204.404C70.2644 195.92 73.7861 189.356 81.3098 184.874L55.2171 56.0117H28.9644C23.9284 56.0117 20 52.0833 20 47.0473V40.9644C20 35.9284 23.9284 32 28.9644 32H67.5431C71.6356 32 75.282 35.2804 76.1873 39.2035L79.5489 56.0117H226.981C232.691 56.0117 237.302 61.1958 235.625 66.897L218.016 145.015ZM171.113 104.195H154.946V81.6241C154.946 78.5826 153.505 77.1419 150.463 77.1419H141.499C138.458 77.1419 137.017 78.5826 137.017 81.6241V104.195H120.849C117.12 104.195 114.732 108.963 117.487 111.719L142.94 137.171C144.861 139.252 146.942 139.252 149.023 137.171L174.475 111.719C177.22 108.974 174.8 104.195 171.113 104.195Z" fill="currentColor"/>
</svg>
