<svg width="256" height="256" viewBox="0 0 256 256" fill="none" xmlns="http://www.w3.org/2000/svg">
<path d="M218.016 145.049C217.056 149.853 214.174 152.255 209.372 152.255H99.3986L101.64 164.264H202.489C208.077 164.264 212.074 169.818 211.133 175.153L208.892 184.6C216.896 188.283 220.898 194.688 220.898 203.335C220.898 215.039 211.039 224.472 199.447 224.472C188.368 224.472 179.433 214.943 178.797 204.136C178.477 197.891 180.718 192.606 185.2 188.443H106.442C110.764 192.446 112.845 197.41 112.845 203.495C112.845 215.361 102.618 225.113 90.7544 224.472C80.1193 223.827 71.3889 215.089 70.7447 204.456C70.2644 195.969 73.7861 189.404 81.3098 184.92L55.2171 56.0189H28.9644C23.9273 56.0189 20 52.0881 20 47.0519V40.9671C20 35.9308 23.9273 32 28.9644 32H67.5431C71.6364 32 75.2822 35.2822 76.1873 39.2057L79.5489 56.0189H226.981C232.693 56.0189 237.301 61.206 235.625 66.9075L218.016 145.049ZM173.034 95.0897H155.106V80.0378C155.106 76.671 152.39 73.953 149.023 73.953H142.94C139.572 73.953 136.857 76.671 136.857 80.0378V95.0897H118.928C115.561 95.0897 112.845 97.8076 112.845 101.174V107.259C112.845 110.626 115.561 113.344 118.928 113.344H136.857V128.396C136.857 131.763 139.572 134.481 142.94 134.481H149.023C152.39 134.481 155.106 131.763 155.106 128.396V113.344H173.034C176.402 113.344 179.117 110.626 179.117 107.259V101.174C179.117 97.8076 176.402 95.0897 173.034 95.0897Z" fill="currentColor"/>
</svg>
