<svg width="256" height="256" viewBox="0 0 256 256" fill="none" xmlns="http://www.w3.org/2000/svg">
<path d="M224.122 57C230.592 57 236 62.3478 236 68.8235V187.058C236 193.546 230.579 198.882 224.122 198.882H31.8785C25.3933 198.882 20 193.547 20 187.058V68.8235C20 62.3227 25.4057 57 31.8785 57H224.122ZM218.105 157.578V98.461C204.855 98.461 194.348 88.0832 194.348 74.814H61.4973C61.4973 88.0832 50.9621 98.461 37.7404 98.461V157.578C50.9747 157.578 61.4973 167.969 61.4973 181.225H194.348C194.348 167.944 204.868 157.578 218.105 157.578ZM127.845 86.6375C149.528 86.6375 163.481 107.913 163.481 127.941C163.481 148 149.555 169.244 127.845 169.244C106.146 169.244 92.2099 147.982 92.2099 127.941C92.2099 107.868 106.119 86.6375 127.845 86.6375ZM139.724 151.588C141.624 151.588 142.724 150.642 142.724 148.593V142.602C142.724 140.71 141.783 139.607 139.724 139.607H133.692V107.132C133.692 105.24 132.75 104.136 130.691 104.136H125.463C123.721 104.136 122.141 104.609 120.715 105.555L115.163 109.181C113.842 110.277 113.702 111.443 114.528 113.122L117.544 118.324C118.651 120.242 120.628 120.012 121.983 119.113V139.449H115.967C113.908 139.449 112.951 140.395 112.951 142.444V148.435C112.951 150.484 113.843 151.588 115.902 151.588H139.724Z" fill="currentColor"/>
</svg>
