<svg width="256" height="256" viewBox="0 0 256 256" fill="none" xmlns="http://www.w3.org/2000/svg">
<path d="M224.122 57C230.592 57 236 62.3478 236 68.8235V187.058C236 193.546 230.579 198.882 224.122 198.882H31.8787C25.3935 198.882 20.0002 193.547 20.0002 187.058V68.8235C20.0002 62.3227 25.4059 57 31.8787 57H224.122ZM218.105 157.578V98.461C204.856 98.461 194.348 88.0832 194.348 74.814H61.4976C61.4976 88.0832 50.9623 98.461 37.7406 98.461V157.578C50.9749 157.578 61.4976 167.969 61.4976 181.225H194.348C194.348 167.944 204.868 157.578 218.105 157.578ZM127.846 86.6375C149.529 86.6375 163.481 107.913 163.481 127.941C163.481 148 149.555 169.244 127.846 169.244C106.146 169.244 92.2102 147.982 92.2102 127.941C92.2102 107.868 106.12 86.6375 127.846 86.6375ZM139.724 151.588C141.625 151.588 142.725 150.642 142.725 148.593V142.602C142.725 140.71 141.783 139.607 139.724 139.607H133.692V107.132C133.692 105.24 132.75 104.136 130.691 104.136H125.464C123.722 104.136 122.141 104.609 120.715 105.555L115.163 109.181C113.842 110.277 113.702 111.443 114.529 113.122L117.545 118.324C118.651 120.242 120.628 120.012 121.984 119.113V139.449H115.967C113.908 139.449 112.951 140.395 112.951 142.444V148.435C112.951 150.484 113.843 151.588 115.902 151.588H139.724Z" fill="currentColor"/>
</svg>
