<svg width="256" height="256" viewBox="0 0 256 256" fill="none" xmlns="http://www.w3.org/2000/svg">
<path d="M227.108 68.1683C230.515 63.1381 229.198 56.2988 224.168 52.8922C219.138 49.4856 212.299 50.8018 208.892 55.832L155.317 134.942L104.534 97.4488C102.124 95.6698 99.0935 94.9503 96.1416 95.4563C93.1896 95.9624 90.5716 97.6502 88.8922 100.13L28.8922 188.726C25.4856 193.756 26.8018 200.596 31.832 204.002C36.8621 207.409 43.7015 206.093 47.108 201.063L100.684 121.953L151.467 159.446C153.876 161.225 156.907 161.944 159.859 161.438C162.811 160.932 165.429 159.244 167.108 156.764L227.108 68.1683Z" fill="currentColor"/>
</svg>
