<svg width="256" height="256" viewBox="0 0 256 256" fill="none" xmlns="http://www.w3.org/2000/svg">
<path fill-rule="evenodd" clip-rule="evenodd" d="M176.044 102.115C176.044 85.6476 168.37 71.4182 153.181 59.7468V59.587C137.833 47.9156 119.606 42 98.0222 42C76.4382 42 58.0519 47.9156 42.8632 59.587C27.6744 71.4182 20 85.4878 20 101.956C20 114.746 24.7964 126.258 34.2294 136.49C30.5522 145.124 26.0755 151.839 20.7995 156.795C20.1599 157.754 20 158.873 20.4796 160.152C20.9593 161.431 21.7587 162.071 23.0378 162.071C34.5493 162.071 45.7409 158.873 56.453 152.638C69.2435 158.873 82.9934 162.071 98.0222 162.071C119.606 162.071 137.993 156.155 153.181 144.484C168.37 132.653 176.044 118.583 176.044 102.115ZM58.669 93.2433C63.9989 93.2433 68.4305 97.6188 68.4305 102.962C68.4305 108.304 63.9989 112.68 58.669 112.68C53.3391 112.68 48.9075 108.304 48.9075 102.962C48.9075 97.6188 53.3391 93.2433 58.669 93.2433ZM97.7149 93.2433C103.045 93.2433 107.476 97.6188 107.476 102.962C107.476 108.304 103.045 112.68 97.7149 112.68C92.385 112.68 87.9534 108.304 87.9534 102.962C87.9534 97.6188 92.385 93.2433 97.7149 93.2433ZM146.522 102.962C146.522 97.6188 142.091 93.2433 136.761 93.2433C131.431 93.2433 126.999 97.6188 126.999 102.962C126.999 108.304 131.431 112.68 136.761 112.68C142.091 112.68 146.522 108.304 146.522 102.962Z" fill="currentColor"/>
<path d="M221.77 184.614C231.203 174.382 236 162.87 236 150.08L235.84 150.4C235.84 138.089 231.363 126.897 222.41 116.825C213.457 106.752 201.785 99.3974 187.556 94.9208C187.875 97.1591 187.876 99.7172 187.876 102.435C187.876 122.26 179.082 139.208 161.495 153.277C143.908 167.347 122.804 174.382 98.0222 174.382C94.5048 174.382 90.5078 174.062 86.0311 173.582C91.9467 184.454 101.54 193.408 114.49 200.123C127.44 206.838 141.99 210.195 157.978 210.195C173.007 210.195 186.756 206.998 199.547 200.762C210.419 206.998 221.451 210.195 232.962 210.195C234.081 210.195 235.04 209.556 235.52 208.277C236 206.998 236 205.878 235.201 204.919C230.084 199.803 225.448 193.088 221.77 184.614Z" fill="currentColor"/>
</svg>
