<svg width="256" height="256" viewBox="0 0 256 256" fill="none" xmlns="http://www.w3.org/2000/svg">
<path d="M104.477 186.41L51.1765 133.384C49.677 131.885 49 129.977 49 127.659C49 125.342 49.677 123.433 51.1765 121.934L63.0373 110.484C64.5367 108.848 66.4472 107.894 68.6282 107.894C70.8092 107.894 72.8497 108.712 74.4854 110.484L110.201 146.198L186.81 69.59C188.446 67.9542 190.493 67 192.674 67C194.855 67 196.759 67.8179 198.258 69.59L210.119 81.0398C211.619 82.5392 212.302 84.4482 212.302 86.7655C212.302 89.0828 211.619 90.991 210.119 92.4904L115.925 186.41C114.426 188.182 112.518 189 110.201 189C107.884 189 105.976 188.182 104.477 186.41Z" fill="currentColor"/>
</svg>
