<svg width="256" height="256" viewBox="0 0 256 256" fill="none" xmlns="http://www.w3.org/2000/svg">
<path d="M62.3843 208.401L136.285 134.497C140.434 130.986 140.19 125.083 136.285 121.503L62.3843 47.5996C58.9061 44.1215 52.863 44.122 49.3854 47.5996L40.939 56.0451C37.4404 59.5436 36.8039 65.3887 40.4552 69.04L99.4139 128L40.4552 186.961C36.8647 190.551 37.4987 196.515 40.939 199.955L49.3854 208.401C52.863 211.878 58.9061 211.879 62.3843 208.401Z" fill="currentColor"/>
<path d="M140.384 208.401L214.285 134.497C218.434 130.986 218.19 125.083 214.285 121.503L140.384 47.5996C136.906 44.1215 130.863 44.122 127.385 47.5996L118.939 56.0451C115.44 59.5436 114.804 65.3887 118.455 69.04L177.414 128L118.455 186.961C114.865 190.551 115.499 196.515 118.939 199.955L127.385 208.401C130.863 211.878 136.906 211.879 140.384 208.401Z" fill="currentColor"/>
</svg>
