<svg width="256" height="256" viewBox="0 0 256 256" fill="none" xmlns="http://www.w3.org/2000/svg">
<path fill-rule="evenodd" clip-rule="evenodd" d="M118.74 189.577V138.962H125.95L135.166 189.577H161.95L150.45 138.962C157.708 136.161 163.243 129.667 163.243 119.48V91.212C163.243 74.404 155.348 66 139.559 66H92V189.577H118.74ZM118.74 120.244V84.145H132.874C134.856 84.145 136.503 86.0262 136.503 87.965V116.424C136.503 118.363 134.856 120.244 132.874 120.244H118.74Z" fill="currentColor"/>
<path fill-rule="evenodd" clip-rule="evenodd" d="M14 128.412C14 191.032 65.5849 242.825 128.253 242.825C190.92 242.825 242.505 191.032 242.505 128.412C242.505 65.7922 190.92 14 128.253 14C65.5229 14 14 65.7655 14 128.412ZM35.8279 128.412C35.8279 77.7962 77.3526 36.0554 128.056 36.0554C178.684 36.0554 220.284 77.8095 220.284 128.412C220.284 179.028 178.759 220.769 128.056 220.769C77.4013 220.769 35.8279 179.077 35.8279 128.412Z" fill="currentColor"/>
</svg>
