<svg width="256" height="256" viewBox="0 0 256 256" fill="none" xmlns="http://www.w3.org/2000/svg">
<path d="M128.499 200C140.769 200 151 189.816 151 177.541C151 165.258 140.76 155.083 128.499 155.083C116.243 155.083 106 165.304 106 177.541C106 189.808 116.273 200 128.499 200Z" fill="currentColor"/>
<path d="M115.142 56C111.332 56 108.406 59.3804 108.406 63.0862H108.285L112.254 139.709C112.254 143.498 115.266 146.195 118.993 146.195H137.643C141.37 146.195 144.382 143.498 144.382 139.709L148.35 63.0862C148.35 59.3804 145.424 56 141.615 56H115.142Z" fill="currentColor"/>
<path fill-rule="evenodd" clip-rule="evenodd" d="M14.0001 128.412C14.0001 191.032 65.5851 242.825 128.253 242.825C190.92 242.825 242.505 191.032 242.505 128.412C242.505 65.7922 190.92 14 128.253 14C65.523 14 14.0001 65.7655 14.0001 128.412ZM35.8281 128.412C35.8281 77.7962 77.3527 36.0554 128.056 36.0554C178.684 36.0554 220.284 77.8095 220.284 128.412C220.284 179.028 178.759 220.769 128.056 220.769C77.4014 220.769 35.8281 179.077 35.8281 128.412Z" fill="currentColor"/>
</svg>
