<svg width="256" height="256" viewBox="0 0 256 256" fill="none" xmlns="http://www.w3.org/2000/svg">
<path fill-rule="evenodd" clip-rule="evenodd" d="M163.89 91.25C163.89 74.53 156.037 66.17 140.33 66.17H115.06C99.3533 66.17 91.5 74.53 91.5 91.25V191H118.1V149.77H137.29V191H163.89V91.25ZM137.29 129.25H118.1V88.02C118.1 85.9725 119.599 84.22 121.71 84.22H133.68C135.652 84.22 137.29 86.0913 137.29 88.02V129.25Z" fill="currentColor"/>
<path fill-rule="evenodd" clip-rule="evenodd" d="M14 128.412C14 191.032 65.5849 242.825 128.253 242.825C190.92 242.825 242.505 191.032 242.505 128.412C242.505 65.7922 190.92 14 128.253 14C65.5229 14 14 65.7655 14 128.412ZM35.8279 128.412C35.8279 77.7962 77.3526 36.0554 128.056 36.0554C178.684 36.0554 220.284 77.8095 220.284 128.412C220.284 179.028 178.759 220.769 128.056 220.769C77.4013 220.769 35.8279 179.077 35.8279 128.412Z" fill="currentColor"/>
</svg>
