<svg width="256" height="256" viewBox="0 0 256 256" fill="none" xmlns="http://www.w3.org/2000/svg">
<path d="M204.396 51.6017C225.401 72.6067 235.995 98.0726 235.995 128C235.995 157.927 225.401 183.393 204.396 204.398C183.391 225.403 157.927 236 128 236C98.0726 236 72.6044 225.403 51.5995 204.398C30.5945 183.393 20 157.927 20 128C20 98.0726 30.5945 72.6067 51.5995 51.6017C72.6044 30.5968 98.0726 20 128 20C157.927 20 183.391 30.5968 204.396 51.6017ZM142.127 155.697C138.224 151.793 133.391 149.749 128 149.749C122.609 149.749 117.776 151.793 113.873 155.697C109.969 159.6 107.923 164.433 107.923 169.824C107.923 175.215 109.969 180.048 113.873 183.951C117.776 187.855 122.423 189.899 128 189.899C133.577 189.899 138.224 187.855 142.127 183.951C146.031 180.048 148.072 175.401 148.072 169.824C148.072 164.247 146.031 159.6 142.127 155.697ZM108.853 77.9982L112.384 137.294C112.384 140.454 114.058 142.127 117.589 142.127H138.406C141.938 142.127 143.611 140.454 143.611 137.294L147.147 77.9982C147.147 76.3252 146.588 74.8364 145.658 73.907C144.729 72.9775 143.428 72.4207 141.941 72.4207H114.059C112.572 72.4207 111.453 72.9775 110.337 73.907C109.222 74.8364 108.853 76.3252 108.853 77.9982Z" fill="currentColor"/>
</svg>
