<svg width="256" height="256" viewBox="0 0 256 256" fill="none" xmlns="http://www.w3.org/2000/svg">
<path d="M128.253 242.825C65.5851 242.825 14.0001 191.032 14.0001 128.412C14.0001 65.7655 65.523 14 128.253 14C190.92 14 242.505 65.7922 242.505 128.412C242.505 191.032 190.92 242.825 128.253 242.825ZM128.056 36.0554C77.3527 36.0554 35.8281 77.7962 35.8281 128.412C35.8281 179.077 77.4014 220.769 128.056 220.769C178.759 220.769 220.284 179.028 220.284 128.412C220.284 77.8095 178.684 36.0554 128.056 36.0554Z" fill="currentColor"/>
<path d="M151 177.541C151 189.816 140.769 200 128.499 200C116.273 200 106 189.808 106 177.541C106 165.304 116.243 155.083 128.499 155.083C140.76 155.083 151 165.258 151 177.541ZM108.406 63.0862C108.406 59.3804 111.332 56 115.142 56H141.615C145.424 56 148.35 59.3804 148.35 63.0862L144.382 139.709C144.382 143.498 141.37 146.195 137.643 146.195H118.993C115.266 146.195 112.254 143.498 112.254 139.709L108.285 63.0862H108.406Z" fill="currentColor"/>
</svg>
