<svg width="256" height="256" viewBox="0 0 256 256" fill="none" xmlns="http://www.w3.org/2000/svg">
<path fill-rule="evenodd" clip-rule="evenodd" d="M164.89 143.88C164.89 133.367 160.773 126.653 152.54 123.74C159.76 120.953 163.37 114.493 163.37 104.36V93.15C163.37 76.43 155.517 68.07 139.81 68.07H92.5V191H141.33C157.037 191 164.89 182.64 164.89 165.92V143.88ZM119.1 86.12H133.16C135.132 86.12 136.77 87.9913 136.77 89.92V115.19C136.77 117.119 135.132 118.99 133.16 118.99H119.1V86.12ZM138.29 141.41V168.96C138.29 170.889 136.652 172.76 134.68 172.76H119.1V137.61H134.68C136.652 137.61 138.29 139.481 138.29 141.41Z" fill="currentColor"/>
<path fill-rule="evenodd" clip-rule="evenodd" d="M14 128.412C14 191.032 65.5849 242.825 128.253 242.825C190.92 242.825 242.505 191.032 242.505 128.412C242.505 65.7922 190.92 14 128.253 14C65.5229 14 14 65.7655 14 128.412ZM35.8279 128.412C35.8279 77.7962 77.3526 36.0554 128.056 36.0554C178.684 36.0554 220.284 77.8095 220.284 128.412C220.284 179.028 178.759 220.769 128.056 220.769C77.4013 220.769 35.8279 179.077 35.8279 128.412Z" fill="currentColor"/>
</svg>
