<svg width="256" height="256" viewBox="0 0 256 256" fill="none" xmlns="http://www.w3.org/2000/svg">
<path d="M188.728 46.9775C194.304 46.9775 199.156 48.9556 203.113 52.9123C207.07 56.869 209.049 61.5454 209.049 67.3006V215.677C209.049 221.252 207.07 226.108 203.113 230.065C199.156 234.021 194.484 236 188.728 236H67.3297C61.7544 236 56.8932 234.021 52.9365 230.065C48.9798 226.108 47 221.432 47 215.677V67.3006C47 61.7253 48.9798 56.869 52.9365 52.9123C56.8932 48.9556 61.5745 46.9775 67.3297 46.9775H101.139C101.139 39.6036 103.841 33.3086 109.236 28.0929C114.632 22.8773 120.923 20 128.117 20C135.311 20 141.782 22.6974 146.998 28.0929C152.393 33.4884 155.094 39.7835 155.094 46.9775H188.904H188.728ZM80.4584 114.781C82.4368 116.759 84.7731 117.658 87.6507 117.658C90.5283 117.658 92.8646 116.759 94.8429 114.781C96.8213 112.802 97.7233 110.464 97.7233 107.587C97.7233 104.709 96.8213 102.371 94.8429 100.393C92.8646 98.4146 90.5283 97.5153 87.6507 97.5153C84.7731 97.5153 82.4368 98.4146 80.4584 100.393C78.4801 102.371 77.578 104.709 77.578 107.587C77.578 110.464 78.4801 112.802 80.4584 114.781ZM80.4584 155.247C82.4368 157.225 84.7731 158.125 87.6507 158.125C90.5283 158.125 92.8646 157.225 94.8429 155.247C96.8213 153.269 97.7233 150.931 97.7233 148.053C97.7233 145.176 96.8213 142.838 94.8429 140.859C92.8646 138.881 90.5283 137.982 87.6507 137.982C84.7731 137.982 82.4368 138.881 80.4584 140.859C78.4801 142.838 77.578 145.176 77.578 148.053C77.578 150.931 78.4801 153.269 80.4584 155.247ZM80.4584 195.713C82.4368 197.692 84.7731 198.591 87.6507 198.591C90.5283 198.591 92.8646 197.692 94.8429 195.713C96.8213 193.735 97.7233 191.397 97.7233 188.519C97.7233 185.642 96.8213 183.304 94.8429 181.325C92.8646 179.347 90.5283 178.448 87.6507 178.448C84.7731 178.448 82.4368 179.347 80.4584 181.325C78.4801 183.304 77.578 185.642 77.578 188.519C77.578 191.397 78.4801 193.735 80.4584 195.713ZM178.656 114.421C180.814 114.421 182.072 113.342 182.072 111.004V104.17C182.072 102.011 180.994 100.752 178.656 100.752H117.869C115.531 100.752 114.444 101.832 114.444 104.17V111.004C114.444 113.342 115.531 114.421 117.869 114.421H178.656ZM178.656 154.887C180.814 154.887 182.072 153.808 182.072 151.47V144.636C182.072 142.478 180.994 141.219 178.656 141.219H117.869C115.531 141.219 114.444 142.298 114.444 144.636V151.47C114.444 153.808 115.531 154.887 117.869 154.887H178.656ZM178.656 195.354C180.814 195.354 182.072 194.275 182.072 191.937V185.102C182.072 182.944 180.994 181.685 178.656 181.685H117.869C115.531 181.685 114.444 182.764 114.444 185.102V191.937C114.444 194.275 115.531 195.354 117.869 195.354H178.656ZM135.309 39.7836C133.331 37.8053 130.994 36.9059 128.117 36.9059C125.239 36.9059 122.903 37.8053 120.925 39.7836C118.946 41.762 118.044 44.0999 118.044 46.9775C118.044 49.8551 118.946 52.193 120.925 54.1714C122.903 56.1497 125.239 57.0491 128.117 57.0491C130.994 57.0491 133.331 56.1497 135.309 54.1714C137.287 52.193 138.19 49.8551 138.19 46.9775C138.19 44.0999 137.287 41.762 135.309 39.7836Z" fill="currentColor"/>
</svg>
