<svg width="256" height="256" viewBox="0 0 256 256" fill="none" xmlns="http://www.w3.org/2000/svg">
<path d="M188.72 46.9775C194.295 46.9775 199.147 48.9556 203.104 52.9123C207.061 56.869 209.041 61.5454 209.041 67.3006V215.677C209.041 221.252 207.061 226.108 203.104 230.065C199.147 234.021 194.475 236 188.72 236H67.3209C61.7456 236 56.8844 234.021 52.9277 230.065C48.971 226.108 47 221.432 47 215.677V67.3006C47 61.7253 48.971 56.869 52.9277 52.9123C56.8844 48.9556 61.5657 46.9775 67.3209 46.9775H101.131C101.131 39.6036 103.832 33.3086 109.227 28.0929C114.623 22.8773 120.914 20 128.108 20C135.302 20 141.782 22.6974 146.998 28.0929C152.393 33.4884 155.086 39.7835 155.086 46.9775H188.895H188.72ZM179.007 134.744C181.525 132.226 181.525 129.889 179.007 127.55L167.134 115.32C164.796 113.162 162.46 113.162 159.942 115.32L115.339 159.923L95.9143 140.14C93.5762 137.981 91.2399 137.981 88.722 140.14L76.8491 152.01C74.3312 154.528 74.3312 156.866 76.8491 159.204L111.379 194.634C113.897 196.972 116.242 196.972 118.58 194.634L178.823 134.744H179.007ZM135.125 39.9631C133.146 37.9847 130.81 37.0854 127.932 37.0854C125.055 37.0854 122.71 37.9847 120.731 39.9631C118.753 41.9414 117.86 44.2799 117.86 47.1575C117.86 50.0351 118.753 52.3731 120.731 54.3514C122.71 56.3298 125.055 57.2291 127.932 57.2291C130.81 57.2291 133.146 56.3298 135.125 54.3514C137.103 52.3731 138.005 50.0351 138.005 47.1575C138.005 44.2799 137.103 41.9414 135.125 39.9631Z" fill="currentColor"/>
</svg>
