<svg width="256" height="256" viewBox="0 0 256 256" fill="none" xmlns="http://www.w3.org/2000/svg">
<path d="M51.5999 51.917C72.605 30.948 98.071 20.3704 127.999 20.3704V20C156.811 20 181.72 30.0205 202.54 50.0618L224.289 28.3496C229.281 23.3662 236 26.55 236 33.5461V96.6396C236 99.6624 231.953 103.69 228.936 103.69H165.734C160.107 103.69 156.526 95.9966 160.529 92.0005L182.834 69.7319C167.592 55.2578 150.119 48.0198 127.999 48.0198C105.878 48.0198 87.103 55.814 71.3025 71.5872C61.7595 81.114 55.1328 91.7239 51.3809 103.499C50.5457 106.12 48.1716 108 45.4207 108H28.8711C25.1382 108 22.3003 104.622 23.2024 100.999C27.7827 82.6045 37.2681 66.2241 51.5999 51.917Z" fill="currentColor"/>
<path d="M114.06 141.917L142.315 164.185C145.701 167.002 154.681 165.754 157.184 162.144V161.959L161.461 156.763C165.314 152.149 164.404 145.374 159.787 141.917L141.943 128V82.7219C141.943 75.7996 138.124 72.3291 131.532 72.3291H124.468C117.877 72.3291 114.06 75.801 114.06 82.7219V141.917Z" fill="currentColor"/>
<path d="M128.001 235.63C157.929 235.63 183.395 225.052 204.4 204.083C218.732 189.776 228.217 173.396 232.798 155.001C233.7 151.378 230.862 148 227.129 148H210.579C207.828 148 205.454 149.88 204.619 152.501C200.867 164.276 194.24 174.886 184.698 184.413C168.897 200.186 150.122 207.98 128.001 207.98C105.881 207.98 88.4082 200.742 73.1655 186.268L95.4709 164C99.4739 160.003 95.8926 152.31 90.2656 152.31H27.0637C24.0466 152.31 20 156.338 20 159.36V222.454C20 229.45 26.719 232.634 31.7109 227.65L53.4604 205.938C74.2798 225.979 99.1887 236 128.001 236V235.63Z" fill="currentColor"/>
</svg>
