<svg width="256" height="256" viewBox="0 0 256 256" fill="none" xmlns="http://www.w3.org/2000/svg">
<path d="M128 20C187.174 20 236 68.8257 236 128C236 187.174 187.174 236 128 236C68.7671 236 20 187.2 20 128C20 68.8004 68.7671 20 128 20ZM168.151 156.441C170.852 153.741 170.126 148.847 167.222 146.589L141.941 128.372V65.5422C141.941 61.6328 138.787 58.4785 134.878 58.4785H120.936C117.027 58.4785 113.873 61.6328 113.873 65.5422V133.577C113.873 139.153 116.103 143.614 120.379 147.146L149.563 168.523C152.155 171.115 157.01 170.643 159.043 167.594L168.151 156.441Z" fill="currentColor"/>
</svg>
