<svg width="256" height="256" viewBox="0 0 256 256" fill="none" xmlns="http://www.w3.org/2000/svg">
<path d="M203.6 106.927C203.6 110.953 202.88 114.836 201.584 118.719C211.52 120.732 219.728 125.621 226.208 133.531C232.688 141.44 236 150.5 236 160.853C236 172.789 231.824 182.999 223.328 191.34C214.832 199.681 204.752 203.995 192.8 203.995H68.528C54.992 203.995 43.616 199.249 34.112 189.902C24.608 180.555 20 169.05 20 155.533C20 145.035 23.024 135.544 29.072 127.203C35.12 118.863 42.896 113.11 52.4 109.659V106.927C52.4 92.1149 57.728 79.46 68.24 68.8185C78.752 58.177 91.568 53 106.4 53C116.336 53 125.408 55.4447 133.76 60.4778C142.112 65.3672 148.592 71.9822 153.344 80.0353C158.816 76.4402 164.72 74.5707 171.2 74.5707C180.128 74.5707 187.904 77.7344 194.096 84.0618C200.432 90.3892 203.6 98.0108 203.6 106.927ZM152.624 139.283C155.072 139.283 156.8 138.132 157.664 135.975C158.528 133.674 158.24 131.805 156.656 130.223L120.944 94.5595C118.496 92.1149 116.048 92.1149 113.456 94.5595L77.744 130.223C76.16 131.805 75.872 133.674 76.736 135.975C77.6 138.276 79.328 139.283 81.776 139.283H103.664V176.96C103.664 178.541 104.24 179.836 105.248 180.842C106.256 181.849 107.552 182.424 109.136 182.424H125.264C126.848 182.424 128.144 181.849 129.152 180.842C130.16 179.836 130.736 178.541 130.736 176.96V139.283H152.624Z" fill="currentColor"/>
</svg>
