<svg width="256" height="256" viewBox="0 0 256 256" fill="none" xmlns="http://www.w3.org/2000/svg">
<path d="M192.331 95C204.331 95 214.666 99.3332 223.166 107.833C231.666 116.333 236 126.667 236 138.667C236 150.667 231.666 161 223.166 169.5C214.666 178 204.331 182.333 192.331 182.333H186C186 192.833 182.331 201.666 174.997 208.833C167.664 216.166 158.833 219.833 148.5 219.833H73.5C63 219.833 54.1652 216.166 46.9985 208.833C39.8319 201.5 36 192.667 36 182.333V107.333C36 104 37.1662 101 39.6662 98.4999C42.1662 95.9999 45 94.8332 48.5 94.8332H192.165L192.331 95ZM91.9977 82.5C88.3311 82.5 86.333 80.6669 85.6663 77.0002C84.6663 70.5002 81.8327 64.8336 76.9993 59.8336C67.8327 50.6669 62.5 39.8336 61 27.0002C60.6667 25.1669 61.3307 23.5001 62.4974 22.1667C63.8307 20.6667 65.3312 20 67.1645 20H73.8337C77.5003 20 79.4984 21.8331 80.165 25.4998C81.165 33.4998 84.6668 40.5001 90.3335 46.1668C98.3335 54.1668 103.165 63.9998 104.831 75.4998C105.165 77.3331 104.501 78.9999 103.334 80.3333C102.001 81.8333 100.5 82.5 98.6668 82.5H91.9977ZM135.666 82.5C132 82.5 129.998 80.6669 129.331 77.0002C128.331 70.5002 125.497 64.8336 120.664 59.8336C111.497 50.6669 106.165 39.8336 104.665 27.0002C104.331 25.1669 104.999 23.5001 106.166 22.1667C107.499 20.6667 109 20 110.833 20H117.498C121.165 20 123.167 21.8331 123.834 25.4998C124.834 33.4998 128.331 40.5001 133.998 46.1668C141.998 54.1668 146.833 63.9998 148.5 75.4998C148.833 77.3331 148.165 78.9999 146.999 80.3333C145.665 81.8333 144.165 82.5 142.331 82.5H135.666ZM192.331 157.5C197.498 157.5 201.999 155.667 205.666 152C209.332 148.334 211.167 144 211.167 138.667C211.167 133.333 209.332 129 205.666 125.333C201.999 121.667 197.665 119.833 192.331 119.833H186V157.333H192.331V157.5Z" fill="currentColor"/>
</svg>
