<svg width="256" height="256" viewBox="0 0 256 256" fill="none" xmlns="http://www.w3.org/2000/svg">
<path d="M192.97 106.377L189.932 111.439C188.92 113.126 186.895 113.801 184.87 113.126C181.158 111.776 177.445 109.414 174.07 107.051C172.72 105.702 172.045 103.339 173.058 101.652L176.095 96.9268C173.733 94.2268 171.708 90.8519 170.695 87.477H164.958C162.933 87.477 161.246 86.127 160.908 84.1021C160.233 80.0522 160.233 75.6648 160.908 71.6149C161.246 69.5899 162.933 67.9025 164.958 67.9025H170.695C171.708 64.5276 173.733 61.4901 176.095 58.7902L173.058 54.0653C172.045 52.0404 172.72 50.0154 174.07 48.6655C177.445 45.9655 181.158 43.9406 184.87 42.2531C186.895 41.5781 188.92 42.2531 189.932 44.2781L192.97 49.003C196.345 48.328 200.057 48.328 203.432 49.003L206.469 44.2781C207.482 42.2531 209.507 41.5781 211.532 42.2531C215.244 43.9406 218.957 45.9655 222.332 48.6655C223.682 50.0154 224.357 52.0404 223.344 54.0653L220.307 58.7902C222.669 61.4901 224.694 64.5276 225.707 67.9025H231.444C233.469 67.9025 235.156 69.5899 235.494 71.6149C236.169 75.6648 236.169 79.7147 235.494 84.1021C235.156 86.127 233.469 87.477 231.444 87.477H225.707C224.694 90.8519 222.669 94.2268 220.307 96.9268L223.344 101.652C224.357 103.339 223.682 105.702 222.332 107.051C218.957 109.414 215.244 111.776 211.532 113.126C209.507 113.801 207.482 113.126 206.469 111.439L203.432 106.377C200.057 107.051 196.345 107.051 192.97 106.377ZM189.257 86.802C202.42 96.5893 217.269 81.7396 207.144 68.915C193.982 58.7902 179.47 73.6398 189.257 86.802ZM150.446 138.776L161.921 144.176C165.296 146.201 166.645 150.25 165.296 153.963C162.258 162.4 156.521 169.825 150.783 176.237C148.421 179.275 144.034 179.95 140.659 178.262L130.871 172.525C125.472 176.912 119.059 180.625 112.309 182.987V194.462C112.309 198.512 109.609 201.887 105.56 202.562C97.4597 203.912 88.6849 203.912 80.2476 202.562C76.1977 201.887 73.4978 198.512 73.4978 194.462V182.987C66.4105 180.625 60.3356 176.912 54.9358 172.525L45.1485 177.925C41.7736 179.95 37.3862 179.275 34.6863 176.237C29.2864 169.825 23.5491 162.4 20.5116 153.963C19.1617 150.588 20.5116 146.201 24.224 144.176L35.3613 138.776C34.0113 131.688 34.0113 124.264 35.3613 117.176L24.224 111.439C20.5116 109.414 19.1617 105.364 20.5116 101.652C23.5491 93.5518 29.2864 86.127 34.6863 79.3772C37.3862 76.6773 41.4361 75.6648 45.1485 77.6897L54.9358 83.4271C60.3356 78.7022 66.4105 74.9898 73.4978 72.6274V61.4901C73.4978 57.4402 76.1977 54.0653 79.9102 53.3903C88.3474 52.0404 97.1222 52.0404 105.56 53.3903C109.609 54.0653 112.309 57.4402 112.309 61.4901V72.6274C119.059 74.9898 125.472 78.7022 130.871 83.4271L140.659 77.6897C144.034 75.6648 148.421 76.3398 150.783 79.3772C156.521 86.127 162.258 93.5518 165.296 101.652C166.645 105.364 165.296 109.414 161.921 111.439L150.446 117.176C151.796 124.264 151.796 131.688 150.446 138.776ZM110.622 145.863C130.534 119.876 101.172 90.1769 75.1853 110.089C54.9358 136.076 84.635 165.775 110.622 145.863ZM192.97 207.286L189.932 212.349C188.92 214.036 186.895 214.711 184.87 214.036C181.158 212.686 177.445 210.324 174.07 207.624C172.72 206.612 172.045 204.249 173.058 202.562L176.095 197.499C173.733 194.799 171.708 191.762 170.695 188.387H164.958C162.933 188.387 161.246 187.037 160.908 185.012C160.233 180.962 160.233 176.575 160.908 172.525C161.246 170.5 162.933 168.812 164.958 168.812H170.695C171.708 165.438 173.733 162.4 176.095 159.7L173.058 154.975C172.045 152.95 172.72 150.925 174.07 149.575C177.445 146.876 181.158 144.851 184.87 143.163C186.895 142.488 188.92 143.163 189.932 145.188L192.97 149.913C196.345 149.238 200.057 149.238 203.432 149.913L206.469 145.188C207.482 143.163 209.507 142.488 211.532 143.163C215.244 144.851 218.957 146.876 222.332 149.575C223.682 150.925 224.357 152.95 223.344 154.975L220.307 159.7C222.669 162.4 224.694 165.438 225.707 168.812H231.444C233.469 168.812 235.156 170.5 235.494 172.525C236.169 176.575 236.169 180.625 235.494 185.012C235.156 187.037 233.469 188.387 231.444 188.387H225.707C224.694 191.762 222.669 194.799 220.307 197.499L223.344 202.562C224.357 204.249 223.682 206.612 222.332 207.624C218.957 210.324 215.244 212.686 211.532 214.036C209.507 214.711 207.482 214.036 206.469 212.349L203.432 207.286C200.057 207.961 196.345 207.961 192.97 207.286ZM189.257 187.374C202.42 197.499 217.269 182.65 207.144 169.825C193.982 159.7 179.47 174.55 189.257 187.374Z" fill="currentColor"/>
</svg>
