<svg width="256" height="256" viewBox="0 0 256 256" fill="none" xmlns="http://www.w3.org/2000/svg">
<path d="M93 109C93 116.732 86.732 123 79 123C71.268 123 65 116.732 65 109C65 101.268 71.268 95 79 95C86.732 95 93 101.268 93 109Z" fill="currentColor"/>
<path d="M142 109C142 116.732 135.732 123 128 123C120.268 123 114 116.732 114 109C114 101.268 120.268 95 128 95C135.732 95 142 101.268 142 109Z" fill="currentColor"/>
<path d="M177 123C184.732 123 191 116.732 191 109C191 101.268 184.732 95 177 95C169.268 95 163 101.268 163 109C163 116.732 169.268 123 177 123Z" fill="currentColor"/>
<path fill-rule="evenodd" clip-rule="evenodd" d="M126.391 189.758L190.167 189.852C219.519 189.852 236 173.57 236 145.779V73.0728C236 45.2816 219.519 29 190.167 29H65.8329C36.5779 29 20 45.2816 20 73.0728V145.779C20 173.663 37.0654 189.758 65.1503 189.758H69.051V216.894C69.051 223.07 72.4642 227 78.4126 227C82.5083 227 85.5313 225.129 90.4072 220.918L126.391 189.758ZM118.947 169.747L89.051 195.636V169.758H65.1503C49.4417 169.758 40 161.802 40 145.779V73.0728C40 56.5505 49.7653 49 65.8329 49H190.167C206.272 49 216 56.5157 216 73.0728V145.779C216 162.327 206.283 169.847 190.184 169.852H190.167L118.947 169.747Z" fill="currentColor"/>
</svg>
