<svg width="256" height="256" viewBox="0 0 256 256" fill="none" xmlns="http://www.w3.org/2000/svg">
<path d="M68.0273 193.946L128.754 132.463C131.611 129.57 131.611 124.546 128.754 121.653L68.0273 60.1699C65.1697 57.2767 60.2076 57.2767 57.35 60.1699L50.1429 67.196C47.2857 70.0888 47.2857 75.1134 50.1429 78.0061L98.324 127.058L50.1429 176.109C47.2857 179.002 47.2857 184.027 50.1429 186.919L57.35 193.946C60.2076 196.839 65.1697 196.839 68.0273 193.946Z" fill="currentColor"/>
<path d="M200.526 198C204.725 198 208 194.684 208 190.433V180.298C208 176.048 204.724 172.731 200.526 172.731H138.976C134.777 172.731 131.502 176.048 131.502 180.298V190.433C131.502 194.684 134.777 198 138.976 198H200.526Z" fill="currentColor"/>
</svg>
