<svg width="256" height="256" viewBox="0 0 256 256" fill="none" xmlns="http://www.w3.org/2000/svg">
<path d="M43.4124 71.1224C43.4124 69.7735 44.1562 69.0241 45.4981 69.0241H64.0013V85.8102H45.4981C44.1562 85.8102 43.4124 85.0608 43.4124 83.7119C43.4124 82.6481 43.4124 72.1862 43.4124 71.1224ZM43.4124 104.844C43.4124 103.495 44.1562 102.746 45.4981 102.746H64.0013V119.532H45.4981C44.1562 119.532 43.4124 118.783 43.4124 117.434C43.4124 116.37 43.4124 105.908 43.4124 104.844ZM43.4124 138.566C43.4124 137.217 44.1562 136.468 45.4981 136.468H64.0013V153.254H45.4981C44.1562 153.254 43.4124 152.505 43.4124 151.156C43.4124 150.092 43.4124 139.63 43.4124 138.566ZM43.4124 172.288C43.4124 170.939 44.1562 170.19 45.4981 170.19H64.0013V186.976H45.4981C44.1562 186.976 43.4124 186.226 43.4124 184.878C43.4124 183.814 43.4124 173.352 43.4124 172.288ZM184.324 54.9358V201.064C184.324 210.369 176.723 218 167.478 218H89.2015C79.9434 218 72.3516 210.359 72.3516 201.064V54.9358C72.3516 45.6289 79.9553 38 89.2015 38H167.478C176.734 38 184.324 45.643 184.324 54.9358ZM213.412 83.7119C213.412 85.0608 212.668 85.8102 211.327 85.8102H192.823V69.0241H211.327C212.668 69.0241 213.412 69.7735 213.412 71.1224C213.412 72.1862 213.412 82.6481 213.412 83.7119ZM213.412 117.434C213.412 118.783 212.668 119.532 211.327 119.532H192.823V102.746H211.327C212.668 102.746 213.412 103.495 213.412 104.844C213.412 105.908 213.412 116.37 213.412 117.434ZM213.412 151.156C213.412 152.505 212.668 153.254 211.327 153.254H192.823V136.468H211.327C212.668 136.468 213.412 137.217 213.412 138.566C213.412 139.63 213.412 150.092 213.412 151.156ZM213.412 184.878C213.412 186.226 212.668 186.976 211.327 186.976H192.823V170.19H211.327C212.668 170.19 213.412 170.939 213.412 172.288C213.412 173.352 213.412 183.814 213.412 184.878Z" fill="currentColor"/>
</svg>
