<svg width="256" height="256" viewBox="0 0 256 256" fill="none" xmlns="http://www.w3.org/2000/svg">
<path d="M218.06 66.5661V85.9792H20.1466V66.5661C20.1466 57.4625 27.6207 50 36.7127 50H201.641C210.744 50 218.207 57.4741 218.207 66.5661H218.06Z" fill="currentColor"/>
<path fill-rule="evenodd" clip-rule="evenodd" d="M20.1466 187.513V120.377H145.843C136.007 131.064 130 145.331 130 161C130 177.903 136.99 193.174 148.237 204.079H36.5661C27.4625 204.079 20 196.605 20 187.513H20.1466ZM48.487 157.707C45.7016 157.707 44.3822 159.026 44.3822 161.812V175.592C44.3822 178.378 45.7016 179.697 48.487 179.697H88.2308C91.0163 179.697 92.3357 178.378 92.3357 175.592V161.812C92.3357 159.026 91.0163 157.707 88.2308 157.707H48.487Z" fill="currentColor"/>
<path fill-rule="evenodd" clip-rule="evenodd" d="M190 115C215.204 115 236 135.796 236 161C236 186.204 215.204 207 190 207C164.796 207 144 186.204 144 161C144 135.796 164.796 115 190 115ZM189.991 169.621L175.82 183.778C174.212 185.384 171.645 185.227 169.994 183.784L167.139 180.932C165.699 179.287 165.542 176.713 167.145 175.112L181.316 160.954L167.171 146.823C165.562 145.215 165.734 142.649 167.177 141.002L170.038 138.144C171.682 136.707 174.259 136.535 175.864 138.138L190.009 152.27L204.18 138.222C205.788 136.616 208.355 136.773 210.006 138.216L212.861 141.068C214.301 142.712 214.458 145.287 212.855 146.888L198.684 161.046L212.774 175.178C214.383 176.785 214.211 179.351 212.768 180.998L209.907 183.856C208.263 185.293 205.686 185.465 204.081 183.862L189.936 169.73L189.991 169.621Z" fill="currentColor"/>
</svg>
