<svg width="256" height="256" viewBox="0 0 256 256" fill="none" xmlns="http://www.w3.org/2000/svg">
<path d="M64.364 51.636C60.8492 48.1213 55.1508 48.1213 51.636 51.636C48.1213 55.1508 48.1213 60.8492 51.636 64.364L115.272 128L51.636 191.636C48.1213 195.151 48.1213 200.849 51.636 204.364C55.1508 207.879 60.8492 207.879 64.364 204.364L128 140.728L191.636 204.364C195.151 207.879 200.849 207.879 204.364 204.364C207.879 200.849 207.879 195.151 204.364 191.636L140.728 128L204.364 64.364C207.879 60.8493 207.879 55.1508 204.364 51.636C200.849 48.1213 195.151 48.1213 191.636 51.636L128 115.272L64.364 51.636Z" fill="currentColor"/>
</svg>
