<svg width="256" height="256" viewBox="0 0 256 256" fill="none" xmlns="http://www.w3.org/2000/svg">
<path d="M128.469 152.186L88.025 192.63C83.4371 197.218 76.1105 196.769 71.3984 192.647L63.2503 184.499C59.1408 179.801 58.692 172.448 63.2674 167.873L103.711 127.428L63.3426 87.0596C58.7509 82.4679 59.2411 75.1387 63.3596 70.433L71.5244 62.2682C76.2158 58.1622 83.5718 57.672 88.151 62.2512L128.52 102.62L168.964 62.4897C173.552 57.9018 180.878 58.3506 185.59 62.4726L193.738 70.6207C197.848 75.3186 198.297 82.6719 193.721 87.2473L153.277 127.691L193.489 168.06C198.081 172.652 197.591 179.981 193.472 184.687L185.307 192.852C180.616 196.958 173.26 197.448 168.681 192.869L128.312 152.5L128.469 152.186Z" fill="currentColor"/>
</svg>
