<svg width="256" height="256" viewBox="0 0 256 256" fill="none" xmlns="http://www.w3.org/2000/svg">
<path d="M120.545 21.2361C125.489 19.588 130.256 19.588 135.2 21.2361L224.565 54.7489C228.594 56.3971 231.712 58.9606 234.276 62.44C236.656 65.9194 237.933 69.7652 237.933 73.9772V170.486C237.933 179.093 234.089 185.136 226.398 188.982L137.033 233.665C130.99 236.778 124.942 236.778 118.533 233.665L29.1683 188.982C21.6601 185.319 18 179.093 18 170.486V73.9772C18 69.7652 19.2765 65.7363 21.6572 62.44C24.0379 58.9606 27.3392 56.3971 31.368 54.7489L120.733 21.2361H120.545ZM127.877 47.79L45.4693 78.7387V79.6541L127.877 113.167L210.285 79.6541V78.7387L127.877 47.79ZM141.612 200.519L210.285 166.091V108.589L141.612 136.973V200.519Z" fill="currentColor"/>
</svg>
