<svg width="256" height="256" viewBox="0 0 256 256" fill="none" xmlns="http://www.w3.org/2000/svg">
<path d="M226.288 125.16C232.768 127.68 236 132.54 236 139.56V186C236 192.12 233.125 196.62 227.545 199.5L185.428 220.56C180.928 222.72 176.428 222.72 171.928 220.56L128 198.6L84.0811 220.56C79.5811 222.72 75.0811 222.72 70.5811 220.56L28.4639 199.5C22.8839 196.62 20 192.12 20 186V139.56C20 132.54 23.2407 127.68 29.7207 125.16L70.5811 110.04V64.5C70.5811 57.48 73.8218 52.6203 80.3018 50.1003L122.428 34.08C126.028 32.64 129.805 32.64 133.405 34.08L175.522 50.1003C182.002 52.6203 185.243 57.48 185.243 64.5V110.04L226.104 125.16H226.288ZM120.441 139.02L77.4277 122.64L34.4053 139.02L77.4277 156.66L120.441 139.02ZM120.441 186.18V154.5L84.626 170.88V204.18L120.441 186V186.18ZM84.9863 63.4201V63.7799L128 81.0603L171.022 63.7799V63.4201L128 47.4004L84.9863 63.4201ZM171.022 110.22V79.4403L135.207 94.5603V123.72L171.022 110.22ZM221.604 138.84L178.581 122.46L135.567 138.84L178.581 156.48L221.604 138.84ZM221.604 186V154.32L185.788 170.7V204L221.604 185.82V186Z" fill="currentColor"/>
</svg>
