<svg width="256" height="256" viewBox="0 0 256 256" fill="none" xmlns="http://www.w3.org/2000/svg">
<path d="M128.314 20C99.3156 20 74.4067 30.0378 53.7733 50.1135L53.9593 49.5559L38.3455 33.9415C31.8365 27.4325 20.5 32.1912 20.5 41.3768V99.7455C20.5 105.594 25.0613 110.155 30.9096 110.155H89.2782C98.4299 110.155 103.232 98.8282 96.713 92.3095L78.4965 74.093C92.438 61.4528 108.982 54.9464 128.128 54.5746C148.204 54.3887 165.492 61.4527 180.177 75.7659C194.862 90.0792 202.111 107.553 201.739 128.186C201.43 144.893 196.487 159.54 186.694 172.234C183.346 176.575 183.287 182.81 187.149 186.701L197.642 197.274C201.543 201.205 207.937 201.244 211.513 197.016C228.004 177.509 236.314 154.504 236.314 128C236.314 98.0723 225.719 72.6055 204.528 51.6004C183.337 30.5952 157.312 20 128.314 20Z" fill="currentColor"/>
<path fill-rule="evenodd" clip-rule="evenodd" d="M133.817 133C114.813 133 103.356 147.239 100.105 164.863C98.1848 176.219 98.1848 187.781 100.105 199.137C103.371 216.841 114.76 231 133.817 231C152.711 231 164.398 216.859 167.395 199.137C169.487 187.792 169.487 176.208 167.395 164.863C164.411 147.222 152.659 133 133.817 133ZM133.817 212.525C122.738 212.525 119.656 199.93 118.968 190.97C118.661 184.98 118.661 179.02 118.968 173.03C119.661 164.01 122.771 151.475 133.817 151.475C144.742 151.475 148.074 164.087 148.532 173.03C148.993 179.031 148.993 184.969 148.532 190.97C148.076 199.869 144.786 212.525 133.817 212.525Z" fill="currentColor"/>
<path d="M20 153.082H66.8218L28.0266 229.393H51.4375L89.2963 152.279V134.607H20V153.082Z" fill="currentColor"/>
</svg>
