<svg width="256" height="256" viewBox="0 0 256 256" fill="none" xmlns="http://www.w3.org/2000/svg">
<path d="M53.7733 50.1135C74.4067 30.0378 99.3156 20 128.314 20C157.312 20 183.337 30.5952 204.528 51.6004C225.719 72.6055 236.314 98.0723 236.314 128C236.314 154.504 228.004 177.509 211.513 197.016C207.937 201.244 201.543 201.205 197.642 197.274L187.149 186.701C183.287 182.81 183.346 176.575 186.694 172.234C196.487 159.54 201.43 144.893 201.739 128.186C202.111 107.553 194.862 90.0792 180.177 75.7659C165.492 61.4527 148.204 54.3887 128.128 54.5746C108.982 54.9464 92.438 61.4528 78.4965 74.093L96.713 92.3095C103.232 98.8282 98.4299 110.155 89.2782 110.155H30.9096C25.0613 110.155 20.5 105.594 20.5 99.7455V41.3768C20.5 32.1912 31.8365 27.4325 38.3455 33.9415L53.9593 49.5559L53.7733 50.1135Z" fill="currentColor"/>
<path d="M66.8218 153.082H20V134.607H89.2963V152.279L51.4375 229.393H28.0266L66.8218 153.082Z" fill="currentColor"/>
<path d="M100.105 164.863C103.356 147.239 114.813 133 133.817 133C152.659 133 164.411 147.222 167.395 164.863C169.487 176.208 169.487 187.792 167.395 199.137C164.398 216.859 152.711 231 133.817 231C114.76 231 103.371 216.841 100.105 199.137C98.1848 187.781 98.1848 176.219 100.105 164.863ZM118.968 190.97C119.656 199.93 122.738 212.525 133.817 212.525C144.786 212.525 148.076 199.869 148.532 190.97C148.993 184.969 148.993 179.031 148.532 173.03C148.074 164.087 144.742 151.475 133.817 151.475C122.771 151.475 119.661 164.01 118.968 173.03C118.661 179.02 118.661 184.98 118.968 190.97Z" fill="currentColor"/>
</svg>
