<svg width="256" height="256" viewBox="0 0 256 256" fill="none" xmlns="http://www.w3.org/2000/svg">
<path fill-rule="evenodd" clip-rule="evenodd" d="M115.04 224.989C116.66 227.336 118.239 229.624 119.781 231.856H119.421C121.402 234.559 124.284 236 127.887 236C131.49 236 134.372 234.739 136.354 231.856C137.896 229.624 139.475 227.336 141.095 224.99C146.664 216.923 152.715 208.159 159.414 198.529C163.609 192.585 167.212 187.447 170.22 183.155C173.411 178.603 175.934 175.004 177.789 172.407C181.275 167.527 185.265 161.467 189.925 154.39L190.399 153.671C195.263 146.285 198.326 140.88 199.947 137.818C200.226 137.191 200.518 136.544 200.821 135.873C202.085 133.073 203.539 129.852 204.992 125.928C206.794 121.245 208.054 117.101 208.414 113.498C208.954 110.075 209.135 105.932 209.135 101.068C209.135 78.5488 201.208 59.4529 185.534 43.5996C169.681 27.9266 150.586 20 128.068 20C105.549 20 86.2694 27.7464 70.5963 43.5996C54.9233 59.4529 47 78.5488 47 101.068C47 105.752 47.361 109.895 47.7213 113.498C48.2618 116.921 49.3416 121.064 51.1431 125.928C52.9446 130.793 54.5665 134.755 56.1878 137.818C57.8092 140.88 60.8723 146.285 65.7363 153.671C70.4202 161.057 74.743 167.363 78.346 172.407C81.949 177.451 88.0744 186.099 96.7216 198.529C103.42 208.158 109.471 216.923 115.04 224.989ZM116.355 138.631H112.178C111.022 138.631 110.043 138.988 109.243 139.88C108.443 140.771 108 141.752 108 142.822V152.809C108 153.968 108.355 154.949 109.243 155.752C110.132 156.554 111.022 157 112.178 157H143.822C144.978 157 145.954 156.643 146.754 155.752C147.554 154.86 148 153.879 148 152.809V142.822C148 141.663 147.643 140.682 146.754 139.88C145.865 139.077 144.889 138.631 143.822 138.631H139.645V94.3156C139.645 93.1564 139.288 92.1754 138.399 91.3729C137.51 90.5704 136.532 90.125 135.465 90.125H112.178C111.022 90.125 110.043 90.4813 109.243 91.3729C108.443 92.2646 108 93.2456 108 94.3156V104.302C108 105.461 108.355 106.442 109.243 107.245C110.132 108.047 111.022 108.493 112.178 108.493H116.355V138.631ZM128.089 50C123.911 50 120.356 51.4266 117.423 54.3691C114.489 57.3116 113.067 60.8778 113.067 65.0686C113.067 69.2595 114.489 72.8263 117.423 75.7688C120.356 78.7113 123.911 80.1378 128.089 80.1378C132.267 80.1378 135.822 78.7113 138.755 75.7688C141.689 72.8263 143.111 69.2595 143.111 65.0686C143.111 60.8778 141.689 57.3116 138.755 54.3691C135.822 51.4266 132.267 50 128.089 50Z" fill="currentColor"/>
</svg>
