<svg width="256" height="256" viewBox="0 0 256 256" fill="none" xmlns="http://www.w3.org/2000/svg">
<path d="M51.6006 51.6007C72.6058 30.5955 98.0723 20 128 20C157.928 20 183.394 30.5955 204.399 51.6007C225.405 72.6059 236 98.0723 236 128C236 157.928 225.405 183.394 204.399 204.399C183.394 225.405 157.928 236 128 236C98.0723 236 72.6058 225.405 51.6006 204.399C30.5955 183.394 20 157.928 20 128C20 98.0723 30.5955 72.6059 51.6006 51.6007ZM189.714 66.4716C172.798 49.556 152.165 41.0052 128 41.0052C103.835 41.0052 83.3871 49.556 66.2856 66.4716C49.184 83.3873 40.8192 104.021 40.8192 128.186C40.8192 152.351 49.3699 172.799 66.2856 189.9C83.2012 207.002 103.835 215.367 128 215.367C152.165 215.367 172.613 206.816 189.714 189.9C206.816 172.985 215.181 152.351 215.181 128.186C215.181 104.021 206.63 83.5732 189.714 66.4716ZM103.463 103.463C110.341 96.5852 118.52 93.2393 128 93.2393C137.48 93.2393 145.845 96.5852 152.537 103.463C159.415 110.341 162.761 118.52 162.761 128C162.761 137.48 159.415 145.845 152.537 152.537C145.659 159.229 137.48 162.761 128 162.761C118.52 162.761 110.155 159.415 103.463 152.537C96.585 145.659 93.239 137.48 93.239 128C93.239 118.52 96.585 110.155 103.463 103.463Z" fill="currentColor"/>
</svg>
