<svg width="256" height="256" viewBox="0 0 256 256" fill="none" xmlns="http://www.w3.org/2000/svg">
<path d="M139.811 45.6615L130.827 54.311V54.1448C128.998 55.9745 128.326 58.1369 128.326 60.7983C128.492 63.4597 129.493 65.6223 131.323 67.4521L178.066 112.364H88.1992C82.5389 101.454 71.1399 94 58 94C39.2223 94 24 109.222 24 128C24 146.778 39.2223 162 58 162C71.2067 162 82.6546 154.47 88.285 143.47H178.066L131.323 188.381C129.493 190.211 128.326 192.374 128.326 195.035C128.16 197.697 128.998 199.859 130.827 201.689L139.811 210.338C141.64 212.168 143.801 213 146.462 213C149.124 213 151.285 212.168 153.115 210.338L228.796 134.654C230.626 132.824 231.46 130.661 231.46 128C231.46 125.339 230.626 123.176 228.796 121.346L153.115 45.6615C151.285 43.8318 149.124 43 146.462 43C143.801 43 141.64 43.8318 139.811 45.6615Z" fill="currentColor"/>
</svg>
