<svg width="256" height="256" viewBox="0 0 256 256" fill="none" xmlns="http://www.w3.org/2000/svg">
<path d="M147 62C147 72.4934 138.493 81 128 81C117.507 81 109 72.4934 109 62C109 51.5066 117.507 43 128 43C138.493 43 147 51.5066 147 62Z" fill="currentColor"/>
<path d="M147 128C147 138.493 138.493 147 128 147C117.507 147 109 138.493 109 128C109 117.507 117.507 109 128 109C138.493 109 147 117.507 147 128Z" fill="currentColor"/>
<path d="M128 213C138.493 213 147 204.493 147 194C147 183.507 138.493 175 128 175C117.507 175 109 183.507 109 194C109 204.493 117.507 213 128 213Z" fill="currentColor"/>
</svg>
