<svg width="256" height="256" viewBox="0 0 256 256" fill="none" xmlns="http://www.w3.org/2000/svg">
<path d="M104 69.1429C104 55.7959 114.807 45 128.143 45C141.493 45 152.286 55.7925 152.286 69.1429C152.286 82.4933 141.493 93.2857 128.143 93.2857C114.841 93.2857 104 82.5221 104 69.1429ZM128.143 103.857C141.493 103.857 152.286 114.65 152.286 128C152.286 141.35 141.493 152.143 128.143 152.143C114.792 152.143 104 141.35 104 128C104 114.65 114.792 103.857 128.143 103.857ZM104 186.857C104 173.507 114.792 162.714 128.143 162.714C141.493 162.714 152.286 173.507 152.286 186.857C152.286 200.208 141.493 211 128.143 211C114.792 211 104 200.208 104 186.857Z" fill="currentColor"/>
</svg>
