<svg width="256" height="256" viewBox="0 0 256 256" fill="none" xmlns="http://www.w3.org/2000/svg">
<path d="M205.44 158.24C194.459 147.08 181.139 141.5 165.66 141.5H158.279C148.379 146.18 138.119 148.34 127.5 148.34C116.88 148.34 106.62 146 96.7199 141.5H89.5195C74.2195 141.5 60.9001 147.26 49.7409 158.24C38.5796 169.22 33 182.54 33 198.02V215.66C33 221.42 34.9805 226.1 38.9393 230.06C42.6463 233.765 47.1383 235.737 52.2715 235.975C60.1489 201.234 91.2186 175.298 128.342 175.298C165.427 175.298 196.467 201.178 204.387 235.864C209.004 235.354 212.88 233.42 216.24 230.06C220.201 226.1 222.179 221.24 222.179 215.66V198.02C222.179 182.72 216.6 169.4 205.44 158.24Z" fill="currentColor"/>
<path d="M181.969 236C174.669 213.351 153.419 196.964 128.342 196.964C103.264 196.964 82.0145 213.351 74.7147 236H181.969Z" fill="currentColor"/>
<path d="M127.679 128C142.62 128 155.22 122.78 165.839 112.16C176.459 101.72 181.679 88.94 181.679 74C181.679 59.06 176.279 46.4601 165.839 35.84C155.4 25.2202 142.62 20 127.679 20C112.739 20 100.139 25.4001 89.5195 35.84C78.8999 46.2801 73.68 59.06 73.68 74C73.68 88.94 79.0797 101.54 89.5195 112.16C99.9593 122.78 112.739 128 127.679 128Z" fill="currentColor"/>
</svg>
