<svg width="256" height="256" viewBox="0 0 256 256" fill="none" xmlns="http://www.w3.org/2000/svg">
<path d="M140.568 29.504C160.415 96.2246 202.643 113.96 202.643 160.834C202.643 202.64 169.283 236 128.322 236C86.938 236 54 202.64 54 160.834C54 113.96 96.2282 95.8023 115.653 29.504C119.454 16.4132 137.19 17.2578 140.568 29.504ZM128.322 208.974C131.7 208.974 135.078 206.018 135.078 202.217C135.078 198.839 131.7 195.461 128.322 195.461C109.319 195.461 94.5391 180.681 94.5391 161.678C94.5391 158.3 91.1608 154.922 87.7826 154.922C83.982 154.922 81.0261 158.3 81.0261 161.678C81.0261 187.86 102.14 208.974 128.322 208.974Z" fill="currentColor"/>
</svg>
