<svg width="256" height="256" viewBox="0 0 256 256" fill="none" xmlns="http://www.w3.org/2000/svg">
<path d="M128 20C187.226 20 236 68.7742 236 128C236 187.661 187.226 236 128 236C68.3388 236 20.0001 187.661 20.0001 128C20.0001 68.7742 68.3388 20 128 20ZM163.71 175.903C167.194 172.419 169.807 167.194 169.807 161.532C169.807 158.048 168.065 154.565 165.887 152.387L159.79 146.29C157.178 143.677 153.694 141.935 149.774 141.935H121.032C116.678 140.194 111.452 128 107.097 128C102.307 128 97.9517 127.129 93.5969 124.952L88.8066 122.774C87.0646 121.903 86.1937 120.161 86.1937 117.984C86.1937 115.806 87.5001 113.629 89.6775 113.194L103.178 108.403C103.613 108.403 104.484 108.403 105.355 108.403C107.097 108.403 108.839 108.839 109.71 109.71L114.065 113.629C114.5 114.065 115.371 114.065 116.242 114.065H118.855C121.468 114.065 122.774 111.452 121.903 109.274L114.936 95.7742C114.936 95.3387 114.5 94.4677 114.5 94.0323C114.5 93.1613 114.936 92.2903 115.807 91.4193L120.161 87.5C120.597 86.629 121.468 86.1936 122.339 86.1936H126.258C127.129 86.1936 128 86.1936 128.871 85.3226L132.355 81.8387C133.661 80.5323 133.661 78.3548 132.355 77.0484L130.178 74.871C128.871 73.5645 128.871 71.3871 130.178 70.0806L136.71 63.5484C139.323 60.9355 139.323 56.1452 136.71 53.5323L124.516 41.3387C121.032 41.3387 117.113 41.7742 114.065 42.2097V47.4355C114.065 52.6613 108.403 55.7097 103.613 53.5323L93.1614 48.3064C73.1292 57.0161 57.4517 72.6935 48.3066 92.7258C52.6614 99.2581 59.1937 108.839 63.5485 114.935C65.7259 118.419 68.3388 121.032 71.3872 124.081H71.8227C75.7421 128 80.5324 131.048 85.3227 133.661C91.4195 136.71 100.565 141.5 106.661 144.984C111.016 147.597 114.065 152.387 114.065 157.177V171.113C114.065 175.032 115.371 178.516 117.984 181.129C124.516 187.661 128.436 197.677 128 203.339V215.097C134.097 215.097 140.194 214.661 146.29 213.355L154.129 192.887C155 190.274 155.436 188.097 155.871 185.484C156.307 183.742 157.178 182 158.484 180.694C160.226 179.387 161.968 177.645 163.71 175.903ZM201.597 136.274L214.226 139.323C214.661 135.839 215.097 131.919 215.097 128C215.097 114.065 211.613 101 205.516 89.2419L199.855 92.2903C198.113 93.1613 196.807 94.0323 195.936 95.7742L187.226 108.403C186.355 110.145 185.484 112.323 185.484 114.5C185.484 116.242 186.355 118.419 187.226 120.161L195.065 131.919C196.807 134.097 198.984 135.403 201.597 136.274Z" fill="currentColor"/>
</svg>
