<svg width="256" height="256" viewBox="0 0 256 256" fill="none" xmlns="http://www.w3.org/2000/svg">
<path d="M172.398 55.7571C170.77 54.124 169.142 54.124 167.513 55.7571L167.365 55.6087L91.4214 131.771L88.0165 163.839C87.7369 168.325 91.0403 172.145 95.7145 171.559L127.691 168.145L203.635 91.9824C205.263 90.3493 205.263 88.7162 203.635 87.0831L172.398 55.7571Z" fill="currentColor"/>
<path d="M228.505 67.3373C233.542 61.6912 233.542 53.3863 228.505 47.7401L211.481 31.1121C206.244 25.8604 197.477 25.403 192.384 31.1121L179.948 43.2861C178.32 44.9192 178.32 46.5524 179.948 48.1855L211.185 79.5114C212.813 81.1445 214.441 81.1445 216.07 79.5114L228.505 67.3373Z" fill="currentColor"/>
<path d="M219.346 146.818C219.346 143.142 216.383 140.176 212.715 140.176V140.351H199.631C195.96 140.351 193.004 143.316 193.004 146.993V192.784H62.1673V61.7028H121.129C124.797 61.7028 127.76 58.7371 127.76 55.0613V41.9532C127.76 38.2773 124.797 35.3116 121.129 35.3116H55.7107C44.8889 35.3116 36 44.2065 36 55.0613V199.25C36 210.091 44.8752 219 55.7107 219H199.631C210.45 219 219.346 210.104 219.346 199.25V146.818Z" fill="currentColor"/>
</svg>
