<svg width="256" height="256" viewBox="0 0 256 256" fill="none" xmlns="http://www.w3.org/2000/svg">
<path d="M169 141.86C183.94 142.4 196.72 148.16 207.16 159.14C217.6 170.12 223 183.08 223 198.02V215.66C223 221.24 221.02 226.1 217.06 230.06C213.1 234.02 208.42 236 202.66 236H54.34C48.76 236 43.9 234.02 39.94 230.06C35.98 226.1 34 221.42 34 215.66V198.02C34 183.08 39.22 170.12 49.84 159.14C60.46 148.16 73.06 142.4 88 141.86L108.16 222.5L121.66 165.08L108.16 141.5H148.66L135.16 165.08L148.66 222.5L168.82 141.86H169ZM166.66 112.16C156.04 122.78 143.44 128 128.5 128C113.56 128 100.78 122.78 90.34 112.16C79.9 101.54 74.5 88.94 74.5 74C74.5 59.06 79.72 46.28 90.34 35.84C100.96 25.4 113.56 20 128.5 20C143.44 20 156.22 25.22 166.66 35.84C177.1 46.46 182.5 59.06 182.5 74C182.5 88.94 177.28 101.72 166.66 112.16Z" fill="currentColor"/>
</svg>
