<svg width="256" height="256" viewBox="0 0 256 256" fill="none" xmlns="http://www.w3.org/2000/svg">
<rect x="20" y="47" width="216" height="162" rx="20" fill="#F4FD53"/>
<path d="M215.677 47C221.252 47 226.108 48.9778 230.065 52.9334C234.022 56.889 236 61.5638 236 67.3174V188.683C236 194.256 234.022 199.111 230.065 203.067C226.108 207.022 221.432 209 215.677 209H40.3231C34.7478 209 29.8918 207.022 25.9351 203.067C21.9784 199.111 20 194.436 20 188.683V67.3174C20 61.7436 21.9784 56.889 25.9351 52.9334C29.8918 48.9778 34.5679 47 40.3231 47H215.677ZM215.677 67.1376H40.3231V84.3984C50.2149 92.3097 69.0991 107.233 97.1557 128.989C97.1557 129.349 99.1341 130.967 103.091 134.203C107.048 137.44 109.925 139.597 111.903 141.036C113.882 142.294 116.4 143.733 119.637 145.531C122.874 147.149 125.572 148.048 127.91 148.048C130.248 148.048 132.946 147.149 136.183 145.531C139.42 143.912 141.938 142.294 143.917 141.036C145.895 139.777 148.773 137.44 152.729 134.203C156.686 130.967 158.664 129.169 158.664 128.989C186.721 107.053 205.785 92.1299 215.497 84.3984V67.1376H215.677ZM40.3231 188.503H215.677V110.11C205.785 118.021 191.038 129.708 171.434 145.171C170.894 145.531 168.916 147.149 165.319 150.205C161.722 153.262 159.024 155.599 157.046 157.038C155.067 158.476 152.19 160.274 148.593 162.252C144.996 164.41 141.399 165.848 137.982 166.927C134.565 167.826 131.147 168.365 127.91 168.365C124.673 168.365 121.076 167.826 117.659 166.927C114.062 166.028 110.645 164.41 107.048 162.072C103.451 159.915 100.753 157.937 98.7744 156.678C96.7961 155.24 94.0983 153.082 90.5013 150.205C86.9043 147.329 84.9259 145.71 84.3864 145.351C64.7827 129.888 50.035 118.201 40.1433 110.29V188.683L40.3231 188.503Z" fill="currentColor"/>
</svg>
