<svg width="256" height="256" viewBox="0 0 256 256" fill="none" xmlns="http://www.w3.org/2000/svg">
<path d="M128 155.105C125.664 155.105 122.968 154.385 119.734 152.766C116.499 151.147 113.983 149.888 112.007 148.629C110.03 147.37 107.155 145.212 103.381 142.334C99.6073 139.456 97.6306 137.837 97.2712 137.837C62.9484 112.834 38.5091 94.6668 23.9534 83.5145C21.4376 81.5359 20.1797 78.8378 20.1797 75.4202V67.3258C20.1797 61.7497 22.1564 56.8931 26.1098 52.9359C30.0632 48.9786 34.7354 47 40.4859 47H215.694C221.265 47 226.116 48.9786 230.07 52.9359C234.023 56.8931 236 61.5698 236 67.3258V75.4202C236 78.8378 234.742 81.5359 232.226 83.5145C218.389 94.1271 193.95 112.294 158.908 137.837C158.549 137.837 156.572 139.276 152.799 142.334C149.025 145.391 146.15 147.37 144.173 148.629C142.196 149.888 139.681 151.327 136.446 152.766C133.211 154.385 130.516 155.105 128.18 155.105H128ZM166.815 148.269C199.88 124.346 221.624 108.517 231.687 100.603C232.586 99.7032 233.484 99.7032 234.383 100.243C235.281 100.782 235.82 101.682 235.82 102.761V188.741C235.82 194.317 233.844 199.174 229.89 203.131C225.937 207.088 221.265 209.067 215.514 209.067H40.3062C34.7354 209.067 29.8835 207.088 25.9301 203.131C21.9767 199.174 20 194.497 20 188.741V102.941C20 101.862 20.5391 100.962 21.4376 100.603C22.3361 100.243 23.4143 100.243 24.1331 100.782C33.4775 107.798 55.0416 123.627 89.005 148.449C89.5441 148.989 91.5208 150.608 94.7554 153.126C97.99 155.644 100.506 157.623 102.483 158.882C104.459 160.141 106.975 161.76 110.03 163.559C113.085 165.357 116.14 166.796 119.015 167.516C121.89 168.235 124.765 168.775 127.641 168.775C130.516 168.775 133.391 168.415 136.266 167.516C139.141 166.617 142.376 165.357 145.611 163.559C148.845 161.76 151.361 160.141 153.338 158.702C155.314 157.263 157.83 155.464 160.885 152.946C163.94 150.608 165.737 149.169 166.276 148.449L166.815 148.269Z" fill="currentColor"/>
</svg>
