<svg width="256" height="256" viewBox="0 0 256 256" fill="none" xmlns="http://www.w3.org/2000/svg">
<path d="M224.865 135.279L167.841 192.31H225.727C228.981 192.31 230.518 193.852 230.518 197.106V213.205C230.518 216.459 228.981 218 225.727 218H82.894C77.5848 218 72.9556 216.116 69.1878 212.348L30.6531 173.813C26.8853 170.045 25 165.593 25 160.112C25 154.632 26.8853 150.179 30.6531 146.411L133.412 43.652C137.18 39.8842 141.638 38 147.119 38C152.599 38 157.049 39.8842 160.816 43.652L225.041 107.877C228.809 111.644 230.694 116.097 230.694 121.578C230.694 127.058 228.809 131.511 225.041 135.279H224.865ZM103.274 109.932L53.4327 160.112L85.6286 192.31H131.355L158.592 165.421L103.274 110.103V109.932Z" fill="currentColor"/>
</svg>
