<svg width="256" height="256" viewBox="0 0 256 256" fill="none" xmlns="http://www.w3.org/2000/svg">
<path d="M33.3339 125.314C29.7148 125.314 28 123.599 28 119.98V38.6678C28 32.6737 32.6733 28 38.6678 28H119.98C123.599 28 125.314 29.7148 125.314 33.3339V51.2375C125.314 54.8566 123.599 56.5714 119.98 56.5714H56.5714V119.98C56.5714 123.599 54.8566 125.314 51.2375 125.314H33.3339ZM222.666 130.686C226.285 130.686 228 132.401 228 136.02V217.335C228 223.328 223.325 228 217.332 228H136.02C132.401 228 130.686 226.285 130.686 222.666V204.762C130.686 201.143 132.401 199.429 136.02 199.429H199.429V136.02C199.429 132.401 201.143 130.686 204.762 130.686H222.666Z" fill="currentColor"/>
</svg>
