<svg width="256" height="256" viewBox="0 0 256 256" fill="none" xmlns="http://www.w3.org/2000/svg">
<path d="M212.714 138.177C216.383 138.177 219.346 141.142 219.346 144.818V197.25C219.346 208.104 210.45 217 199.631 217H55.7107C44.8752 217 36 208.091 36 197.25V53.0614C36 42.2066 44.8889 33.3118 55.7107 33.3118H121.129C124.797 33.3118 127.76 36.2774 127.76 39.9533V53.0614C127.76 56.7372 124.797 59.7029 121.129 59.7029H62.1673V190.784H193.004V144.993C193.004 141.316 195.96 138.351 199.631 138.351H212.714V138.177ZM219.23 26.0001C224.716 26.0001 229 30.292 229 35.7885V88.2209C229 96.8563 218.36 101.328 212.254 95.2102L197.598 80.5297L119.254 161.246C115.518 164.988 109.032 164.988 105.297 161.246L95.876 151.809C92.1429 148.069 92.1429 141.567 95.876 137.827L174.57 57.4604L159.919 42.7778C153.801 36.648 158.305 26.0001 166.895 26.0001H219.23Z" fill="currentColor"/>
</svg>
