<svg width="256" height="256" viewBox="0 0 256 256" fill="none" xmlns="http://www.w3.org/2000/svg">
<path d="M51.6007 51.6007C72.6059 30.5955 98.0723 20 128 20C157.928 20 183.394 30.5955 204.399 51.6007C225.404 72.6059 236 98.0723 236 128C236 157.928 225.404 183.394 204.399 204.399C183.394 225.404 157.928 236 128 236C98.0723 236 72.6059 225.404 51.6007 204.399C30.4096 183.394 20 157.928 20 128C20 98.0723 30.4096 72.6059 51.6007 51.6007ZM66.4716 189.714C83.3873 206.63 104.021 215.181 128.186 215.181C152.351 215.181 172.799 206.63 189.9 189.714C207.002 172.799 215.367 152.165 215.367 128C215.367 103.835 206.816 83.3873 189.9 66.2857C172.984 49.1842 152.351 40.8193 128.186 40.8193C104.021 40.8193 83.5732 49.3701 66.4716 66.2857C49.3701 83.2014 41.0052 103.835 41.0052 128C41.0052 152.165 49.5559 172.613 66.4716 189.714ZM103.091 117.033C100.303 119.821 97.1429 121.122 93.2393 121.122C89.3356 121.122 86.1756 119.821 83.3873 117.033C80.599 114.244 79.2978 111.084 79.2978 107.181C79.2978 103.277 80.599 100.117 83.3873 97.3287C86.1756 94.5404 89.3356 93.2392 93.2393 93.2392C97.1429 93.2392 100.303 94.5404 103.091 97.3287C105.88 100.117 107.181 103.277 107.181 107.181C107.181 111.084 105.88 114.244 103.091 117.033ZM82.8296 170.382C94.7263 156.069 109.783 149.005 128.186 149.005C146.589 149.005 161.645 156.069 173.542 170.382C175.215 172.427 175.959 174.843 175.773 177.818C175.401 180.792 174.286 183.022 172.241 184.881C169.824 186.926 167.222 187.855 164.434 187.484C161.46 187.112 159.229 185.811 157.37 183.58C149.749 174.657 140.083 170.01 128.186 170.01C116.289 170.01 106.623 174.472 99.0017 183.58C97.3287 185.997 94.9122 187.298 91.938 187.484C88.9639 187.855 86.5473 186.926 84.3167 185.067C82.0861 183.208 80.9707 180.792 80.599 177.818C80.2272 174.843 80.9707 172.427 82.8296 170.382ZM153.281 97.3287C156.069 94.5404 159.229 93.2392 163.133 93.2392C167.036 93.2392 170.196 94.5404 172.984 97.3287C175.773 100.117 177.074 103.277 177.074 107.181C177.074 111.084 175.773 114.244 172.984 117.033C170.196 119.821 167.036 121.122 163.133 121.122C159.229 121.122 156.069 119.821 153.281 117.033C150.492 114.244 149.191 111.084 149.191 107.181C149.191 103.277 150.492 100.117 153.281 97.3287Z" fill="currentColor"/>
</svg>
