<svg width="256" height="256" viewBox="0 0 256 256" fill="none" xmlns="http://www.w3.org/2000/svg">
<path d="M196.579 66.9184C200.193 70.5454 202 74.8318 202 80.1074V208.371C202 213.481 200.193 217.933 196.579 221.56C192.966 225.187 188.695 227 183.438 227H72.5616C67.4695 227 63.0344 225.187 59.4206 221.56C55.8069 217.933 54 213.646 54 208.371V47.6295C54 42.5187 55.8069 38.0674 59.4206 34.4405C63.0344 30.8135 67.3052 29 72.5616 29H151.079C156.171 29 160.606 30.8135 164.22 34.4405L196.579 66.9184ZM72.5616 208.371H183.438V97.0883H143.359C140.73 97.0883 138.595 96.2639 136.788 94.4505C134.981 92.637 134.16 90.4938 134.16 87.856V47.6295H72.5616V208.371ZM154.2 115.718C156.007 115.718 157.321 116.542 158.306 118.026C159.128 119.51 159.128 121.158 158.142 122.642C149.108 138.304 143.194 148.361 140.402 152.812L158.142 182.982C159.128 184.465 159.292 186.114 158.306 187.598C157.485 189.082 156.007 189.906 154.2 189.906H143.03C141.223 189.906 139.909 189.082 139.252 187.598C138.759 186.774 134.981 179.355 128.082 165.177C124.961 172.101 121.347 179.684 116.912 187.598C116.091 189.082 114.777 189.906 113.134 189.906H101.964C100.158 189.906 98.8435 189.082 97.8579 187.598C97.0366 186.114 97.0366 184.465 98.0222 182.982L115.762 152.812L98.0222 122.642C97.0366 121.158 96.8724 119.51 97.8579 118.026C98.6793 116.542 100.158 115.718 101.964 115.718H113.134C114.941 115.718 116.42 116.542 117.405 118.026C119.705 122.642 123.319 130.061 128.246 140.447C130.546 134.842 134.324 127.258 139.416 118.026C140.238 116.542 141.387 115.718 143.194 115.718H154.364H154.2ZM181.96 78.6236L152.721 49.2781V78.6236H181.96Z" fill="currentColor"/>
</svg>
