<svg width="256" height="256" viewBox="0 0 256 256" fill="none" xmlns="http://www.w3.org/2000/svg">
<path fill-rule="evenodd" clip-rule="evenodd" d="M87.0001 208.371V165.517L88.4943 164.244L105.562 149.704V208.371H216.438V97.0883H176.359C171.19 97.0883 167.16 93.0413 167.16 87.8559V47.6295H145.164C141.994 40.1304 136.803 33.6932 130.275 29H184.079C189.171 29 193.606 30.8135 197.22 34.4405L229.579 66.9184C233.193 70.5454 235 74.8318 235 80.1074V208.371C235 218.606 226.628 227 216.438 227H105.562C95.3594 227 87.0001 218.593 87.0001 208.371ZM214.96 78.4588L185.722 49.1133V78.4588H214.96ZM151.656 89.8809L88.6351 145.654C71.6214 160.712 45.5689 159.153 30.4275 142.154C15.2861 125.154 16.8181 99.1834 33.8317 84.1263L86.6418 37.3893C98.797 26.632 117.407 27.7512 128.219 39.8899C139.031 52.0285 137.942 70.5807 125.787 81.338L86.1795 116.391C78.8917 122.84 67.7158 122.168 61.2334 114.89C54.7509 107.612 55.4045 96.4712 62.6923 90.0215L94.9073 61.5112C96.5596 60.0489 99.0884 60.1988 100.556 61.8459L103.072 64.6709C104.539 66.318 104.389 68.8387 102.736 70.301L70.5214 98.8112C68.1009 100.953 67.8821 104.684 70.0351 107.101C72.1881 109.518 75.93 109.743 78.3505 107.601L117.958 72.5482C125.237 66.1063 125.892 54.9485 119.417 47.6794C112.942 40.4103 101.75 39.7371 94.4709 46.179L41.6608 92.916C29.532 103.65 28.4329 122.243 39.2292 134.364C50.0254 146.485 68.6773 147.599 80.806 136.865L143.827 81.0912C145.479 79.6289 148.008 79.7787 149.475 81.4259L151.991 84.2508C153.458 85.898 153.308 88.4186 151.656 89.8809Z" fill="currentColor"/>
</svg>
