<svg width="256" height="256" viewBox="0 0 256 256" fill="none" xmlns="http://www.w3.org/2000/svg">
<path d="M141.5 77.42C141.5 80.3 142.398 82.6405 144.378 84.6205C146.358 86.6005 148.697 87.5 151.577 87.5H209V225.92C209 228.8 208.097 231.14 206.117 233.12C204.137 235.1 201.799 236 198.919 236H57.0767C54.1967 236 51.8585 235.1 49.8785 233.12C47.8985 231.14 47.0001 228.8 47.0001 225.92V30.08C47.0001 27.2 47.8985 24.8606 49.8785 22.8806C51.8585 20.9006 54.1967 20 57.0767 20H141.5V77.42ZM168.5 119.541C168.5 116.121 166.88 114.5 163.46 114.5H92.5406C89.1206 114.5 87.5001 116.121 87.5001 119.541V122.961C87.5001 126.381 89.1206 128 92.5406 128H163.46C166.88 128 168.5 126.381 168.5 122.961V119.541ZM163.46 155C166.88 155 168.5 153.381 168.5 149.961V146.541C168.5 143.121 166.88 141.5 163.46 141.5H92.5406C89.1206 141.5 87.5001 143.121 87.5001 146.541V149.961C87.5001 153.381 89.1206 155 92.5406 155H163.46ZM163.46 182C166.88 182 168.5 180.381 168.5 176.961V173.541C168.5 170.121 166.88 168.5 163.46 168.5H92.5406C89.1206 168.5 87.5001 170.121 87.5001 173.541V176.961C87.5001 180.381 89.1206 182 92.5406 182H163.46ZM206.117 64.2804C208.097 66.2604 209 68.5997 209 71.4797V74H155V20H157.518C160.398 20 162.741 20.9006 164.721 22.8806L206.117 64.2804Z" fill="currentColor"/>
</svg>
