<svg width="256" height="256" viewBox="0 0 256 256" fill="none" xmlns="http://www.w3.org/2000/svg">
<path d="M203.11 61.3655C207.067 65.3222 209.045 69.9983 209.045 75.7535V215.677C209.045 221.252 207.067 226.108 203.11 230.065C199.153 234.022 194.477 236 188.722 236H67.3231C61.7477 236 56.8918 234.022 52.9351 230.065C48.9784 226.108 47 221.432 47 215.677V40.3231C47 34.7477 48.9784 29.8918 52.9351 25.9351C56.8918 21.9784 61.5679 20 67.3231 20H153.291C158.867 20 163.723 21.9784 167.679 25.9351L203.11 61.3655ZM188.722 215.677V94.2781H144.838C141.961 94.2781 139.623 93.3789 137.644 91.4005C135.666 89.4221 134.767 87.0841 134.767 84.2065V40.3231H67.3231V215.677H188.722ZM163.363 119.637C166.78 119.637 168.399 121.256 168.399 124.673V136.543C168.399 139.96 166.78 141.579 163.363 141.579H92.5021C89.0849 141.579 87.4663 139.96 87.4663 136.543V124.673C87.4663 121.256 89.0849 119.637 92.5021 119.637H163.363ZM163.363 155.067C166.78 155.067 168.399 156.686 168.399 160.103V171.973C168.399 175.391 166.78 177.009 163.363 177.009H92.5021C89.0849 177.009 87.4663 175.391 87.4663 171.973V160.103C87.4663 156.686 89.0849 155.067 92.5021 155.067H163.363ZM154.91 42.1216V74.1349H186.923L154.91 42.1216Z" fill="currentColor"/>
</svg>
