<svg width="256" height="256" viewBox="0 0 256 256" fill="none" xmlns="http://www.w3.org/2000/svg">
<path d="M51.0076 81.7932C47.689 81.7932 45 79.1182 45 75.804V60.9887C45 57.6748 47.6893 55 51.0076 55H205C208.323 55 211 57.6734 211 60.9887V75.804C211 79.1195 208.323 81.7932 205 81.7932H51.0076ZM74.7219 140.897C71.4033 140.897 68.7143 138.222 68.7143 134.907V120.092C68.7143 116.778 71.4036 114.103 74.7219 114.103H181.286C184.609 114.103 187.286 116.777 187.286 120.092V134.907C187.286 138.223 184.609 140.897 181.286 140.897H74.7219ZM98.4362 200C95.1176 200 92.4286 197.325 92.4286 194.011V179.195C92.4286 175.882 95.1179 173.207 98.4362 173.207H157.572C160.895 173.207 163.571 175.88 163.571 179.195V194.011C163.571 197.326 160.895 200 157.572 200H98.4362Z" fill="currentColor"/>
</svg>
