<svg width="256" height="256" viewBox="0 0 256 256" fill="none" xmlns="http://www.w3.org/2000/svg">
<path d="M166.154 61.7912C179.652 61.7912 196.029 57.292 215.105 48.2937C219.604 46.314 223.923 46.6737 228.242 49.1933C232.562 51.7128 234.543 55.4922 234.543 60.5313V163.113C234.543 167.972 232.562 171.571 228.603 174.091C212.046 185.609 194.767 191.368 177.13 191.368C167.052 191.368 154.637 189.028 139.88 184.169C125.122 179.31 114.143 176.97 107.124 176.97C89.6676 176.97 73.6518 180.03 59.0744 186.329V225.922C59.0744 228.801 58.1718 231.141 56.1921 233.121C54.2125 235.101 51.8747 236 48.9952 236H42.1541C39.2746 236 36.9368 235.101 34.9572 233.121C32.9775 231.141 32.0793 228.801 32.0793 225.922V63.0512C25.2405 58.192 22 51.8928 22 43.6143C22 36.7755 24.3378 31.1963 29.197 26.5171C34.0561 21.838 39.8144 19.6786 46.4732 20.0386C52.5921 20.3985 57.9934 22.5582 62.3126 26.8774C66.6319 31.0167 68.9695 36.2351 69.3294 41.9941C69.6894 45.5935 68.9723 49.0128 67.7125 52.0723C77.0709 48.6529 86.6067 47.0337 96.6849 47.0337C106.763 47.0337 119.002 49.5528 133.579 54.4119C148.157 59.2711 159.136 61.7912 166.515 61.7912H166.154ZM183.07 110.742C190.629 109.662 201.067 106.243 214.204 100.664V70.7896C203.226 75.6488 192.789 78.8878 183.07 80.5075V110.922C173.172 112.542 162.915 112.182 152.297 109.662V81.0479C148.877 80.508 138.439 77.4482 121.162 71.6893V100.305C110.544 97.2452 100.287 96.3451 90.3887 97.7848V67.9095C84.9896 68.2695 74.5518 71.3293 59.2546 77.2682V106.783C72.2123 101.924 82.65 99.0448 90.3887 97.965V127.479C101.547 126.579 111.984 127.119 121.162 129.099V157.714C124.222 158.254 134.66 161.313 152.297 167.072V138.458C162.915 141.517 173.172 142.416 183.07 140.976V171.391C193.508 170.311 203.946 166.352 214.204 159.514V129.999C205.206 135.578 194.768 139.357 183.07 140.976V111.102V110.742ZM59.0744 164.373C68.9727 160.774 79.2305 158.434 90.2085 157.534V127.12C80.6702 128.02 70.2324 130.539 59.0744 134.678V164.193V164.373ZM121.162 100.305C123.682 100.845 128.542 102.284 135.561 104.804C142.58 107.143 148.157 108.762 152.477 109.662V138.278C149.957 137.738 145.097 136.298 138.078 133.778C131.06 131.439 125.482 129.819 121.162 128.919V100.305Z" fill="currentColor"/>
</svg>
