<svg width="256" height="256" viewBox="0 0 256 256" fill="none" xmlns="http://www.w3.org/2000/svg">
<path fill-rule="evenodd" clip-rule="evenodd" d="M166.362 61.7859C179.82 61.74 196.126 57.2409 215.105 48.2887C224.058 44.3494 234.543 50.6047 234.543 60.5264V163.108C234.543 167.967 232.562 171.567 228.603 174.086C212.046 185.604 194.767 191.363 177.13 191.363C167.052 191.363 154.637 189.023 139.88 184.164C125.122 179.305 114.143 176.965 107.124 176.965C89.6676 176.965 73.6518 180.025 59.0744 186.324V225.917C59.0744 231.577 54.6548 235.995 48.9952 235.995H42.1541C36.4917 235.995 32.0793 231.578 32.0793 225.917V63.0462C25.2405 58.1871 22 51.8879 22 43.6094C22 30.354 33.092 19.3103 46.4732 20.0336C58.3739 20.7337 68.5708 29.8507 69.3294 41.9892C69.6894 45.5885 68.9723 49.0079 67.7125 52.0673C77.0709 48.6479 86.6067 47.0288 96.6849 47.0288C106.763 47.0288 119.002 49.5479 133.579 54.407C148.057 59.2328 158.985 61.7516 166.362 61.7859ZM214.204 70.7847C203.226 75.6438 192.789 78.8829 183.07 80.5026C173.352 82.1223 164.21 82.6363 152.297 81.043C131.057 78.2024 112.695 66.1182 90.3887 67.9046C77.7331 68.9181 74.5518 71.3243 59.2546 77.2633C59.2546 118.892 59.0744 112.195 59.0744 164.368C68.9727 160.769 77.8267 158.816 90.2085 157.529C113.063 155.154 130.678 160.008 152.297 167.067C152.297 167.067 172.632 172.466 183.07 171.386C193.508 170.306 203.946 166.347 214.204 159.509C214.204 123.731 214.204 113.711 214.204 70.7847Z" fill="currentColor"/>
</svg>
