<svg width="256" height="256" viewBox="0 0 256 256" fill="none" xmlns="http://www.w3.org/2000/svg">
<path d="M208.91 80.7613C208.91 88.1536 206.746 94.6444 202.599 100.594C198.452 106.544 192.863 110.511 186.192 112.855C185.831 124.755 182.766 134.311 176.816 141.523C173.21 146.03 168.162 149.636 161.851 152.341C155.541 155.045 150.132 156.848 145.624 157.569C141.117 158.471 134.987 159.192 127.053 159.733C112.99 161.175 103.614 162.978 99.1068 165.142C96.222 166.584 94.2387 168.387 92.7963 170.551C99.2871 173.075 104.516 177.222 108.482 182.992C112.449 188.761 114.432 195.252 114.432 202.284C114.432 211.659 111.187 219.593 104.516 226.083C97.8447 232.755 89.9115 236 80.7162 236C71.5209 236 63.4073 232.755 56.9165 226.083C50.4257 219.412 47 211.479 47 202.284C47 194.711 49.1636 187.86 53.4908 182.09C57.818 176.14 63.5876 172.174 70.6194 170.19V85.8097C63.5876 83.8264 57.818 79.8598 53.4908 73.9099C49.1636 67.9599 47 61.2888 47 53.7162C47 44.3406 50.2454 36.4073 56.9165 29.9165C63.5876 23.4257 71.5209 20 80.7162 20C89.9115 20 98.025 23.2454 104.516 29.9165C111.187 36.5876 114.432 44.5209 114.432 53.7162C114.432 61.2888 112.269 68.1402 107.942 73.9099C103.614 79.8598 97.8447 83.8264 90.813 85.8097V146.751C97.6644 143.686 109.023 141.342 125.07 139.539C131.922 138.998 136.97 138.457 140.215 138.097C143.461 137.736 147.427 136.654 151.574 135.212C155.721 133.589 158.967 131.606 160.95 129.082C164.015 125.476 165.818 120.247 165.998 113.396C158.606 111.232 152.836 107.085 148.329 101.135C143.821 95.1853 141.477 88.5142 141.477 80.9416C141.477 71.5659 144.723 63.6327 151.394 57.1419C158.065 50.6511 165.998 47.2254 175.194 47.2254C184.389 47.2254 192.502 50.4708 198.993 57.1419C205.664 63.813 208.91 71.7462 208.91 80.9416V80.7613ZM85.2237 48.8481C83.9616 47.586 82.3389 46.8648 80.3556 46.8648C78.3723 46.8648 76.7496 47.586 75.4875 48.8481C74.2254 50.1102 73.5042 51.7329 73.5042 53.7162C73.5042 55.6995 74.2254 57.3222 75.4875 58.5843C76.7496 59.8464 78.3723 60.5676 80.3556 60.5676C82.3389 60.5676 83.9616 59.8464 85.2237 58.5843C86.4858 57.3222 87.207 55.6995 87.207 53.7162C87.207 51.7329 86.4858 50.1102 85.2237 48.8481ZM75.4875 207.332C76.7496 208.594 78.3723 209.316 80.3556 209.316C82.3389 209.316 83.9616 208.594 85.2237 207.332C86.4858 206.07 87.207 204.447 87.207 202.464C87.207 200.481 86.4858 198.858 85.2237 197.596C83.9616 196.334 82.3389 195.613 80.3556 195.613C78.3723 195.613 76.7496 196.334 75.4875 197.596C74.2254 198.858 73.5042 200.481 73.5042 202.464C73.5042 204.447 74.2254 206.07 75.4875 207.332ZM179.881 75.8932C178.619 74.6311 176.997 73.9099 175.013 73.9099C173.03 73.9099 171.407 74.6311 170.145 75.8932C168.883 77.1553 168.162 78.778 168.162 80.7613C168.162 82.7446 168.883 84.3673 170.145 85.6294C171.407 86.8915 173.03 87.6127 175.013 87.6127C176.997 87.6127 178.619 86.8915 179.881 85.6294C181.144 84.3673 181.865 82.7446 181.865 80.7613C181.865 78.778 181.144 77.1553 179.881 75.8932Z" fill="currentColor"/>
</svg>
