<svg width="256" height="256" viewBox="0 0 256 256" fill="none" xmlns="http://www.w3.org/2000/svg">
<path d="M236 62.0368C236 54.8701 232.69 49.9968 225.927 47.2735H225.783L133.972 9.29C130.518 7.57 125.338 7.57 121.884 9.29L30.0735 47.2735C23.31 49.9968 20 54.8701 20 62.0368V177.277C20 179.14 20.8635 180 22.7342 180H49.7882C51.659 180 52.5224 178.997 52.5224 177.277V94.0001C52.5224 87.9134 57.5832 83.2501 63.6031 83.2501H192.397C198.402 83.2501 203.478 87.9166 203.478 94.0001V177.277C203.478 179.14 204.341 180 206.212 180H233.266C235.137 180 236 178.997 236 177.277V62.0368Z" fill="currentColor"/>
<path d="M192.973 96.7234C192.973 94.8601 191.965 94.0001 190.238 94.0001H66.4811C64.6104 94.0001 63.7469 95.0034 63.7469 96.7234L63.4591 112.777C63.4591 114.64 64.3225 115.5 66.1933 115.5H190.238C192.109 115.5 192.973 114.64 192.973 112.777V96.7234Z" fill="currentColor"/>
<path d="M56.3746 208.29L63.9039 216.159H63.7592C66.9665 219.387 72.2701 218.817 75.3431 215.725L114.439 174.78L114.439 239.839C114.439 244.421 117.993 248 122.547 248H133.407C137.961 248 141.516 244.422 141.516 239.839L141.516 174.78L180.612 215.725C183.737 218.87 188.934 219.441 192.195 216.159L199.725 208.29C202.825 205.171 202.825 199.755 199.725 196.636L133.842 130.341C130.74 127.22 125.36 127.22 122.258 130.341L56.3746 196.636C53.2749 199.755 53.2749 205.171 56.3746 208.29Z" fill="currentColor"/>
</svg>
