<svg width="256" height="256" viewBox="0 0 256 256" fill="none" xmlns="http://www.w3.org/2000/svg">
<path d="M186.346 67.9335C194.458 66.4924 201.85 68.6541 208.34 74.4184C214.83 80.1827 218.075 87.208 218.075 95.6744V151.336C218.075 157.821 217.354 164.126 215.911 170.251L203.292 225.552C202.39 228.614 200.768 231.136 198.424 233.118C196.081 235.099 193.196 236 189.771 236H96.0261C91.1586 236 87.3728 234.199 84.6686 230.596L34.3709 159.262C29.8639 153.138 28.2414 146.112 29.3231 138.367C30.4047 130.621 34.1906 124.496 40.3201 119.993C48.4326 114.048 57.2663 112.787 66.4605 116.21V63.0699C66.4605 53.7028 70.066 46.3172 77.2772 40.733C84.4883 35.1488 92.6008 33.3475 101.615 35.6892C106.663 25.6017 114.775 20.3777 126.133 20.0175C137.31 19.6572 145.783 24.8811 151.552 35.1488C160.205 32.9872 168.318 34.6084 175.709 40.3728C183.101 46.1371 186.706 53.7028 186.706 62.8897V67.5732L186.346 67.9335ZM196.081 165.927C197.162 161.064 197.703 156.38 197.703 151.516V95.8545C197.703 92.432 196.441 90.0902 193.917 88.6491C191.393 87.208 188.689 87.208 186.165 88.6491C183.461 90.0902 182.199 92.6121 182.199 96.2148V128.279C182.199 130.26 181.478 131.882 180.216 133.143C178.954 134.404 177.332 135.124 175.349 135.124H172.825C170.842 135.124 169.219 134.404 167.957 133.143C166.695 131.882 165.974 130.26 165.974 128.279V63.25C165.974 59.8274 164.712 57.4856 162.008 55.8644C159.304 54.2432 156.78 54.2432 154.256 55.6843C151.732 57.1254 150.47 59.4671 150.47 62.8897V128.279C150.47 130.26 149.749 131.882 148.487 133.143C147.225 134.404 145.603 135.124 143.62 135.124H140.735C139.113 135.124 137.49 134.404 136.048 133.143C134.606 131.882 133.885 130.26 133.885 128.279V49.0193C133.885 45.5967 132.623 43.2549 130.099 41.6337C127.575 40.0125 125.051 40.0125 122.527 41.4536C120.003 42.8947 118.741 45.2364 118.741 48.659V128.459C118.741 130.441 118.02 132.062 116.578 133.323C115.136 134.584 113.693 135.304 111.891 135.304H109.006C107.023 135.304 105.401 134.584 104.139 133.323C102.877 132.062 102.156 130.441 102.156 128.459V63.7904C102.156 60.3678 100.894 58.0261 98.1895 56.4048C95.4853 54.7836 92.9614 54.7836 90.4375 56.2247C87.9136 57.6658 86.6517 60.0075 86.6517 63.4301V150.436C86.6517 153.858 85.0291 156.02 81.9644 156.92C78.8997 157.821 76.3758 157.101 74.3927 154.579L63.0352 138.547C61.0521 135.664 58.5282 134.584 55.6437 135.124C52.7593 135.664 50.7762 137.286 49.6945 139.808C48.7932 142.33 48.9734 145.032 50.7762 147.914L99.4514 216.365H184.723L196.081 166.107V165.927Z" fill="currentColor"/>
</svg>
