<svg width="256" height="256" viewBox="0 0 256 256" fill="none" xmlns="http://www.w3.org/2000/svg">
<path d="M195.092 84.6H236V171H214.4C211.52 171 208.924 169.992 206.764 167.832C204.604 165.672 203.6 163.224 203.6 160.2H184.011C183.291 163.08 182.142 165.672 180.27 167.976L171.481 178.776C168.745 182.088 165.441 184.392 161.553 185.4C157.665 186.408 153.769 186.12 149.881 184.536C145.561 190.008 140.083 192.6 133.315 192.6C128.42 192.6 123.812 190.872 119.492 187.128C114.308 191.016 108.411 192.744 101.787 192.6C95.1634 192.312 89.2526 190.152 84.0686 185.832L55.4233 160.2H52.3999C52.3999 163.08 51.3818 165.672 49.2218 167.832C47.0618 169.992 44.6239 171 41.5999 171H19.9999V84.6H59.8811L76.0108 68.4721C79.6108 64.8721 83.9331 63 89.1171 63H165.715C170.9 63 175.37 64.8721 179.258 68.4721L195.092 84.6ZM32.2343 158.472C33.2423 159.624 34.5315 160.2 36.1155 160.2C37.6995 160.2 39.0028 159.624 40.0108 158.472C41.0188 157.32 41.5999 156.024 41.5999 154.584C41.5999 153.144 41.0188 151.848 40.0108 150.84C39.0028 149.832 37.6995 149.256 36.1155 149.256C34.5315 149.256 33.2423 149.832 32.2343 150.84C31.2263 151.848 30.6452 153.144 30.6452 154.584C30.6452 156.024 31.2263 157.32 32.2343 158.472ZM167.74 157.752C168.893 156.168 168.741 154.872 167.445 153.72L131.023 124.344L128 126.648C123.968 130.536 119.357 132.552 114.317 132.84C109.277 133.128 105.099 132.552 101.787 130.824C98.4754 129.096 95.8862 127.224 93.8702 125.208C89.4062 120.312 87.2434 114.408 87.3874 107.784C87.6754 101.16 90.2679 95.3999 95.1639 90.7919L108.27 78.9842H88.9764C88.9764 78.9842 88.3926 78.9841 88.1046 79.2721C87.8166 79.5601 87.5348 79.5599 87.2467 79.5599L66.3639 100.44H52.2452V143.64H61.7514L94.4468 173.304C97.1828 175.608 100.35 176.472 104.094 176.04C107.838 175.608 110.719 173.88 113.023 171L118.494 164.52L131.023 175.32C133.039 176.904 135.054 176.616 137.07 174.312L147.153 162.216L155.211 168.696C156.507 169.848 157.799 169.704 158.951 168.408L167.74 157.608V157.752ZM203.445 143.928V100.728H188.328L167.74 79.8482C167.74 79.8482 166.436 79.1279 165.715 79.1279H137.351C134.039 79.1279 130.873 80.4241 128.281 82.8721L106.4 103.176C104.528 104.472 103.658 106.344 103.658 108.648C103.658 110.952 104.38 112.968 105.964 114.696C107.26 116.28 109.127 117 111.575 116.856C113.879 116.856 115.897 115.992 117.481 114.696L136.058 97.4162C138.794 94.9682 141.386 95.1121 143.834 97.7041L147.575 101.736C150.023 104.472 149.886 106.92 147.294 109.224L142.976 113.256L177.669 141.336C178.533 142.2 179.403 143.208 180.411 144.072H203.74L203.445 143.928ZM215.834 158.472C216.842 159.624 218.132 160.2 219.715 160.2C221.299 160.2 222.603 159.624 223.611 158.472C224.619 157.32 225.2 156.024 225.2 154.584C225.2 153.144 224.619 151.848 223.611 150.84C222.603 149.832 221.299 149.256 219.715 149.256C218.132 149.256 216.842 149.832 215.834 150.84C214.826 151.848 214.245 153.144 214.245 154.584C214.245 156.024 214.826 157.32 215.834 158.472Z" fill="currentColor"/>
</svg>
