<svg width="256" height="256" viewBox="0 0 256 256" fill="none" xmlns="http://www.w3.org/2000/svg">
<path d="M235.718 154.422C236.198 156.182 236.046 157.783 235.406 159.063C234.606 160.503 233.478 161.463 232.038 162.263L152.188 188.828C151.868 199.87 147.55 208.832 139.068 215.873C130.587 222.914 120.663 225.315 109.461 223.394C102.26 222.114 95.8561 218.753 90.5751 213.312C85.1341 207.871 81.9317 201.31 80.6515 193.789C78.5711 180.026 83.2172 168.824 94.0992 160.023L59.5305 56.1645H26.087C24.3267 56.1645 22.8861 55.5244 21.7659 54.4042C20.6457 53.284 20 51.8436 20 50.0833V38.0812C20 36.3209 20.6457 34.8805 21.7659 33.7603C22.8861 32.6401 24.3267 32 26.087 32H68.0086C73.7696 32 77.4534 34.7206 79.2137 40.3216L116.658 152.021C127.86 152.342 136.981 156.822 144.022 165.944L224.357 139.379C225.797 138.899 227.402 139.059 228.842 139.699C230.282 140.34 231.402 141.62 231.882 143.06L235.562 154.262L235.718 154.422ZM103.382 200.99C106.903 204.511 111.06 206.271 116.181 206.271C121.302 206.271 125.46 204.511 128.98 200.99C132.501 197.47 134.263 193.309 134.263 188.188C134.263 183.067 132.501 178.906 128.98 175.386C125.46 171.865 121.302 170.105 116.181 170.105C111.06 170.105 106.903 171.865 103.382 175.386C99.8615 178.906 98.0999 183.067 98.0999 188.188C98.0999 193.309 99.8615 197.47 103.382 200.99ZM149.148 145.46C143.387 141.14 137.147 138.259 130.426 136.499L110.579 76.4879C110.099 75.0477 110.259 73.4474 110.899 72.0072C111.539 70.5669 112.819 69.4469 114.259 68.9668L137.466 61.4454L149.789 98.572L172.668 91.0506L160.345 53.9241L183.232 46.0826C184.673 45.6025 186.269 45.7626 187.71 46.4027C189.15 47.0428 190.277 48.3229 190.757 49.7632L213.316 117.615C213.796 119.376 213.636 120.976 212.995 122.416C212.355 123.857 211.076 124.977 209.635 125.457L149.304 145.3L149.148 145.46Z" fill="currentColor"/>
</svg>
