<svg width="256" height="256" viewBox="0 0 256 256" fill="none" xmlns="http://www.w3.org/2000/svg">
<path d="M236 146.013V181.987C236 186.943 234.241 191.26 230.724 194.777C227.207 198.295 223.05 200.053 217.933 200.053H38.0666C33.1103 200.053 28.7935 198.295 25.2761 194.777C21.7587 191.26 20 187.103 20 181.987V146.013C20 141.057 21.7587 136.74 25.2761 133.223C28.7935 129.705 32.9504 127.947 38.0666 127.947H217.933C222.89 127.947 227.207 129.705 230.724 133.223C234.241 136.74 236 140.897 236 146.013ZM229.605 118.354C225.927 116.915 221.93 116.115 217.933 116.115H38.0666C34.0696 116.115 30.2324 116.915 26.3953 118.354L62.8483 63.8342C66.3657 58.718 71.322 56 77.8771 56H178.283C184.838 56 189.794 58.5581 193.312 63.8342L229.605 118.194V118.354ZM172.527 155.606C170.129 153.208 167.411 152.089 164.053 152.089C160.696 152.089 157.978 153.208 155.58 155.606C153.181 158.004 152.062 160.722 152.062 164.08C152.062 167.437 153.181 170.155 155.58 172.554C157.978 174.952 160.696 176.071 164.053 176.071C167.411 176.071 170.129 174.952 172.527 172.554C174.925 170.155 176.044 167.437 176.044 164.08C176.044 160.722 174.925 158.004 172.527 155.606ZM208.5 155.606C206.102 153.208 203.384 152.089 200.027 152.089C196.669 152.089 193.951 153.208 191.553 155.606C189.155 158.004 188.036 160.722 188.036 164.08C188.036 167.437 189.155 170.155 191.553 172.554C193.951 174.952 196.669 176.071 200.027 176.071C203.384 176.071 206.102 174.952 208.5 172.554C210.899 170.155 212.018 167.437 212.018 164.08C212.018 160.722 210.899 158.004 208.5 155.606Z" fill="currentColor"/>
</svg>
