<svg width="256" height="256" viewBox="0 0 256 256" fill="none" xmlns="http://www.w3.org/2000/svg">
<path d="M227.841 92.4357C228.341 106.085 224.346 118.07 215.69 128.557H169.248L158.263 107.084C156.266 102.425 149.271 102.425 147.274 107.084L128.133 145.369L105.493 94.5996C102.915 90.0886 95.9023 89.7805 93.8414 94.9326L79.8575 128.557H40.0757C31.4198 118.237 27.4251 106.085 27.9245 92.4357C28.9322 64.8934 52.2293 41 80.1907 41C94.5061 41 106.657 46.1602 116.811 56.6471L127.8 67.6334L138.784 56.3142C148.938 46.1602 161.089 41.1665 175.404 41.1665C203.553 41.1665 226.822 64.5816 227.841 92.4357ZM152.935 123.73L161.591 140.875H204.039L132.961 213.451C130.054 216.358 125.602 216.598 122.805 213.451L51.727 140.875H88.347L100.002 112.744L122.305 162.348C124.302 167.007 131.298 167.007 133.294 162.348L152.768 123.73H152.935Z" fill="currentColor"/>
</svg>
