<svg width="256" height="256" viewBox="0 0 256 256" fill="none" xmlns="http://www.w3.org/2000/svg">
<path d="M235.838 89.5505C236.377 104.292 232.063 117.236 222.715 128.562H172.557L160.693 105.371C158.537 100.339 150.982 100.339 148.825 105.371L128.153 146.719L103.702 91.8876C100.918 87.0157 93.3439 86.6829 91.1182 92.2472L76.0155 128.562H33.0512C23.7029 117.416 19.3886 104.292 19.928 89.5505C21.0162 59.8048 46.1772 34 76.3755 34C91.8361 34 104.959 39.573 115.925 50.8989L127.793 62.764L139.657 50.5393C150.623 39.573 163.746 34.1798 179.206 34.1798C209.607 34.1798 234.738 59.4681 235.838 89.5505ZM154.939 123.348L164.288 141.865H210.132L133.367 220.247C130.228 223.387 125.42 223.645 122.399 220.247L45.6346 141.865H85.1843L97.772 111.483L121.859 165.056C124.015 170.087 131.571 170.087 133.727 165.056L154.759 123.348H154.939Z" fill="currentColor"/>
</svg>
