<svg width="256" height="256" viewBox="0 0 256 256" fill="none" xmlns="http://www.w3.org/2000/svg">
<path d="M128.001 20.3704C157.929 20.3704 183.395 30.948 204.4 51.9171C225.405 72.8863 236 98.3086 236 127.999C236 157.69 225.405 183.114 204.4 204.269C183.395 225.423 157.929 236 128.001 236C102.349 236 79.8559 228.021 59.966 212.062C55.1839 208.023 55.1513 200.568 59.5939 196.474L64.4271 191.65C68.9567 187.128 73.3081 187.233 78.3686 190.907C92.8678 202.598 109.412 208.351 128.001 208.351C150.122 208.351 168.897 200.558 184.697 184.784C200.498 169.011 208.303 150.268 208.303 128.185C208.303 106.103 200.498 87.3605 184.697 71.5872C168.897 55.814 150.122 48.0198 128.001 48.0198C105.881 48.0198 88.4082 55.2577 73.1655 69.732L95.471 92.0004C99.474 95.9965 95.8925 103.69 90.2656 103.69H27.0638C24.0466 103.69 20 99.6623 20 96.6396V33.5461C20 26.55 26.719 23.3663 31.7109 28.3496L53.4605 50.0619C74.2798 30.0206 99.1887 20 128.001 20V20.3704ZM157.184 162.144C154.681 165.754 145.701 167.003 142.315 164.185L114.06 141.917V82.722C114.06 75.8011 117.877 72.3291 124.468 72.3291H131.532C138.124 72.3291 141.943 75.7995 141.943 82.722V127.999L159.787 141.917C164.404 145.373 165.314 152.149 161.462 156.763L157.184 161.959V162.144Z" fill="currentColor"/>
</svg>
