<svg width="256" height="256" viewBox="0 0 256 256" fill="none" xmlns="http://www.w3.org/2000/svg">
<path d="M191.043 32C193.603 32 195.681 32.7996 197.441 34.5596C199.201 36.3196 200 38.4 200 40.96V47.0391C200 49.5991 199.201 51.6795 197.441 53.4395C195.681 55.1995 193.603 56 191.043 56C191.043 72.8 186.722 87.8391 178.242 101.119C169.762 114.559 158.882 123.36 145.602 128C158.882 132.48 169.762 141.44 178.242 154.88C186.722 168.32 191.043 183.36 191.043 200C193.603 200 195.681 200.8 197.441 202.56C199.201 204.32 200 206.4 200 208.96V215.039C200 217.599 199.201 219.679 197.441 221.439C195.681 223.199 193.603 224 191.043 224H64.9609C62.4009 224 60.3225 223.199 58.5625 221.439C56.8025 219.679 56 217.599 56 215.039V208.96C56 206.4 56.8025 204.32 58.5625 202.56C60.3225 200.8 62.4009 200 64.9609 200C64.9609 183.2 69.2817 168.16 77.7617 154.88C86.2417 141.44 97.1223 132.64 110.402 128C97.1223 123.52 86.2417 114.559 77.7617 101.119C69.2817 87.6791 64.9609 72.64 64.9609 56C62.4009 56 60.3225 55.1995 58.5625 53.4395C56.8025 51.6795 56 49.5991 56 47.0391V40.96C56 38.4 56.8025 36.3196 58.5625 34.5596C60.3225 32.7996 62.4009 32 64.9609 32H191.043ZM162.883 80C165.603 72.48 167.043 64.48 167.043 56H88.9609C88.9609 64.48 90.4011 72.48 93.1211 80H162.883ZM162.883 176C159.683 167.04 154.881 159.679 148.641 154.239C142.401 148.799 135.52 145.92 128 145.92C120.48 145.92 113.603 148.639 107.363 154.239C101.123 159.679 96.3211 167.04 93.1211 176H162.883Z" fill="currentColor"/>
</svg>
