<svg width="256" height="256" viewBox="0 0 256 256" fill="none" xmlns="http://www.w3.org/2000/svg">
<path d="M234.564 126.178C235.523 127.138 236 128.417 236 129.856C236 130.816 235.679 131.774 234.88 132.414L225.449 144.086C224.49 145.365 223.371 146.004 222.092 146.004C220.813 146.004 219.851 145.685 219.052 144.885L130.957 72.1393C129.998 71.6596 128.879 71.3391 127.92 71.3391C126.961 71.3391 125.843 71.6596 124.883 72.1393L36.7884 144.885C36.7884 144.885 35.191 146.004 34.2317 146.004C32.7928 146.004 31.5141 145.365 30.5548 144.086L21.1204 132.414C21.1204 132.414 20.0001 130.816 20.0001 129.856C20.0001 128.417 20.4811 127.138 21.4404 126.178L116.249 48.1571C119.766 45.4391 123.603 44 127.92 44C132.237 44 135.913 45.4391 139.111 48.1571L172.848 75.8162V48.4762C172.848 47.1971 173.329 46.2376 174.128 45.2783C174.927 44.3191 176.046 44 177.325 44H198.27C199.549 44 200.508 44.4789 201.467 45.2783C202.267 46.0778 202.743 47.1971 202.743 48.4762V100.598L234.244 126.019L234.564 126.178ZM125.203 87.6473C126.163 87.1677 127.121 86.8481 128.24 86.8481C129.359 86.8481 130.158 87.1677 131.277 87.6473L200.187 144.565V205.96C200.187 207.719 199.549 209.157 198.43 210.276C197.311 211.395 195.872 212.036 194.113 212.036H152.222C150.464 212.036 149.024 211.395 147.905 210.116C146.786 208.837 146.149 207.559 146.149 205.96V169.987C146.149 168.228 145.508 166.789 144.388 165.67C143.269 164.55 141.83 163.911 140.071 163.911H116.089C114.33 163.911 112.891 164.55 111.772 165.67C110.653 166.789 110.015 168.228 110.015 169.987V205.96C110.015 207.399 109.374 208.837 108.255 210.116C107.136 211.395 105.697 212.036 103.938 212.036H62.0509C60.2922 212.036 58.853 211.395 57.7338 210.276C56.6147 209.157 55.9734 207.719 55.9734 205.96V144.565L124.883 87.6473H125.203Z" fill="currentColor"/>
</svg>
