<svg width="256" height="256" viewBox="0 0 256 256" fill="none" xmlns="http://www.w3.org/2000/svg">
<path d="M101.05 187.099H108.099V136.4H101.05C99.0996 136.4 97.5984 135.65 96.0984 134.3C94.5984 132.95 94 131.299 94 129.349V112.55C94 110.75 94.7484 109.099 96.0984 107.599C97.4484 106.099 99.0996 105.5 101.05 105.5H140.348C142.148 105.5 143.799 106.249 145.299 107.599C146.799 108.949 147.401 110.6 147.401 112.55V187.099H154.45C156.25 187.099 157.898 187.849 159.398 189.199C160.898 190.549 161.5 192.2 161.5 194.15V210.95C161.5 212.75 160.748 214.4 159.398 215.9C158.048 217.4 156.4 218 154.45 218H101.05C99.0996 218 97.5984 217.25 96.0984 215.9C94.5984 214.55 94 212.9 94 210.95V194.15C94 192.35 94.7484 190.699 96.0984 189.199C97.4484 187.699 99.0996 187.099 101.05 187.099ZM109.901 45.3499C114.851 40.3999 120.85 38 127.9 38C134.95 38 140.949 40.3999 145.899 45.3499C150.849 50.2999 153.249 56.2991 153.249 63.3491C153.249 70.3991 150.849 76.3993 145.899 81.3493C140.949 86.2993 134.95 88.6992 127.9 88.6992C120.85 88.6992 114.851 86.2993 109.901 81.3493C104.951 76.3993 102.551 70.3991 102.551 63.3491C102.551 56.2991 104.951 50.2999 109.901 45.3499Z" fill="currentColor"/>
</svg>
