<svg width="256" height="256" viewBox="0 0 256 256" fill="none" xmlns="http://www.w3.org/2000/svg">
<path d="M51.6001 51.6008C72.6055 30.5957 98.0697 20 127.998 20C157.926 20 183.394 30.5957 204.4 51.6008C225.405 72.6058 236 98.073 236 128.001C236 157.928 225.405 183.394 204.4 204.399C183.394 225.404 157.926 236 127.998 236C98.0697 236 72.6055 225.404 51.6001 204.399C30.5947 183.394 20 157.928 20 128.001C20 98.073 30.5947 72.6058 51.6001 51.6008ZM147.145 183.766C150.677 183.766 152.35 182.093 152.35 178.561V168.151C152.35 164.62 150.677 162.946 147.145 162.946H141.939V119.449C141.939 115.918 140.27 114.244 136.738 114.244H108.855C105.323 114.244 103.65 115.918 103.65 119.449V129.859C103.65 133.391 105.323 135.063 108.855 135.063H114.056V162.946H108.855C105.323 162.946 103.65 164.62 103.65 168.151V178.561C103.65 182.093 105.323 183.766 108.855 183.766H147.145ZM140.827 73.3502C137.11 69.6325 132.831 67.9588 127.998 67.9588C123.165 67.9588 118.704 69.8184 115.173 73.3502C111.641 76.882 109.781 81.3433 109.781 86.1763C109.781 91.0094 111.641 95.4695 115.173 99.0013C118.89 102.719 123.165 104.393 127.998 104.393C132.831 104.393 137.296 102.533 140.827 99.0013C144.359 95.4695 146.219 91.0094 146.219 86.1763C146.219 81.3433 144.359 76.882 140.827 73.3502Z" fill="currentColor"/>
</svg>
