<svg width="256" height="256" viewBox="0 0 256 256" fill="none" xmlns="http://www.w3.org/2000/svg">
<path d="M217.933 44C222.89 44 227.207 45.7645 230.724 49.2934C234.241 52.8224 236 56.993 236 62.126V194.462C236 199.435 234.241 203.766 230.724 207.295C227.207 210.824 223.05 212.588 217.933 212.588H38.0666C33.1103 212.588 28.7935 210.824 25.2761 207.295C21.7587 203.766 20 199.595 20 194.462V62.126C20 57.1534 21.7587 52.8224 25.2761 49.2934C28.7935 45.7645 32.9504 44 38.0666 44H217.933ZM65.886 137.678C65.886 133.187 64.1273 129.658 60.7698 127.412C57.4123 125.006 54.0548 123.402 50.6973 122.279C47.3397 121.316 45.581 120.033 45.581 118.589C45.581 116.825 47.02 116.023 50.0577 116.023C54.5344 116.023 58.8512 117.146 63.168 119.392V106.559C59.171 105.115 54.8542 104.313 50.0577 104.313C44.6218 104.313 40.1451 105.596 36.9474 108.323C33.7498 110.89 32.151 114.579 32.151 119.392C32.151 123.723 33.9097 126.931 37.2672 129.176C40.6247 131.422 43.9822 133.187 47.3397 134.309C50.6973 135.432 52.456 136.716 52.456 138.32C52.456 140.565 50.6973 141.688 47.1799 141.688C42.8631 141.688 38.2265 140.245 32.9504 137.197V150.029C37.4271 152.115 42.2235 153.077 47.1799 153.077C52.9356 153.077 57.4123 151.794 60.9297 149.067C64.4471 146.34 66.0459 142.811 66.0459 137.999L65.886 137.678ZM91.7868 116.183V104.955H81.7143V93.2451L68.604 96.2928V139.122C68.604 142.811 69.883 146.019 72.601 148.746C75.319 151.473 78.5167 152.756 82.5137 152.756C86.8305 152.756 89.8682 152.115 91.9467 150.831V140.245C91.9467 140.245 89.3886 141.207 86.3508 140.886C83.3131 140.565 81.8742 138.64 81.8742 135.432V116.183H91.9467H91.7868ZM109.374 119.873C111.932 116.665 115.289 115.702 119.446 117.306V104.955C114.49 103.19 110.653 104.634 108.255 109.125L107.455 104.955H95.7839V151.954H109.214V120.033L109.374 119.873ZM135.914 98.0573V87.1496L122.484 89.7161V100.624L135.914 98.0573ZM135.914 151.794V104.794H122.484V151.794H135.914ZM154.301 149.227C157.498 151.473 160.696 152.596 163.734 152.596C169.01 152.596 173.326 150.511 176.844 146.34C180.361 142.169 182.12 136.074 182.12 128.054C182.12 120.514 180.361 114.579 176.684 110.409C173.007 106.078 168.69 103.992 163.734 103.992C160.056 103.992 156.539 105.436 153.661 108.163L152.862 104.794H140.87V167.193L154.301 164.145V149.067V149.227ZM154.301 118.429C155.739 116.665 157.978 115.863 160.696 115.863C163.254 115.863 165.172 116.985 166.771 119.392C168.21 121.798 169.01 124.685 169.01 128.214C169.01 131.903 168.21 135.111 166.771 137.357C165.332 139.763 163.254 140.886 160.696 140.886C158.138 140.886 156.059 140.084 154.301 138.32V118.429ZM224.009 133.507V128.695C224.009 121.477 222.25 115.542 218.893 111.05C215.535 106.559 210.899 104.313 204.823 104.313C198.748 104.313 193.631 106.559 189.794 111.211C186.117 115.863 184.198 121.637 184.198 128.695C184.198 136.395 186.117 142.49 190.274 146.5C194.271 150.671 199.707 152.756 206.422 152.756C212.178 152.756 217.134 151.633 221.451 149.388V138.48C217.454 140.565 213.137 141.528 208.34 141.528C201.785 141.528 198.268 138.961 197.788 133.668H224.009V133.507ZM204.503 115.061C206.422 115.061 208.181 115.702 209.3 117.146C210.579 118.59 211.218 120.675 211.218 123.723H197.788C197.788 120.675 198.428 118.59 199.867 117.146C201.306 115.702 202.745 115.061 204.503 115.061Z" fill="currentColor"/>
</svg>
