<svg width="256" height="256" viewBox="0 0 256 256" fill="none" xmlns="http://www.w3.org/2000/svg">
<path fill-rule="evenodd" clip-rule="evenodd" d="M191.614 154.571C199.267 147.428 199.568 134.633 192.131 127.196L114.265 50.6219C107.034 42.8742 97.9947 39 87.1476 39H39.3695C28.5723 39 20 47.5105 20 58.3695V106.148C20 116.995 23.6156 126.034 30.8471 133.265L108.454 210.873C115.709 218.127 128.575 218.127 135.83 210.873L191.614 154.571ZM73.2018 77.2226C73.2018 85.3473 66.8639 91.6849 58.7391 91.6849C50.6143 91.6849 44.2764 85.3473 44.2764 77.2226C44.2764 69.0978 50.6143 62.7603 58.7391 62.7603C66.8639 62.7603 73.2018 69.0978 73.2018 77.2226Z" fill="currentColor"/>
<path d="M172.402 93.4555C154.752 76.0602 138.569 60.1091 117.645 39H130.998C138.89 39 146.454 42.1576 152.025 47.7489C168.915 64.702 182.971 78.5554 198.106 93.4728C207.731 102.959 217.793 112.876 229.297 124.294C238.521 133.603 238.148 149.615 228.657 158.555L176.823 209.138C169.081 216.952 157.362 218.623 148.183 212.989L202.97 158.555C212.462 149.615 212.835 133.603 203.611 124.294C192.1 112.87 182.033 102.948 172.402 93.4555Z" fill="currentColor"/>
</svg>
