<svg width="256" height="256" viewBox="0 0 256 256" fill="none" xmlns="http://www.w3.org/2000/svg">
<path d="M212.52 127.532C220.061 135.082 219.756 148.071 211.996 155.323L155.438 212.477C148.082 219.841 135.037 219.841 127.682 212.477L48.9975 133.693C41.6658 126.353 37.9999 117.176 37.9999 106.165V57.663C37.9999 46.6395 46.6911 38 57.6384 38H106.08C117.077 38 126.242 41.9326 133.574 49.7978L212.52 127.532ZM77.2768 91.4834C85.5143 91.4834 91.9401 85.0495 91.9401 76.8017C91.9401 68.5539 85.5143 62.12 77.2768 62.12C69.0393 62.12 62.6134 68.5539 62.6134 76.8017C62.6134 85.0495 69.0393 91.4834 77.2768 91.4834Z" fill="currentColor"/>
</svg>
