<svg width="256" height="256" viewBox="0 0 256 256" fill="none" xmlns="http://www.w3.org/2000/svg">
<path d="M35.4071 53.4101C39.0137 49.8036 43.2768 48 48.5227 48C53.7685 48 58.0316 49.8036 61.6382 53.4101C65.2447 57.0167 67.0493 61.2788 67.0493 66.5247C67.0493 71.7705 65.2447 76.0326 61.6382 79.6392C58.0316 83.2457 53.7685 85.0493 48.5227 85.0493C43.2768 85.0493 39.0137 83.2457 35.4071 79.6392C31.8006 76.0326 30 71.7705 30 66.5247C30 61.2788 31.8006 57.0167 35.4071 53.4101ZM35.4071 114.885C39.0137 111.279 43.2768 109.475 48.5227 109.475C53.7685 109.475 58.0316 111.279 61.6382 114.885C65.2447 118.492 67.0493 122.754 67.0493 128C67.0493 133.246 65.2447 137.508 61.6382 141.115C58.0316 144.721 53.7685 146.525 48.5227 146.525C43.2768 146.525 39.0137 144.721 35.4071 141.115C31.8006 137.508 30 133.246 30 128C30 122.754 31.8006 118.492 35.4071 114.885ZM35.4071 176.361C39.0137 172.754 43.2768 170.951 48.5227 170.951C53.7685 170.951 58.0316 172.754 61.6382 176.361C65.2447 179.967 67.0493 184.229 67.0493 189.475C67.0493 194.721 65.2447 198.983 61.6382 202.59C58.0316 206.196 53.7685 208 48.5227 208C43.2768 208 39.0137 206.196 35.4071 202.59C31.8006 198.983 30 194.721 30 189.475C30 184.229 31.8006 179.967 35.4071 176.361ZM220.654 54.2296C222.457 54.2296 223.933 54.8851 225.08 56.0326C226.228 57.1802 226.885 58.6559 226.885 60.4592V72.7542C226.885 74.5575 226.228 76.0332 225.08 77.1808C223.933 78.3283 222.457 78.9838 220.654 78.9838H97.7029C95.8997 78.9838 94.4239 78.3283 93.2764 77.1808C92.1288 76.0332 91.4753 74.5575 91.4753 72.7542V60.4592C91.4753 58.6559 92.1288 57.1802 93.2764 56.0326C94.4239 54.8851 95.8997 54.2296 97.7029 54.2296H220.654ZM220.654 115.705C222.457 115.705 223.933 116.36 225.08 117.508C226.228 118.656 226.885 120.131 226.885 121.935V134.23C226.885 136.033 226.228 137.509 225.08 138.656C223.933 139.804 222.457 140.459 220.654 140.459H97.7029C95.8997 140.459 94.4239 139.804 93.2764 138.656C92.1288 137.509 91.4753 136.033 91.4753 134.23V121.935C91.4753 120.131 92.1288 118.656 93.2764 117.508C94.4239 116.36 95.8997 115.705 97.7029 115.705H220.654ZM220.654 177.18C222.457 177.18 223.933 177.836 225.08 178.983C226.228 180.131 226.885 181.607 226.885 183.41V195.705C226.885 197.508 226.228 198.984 225.08 200.131C223.933 201.279 222.457 201.935 220.654 201.935H97.7029C95.8997 201.935 94.4239 201.279 93.2764 200.131C92.1288 198.984 91.4753 197.508 91.4753 195.705V183.41C91.4753 181.607 92.1288 180.131 93.2764 178.983C94.4239 177.836 95.8997 177.18 97.7029 177.18H220.654Z" fill="currentColor"/>
</svg>
