<svg width="256" height="256" viewBox="0 0 256 256" fill="none" xmlns="http://www.w3.org/2000/svg">
<path d="M215.75 34C226.719 34 236 43.2813 236 54.25V202.75C236 214.141 226.719 223 215.75 223H40.25C28.8594 223 20 214.141 20 202.75V54.25C20 43.2813 28.8594 34 40.25 34H215.75ZM213.219 202.75C214.484 202.75 215.75 201.906 215.75 200.219V56.7813C215.75 55.5156 214.484 54.25 213.219 54.25H42.7812C41.0938 54.25 40.25 55.5156 40.25 56.7813V200.219C40.25 201.906 41.0938 202.75 42.7812 202.75H213.219ZM195.5 163.938V174.063C195.5 177.016 192.969 179.125 190.438 179.125H106.062C103.109 179.125 101 177.016 101 174.063V163.938C101 161.406 103.109 158.875 106.062 158.875H190.438C192.969 158.875 195.5 161.406 195.5 163.938ZM195.5 123.438V133.563C195.5 136.516 192.969 138.625 190.438 138.625H106.062C103.109 138.625 101 136.516 101 133.563V123.438C101 120.906 103.109 118.375 106.062 118.375H190.438C192.969 118.375 195.5 120.906 195.5 123.438ZM195.5 82.9375V93.0625C195.5 96.0156 192.969 98.125 190.438 98.125H106.062C103.109 98.125 101 96.0156 101 93.0625V82.9375C101 80.4063 103.109 77.875 106.062 77.875H190.438C192.969 77.875 195.5 80.4063 195.5 82.9375ZM89.1875 88C89.1875 96.4375 82.0156 103.188 74 103.188C65.5625 103.188 58.8125 96.4375 58.8125 88C58.8125 79.9844 65.5625 72.8125 74 72.8125C82.0156 72.8125 89.1875 79.9844 89.1875 88ZM89.1875 128.5C89.1875 136.938 82.0156 143.688 74 143.688C65.5625 143.688 58.8125 136.938 58.8125 128.5C58.8125 120.484 65.5625 113.313 74 113.313C82.0156 113.313 89.1875 120.484 89.1875 128.5ZM89.1875 169C89.1875 177.438 82.0156 184.188 74 184.188C65.5625 184.188 58.8125 177.438 58.8125 169C58.8125 160.984 65.5625 153.813 74 153.813C82.0156 153.813 89.1875 160.984 89.1875 169Z" fill="currentColor"/>
</svg>
