<svg width="256" height="256" viewBox="0 0 256 256" fill="none" xmlns="http://www.w3.org/2000/svg">
<path d="M35.5203 162.702L49.3307 178.239L50.0507 184.713L40.989 208.019C39.8381 210.753 37.9657 212.623 35.2323 213.918C32.4989 215.212 29.7645 215.212 27.0311 214.061C24.1538 212.911 22.1408 211.04 20.9899 208.163C19.6952 205.286 19.695 202.552 20.8459 199.963L35.6643 162.846L35.5203 162.702ZM223.696 129.038C225.278 136.231 223.694 142.705 218.659 148.316L196.071 173.923L192.763 205.286C192.331 208.019 191.036 210.177 189.022 212.047C187.008 213.774 184.706 214.781 181.973 214.781H180.68C177.803 214.349 175.358 212.91 173.631 210.753C171.761 208.451 171.039 205.861 171.327 202.696L174.636 171.622C175.355 167.162 177.083 163.134 180.104 159.825L194.635 143.28L188.878 119.399L186.578 126.448C185.283 130.764 182.404 134.361 178.088 137.238L160.825 148.316C159.531 149.179 157.518 149.754 155.072 150.042H101.123C98.6775 149.754 96.8052 149.323 95.3665 148.316L78.1035 137.238C74.0753 134.361 71.2003 130.764 69.6178 126.448L67.3137 119.399L61.5606 143.28L76.091 159.825C78.9683 163.134 80.8368 167.162 81.5561 171.622L84.8647 202.696C85.1525 205.861 84.2905 208.595 82.5642 210.753C80.6939 213.054 78.3922 214.349 75.515 214.781H74.2189C71.4855 214.781 69.1838 213.918 67.1697 212.047C65.1556 210.177 63.8607 208.019 63.4291 205.286L60.1205 173.923L37.5329 148.316C32.6415 142.705 30.9173 136.231 32.4998 129.038L38.9729 101.991C40.5554 94.7981 44.7292 89.7629 51.4908 86.8856C57.9647 84.1522 64.292 84.5838 70.3343 87.8927C78.3907 92.6402 84.0035 99.4018 86.8808 108.177L90.6214 119.687L96.0865 122.995V90.6261C96.0865 89.0436 96.6635 87.7488 97.6706 86.7417C98.6776 85.7347 99.9727 85.1592 101.555 85.1592H155.504C157.087 85.1592 158.382 85.7347 159.389 86.7417C160.396 87.7488 160.969 89.0436 160.969 90.6261V122.995L166.438 119.687L170.179 108.177C173.056 99.4018 178.521 92.6402 186.29 87.8927C192.332 84.5838 198.807 84.1522 205.569 86.8856C212.33 89.7629 216.5 94.7981 218.083 101.991L224.556 129.038H223.696ZM74.6509 69.7658C71.4859 72.9308 67.7448 74.5133 63.1411 74.5133C58.5375 74.5133 54.7998 72.9308 51.6348 69.7658C48.4698 66.6008 46.8862 62.8603 46.8862 58.2567C46.8862 53.653 48.4698 49.9125 51.6348 46.7475C54.7998 43.5825 58.5375 42 63.1411 42C67.7448 42 71.4859 43.5825 74.6509 46.7475C77.8159 49.9125 79.3996 53.653 79.3996 58.2567C79.3996 62.8603 77.8159 66.6008 74.6509 69.7658ZM204.129 69.7658C200.964 72.9308 197.222 74.5133 192.619 74.5133C188.015 74.5133 184.277 72.9308 181.112 69.7658C177.947 66.6008 176.364 62.8603 176.364 58.2567C176.364 53.653 177.947 49.9125 181.112 46.7475C184.277 43.5825 188.015 42 192.619 42C197.222 42 200.964 43.5825 204.129 46.7475C207.294 49.9125 208.877 53.653 208.877 58.2567C208.877 62.8603 207.294 66.6008 204.129 69.7658ZM235.205 199.963C236.356 202.696 236.212 205.43 235.061 208.163C233.767 211.04 231.894 212.911 229.161 214.061C227.866 214.493 226.427 214.781 225.132 214.781C220.241 214.781 216.789 212.479 215.062 208.019L206.001 184.713L206.717 178.239L220.531 162.702L235.346 199.819L235.205 199.963Z" fill="currentColor"/>
</svg>
