<svg width="256" height="256" viewBox="0 0 256 256" fill="none" xmlns="http://www.w3.org/2000/svg">
<path d="M35.5205 162.702L49.3308 178.239L50.0509 184.713L40.9891 208.019C39.8382 210.753 37.9659 212.623 35.2325 213.918C32.499 215.212 29.7646 215.212 27.0312 214.061C24.1539 212.911 22.141 211.04 20.9901 208.163C19.6953 205.286 19.6951 202.552 20.846 199.963L35.6645 162.846L35.5205 162.702ZM223.696 129.038C225.278 136.231 223.694 142.705 218.659 148.316L196.071 173.923L192.763 205.286C192.331 208.019 191.036 210.177 189.022 212.047C187.008 213.774 184.706 214.781 181.973 214.781H180.681C177.803 214.349 175.358 212.91 173.631 210.753C171.761 208.451 171.04 205.861 171.327 202.696L174.636 171.622C175.355 167.162 177.083 163.134 180.105 159.825L194.635 143.28L188.878 119.399L186.578 126.448C185.283 130.764 182.404 134.361 178.088 137.238L160.825 148.316C159.531 149.179 157.518 149.754 155.072 150.042H101.123C98.6776 149.754 96.8053 149.323 95.3666 148.316L78.1037 137.238C74.0755 134.361 71.2004 130.764 69.6179 126.448L67.3139 119.399L61.5607 143.28L76.0911 159.825C78.9684 163.134 80.8369 167.162 81.5563 171.622L84.8648 202.696C85.1526 205.861 84.2906 208.595 82.5643 210.753C80.694 213.054 78.3924 214.349 75.5151 214.781H74.219C71.4856 214.781 69.1839 213.918 67.1698 212.047C65.1558 210.177 63.8608 208.019 63.4292 205.286L60.1206 173.923L37.533 148.316C32.6416 142.705 30.9174 136.231 32.4999 129.038L38.9731 101.991C40.5556 94.7981 44.7293 89.7629 51.4909 86.8856C57.9648 84.1522 64.2921 84.5838 70.3344 87.8927C78.3908 92.6402 84.0036 99.4018 86.8809 108.177L90.6215 119.687L96.0867 122.995V90.6261C96.0867 89.0436 96.6637 87.7488 97.6707 86.7417C98.6778 85.7347 99.9728 85.1592 101.555 85.1592H155.504C157.087 85.1592 158.382 85.7347 159.389 86.7417C160.396 87.7488 160.969 89.0436 160.969 90.6261V122.995L166.438 119.687L170.179 108.177C173.056 99.4018 178.521 92.6402 186.29 87.8927C192.332 84.5838 198.807 84.1522 205.569 86.8856C212.33 89.7629 216.501 94.7981 218.083 101.991L224.556 129.038H223.696ZM74.6511 69.7658C71.486 72.9308 67.7449 74.5133 63.1412 74.5133C58.5376 74.5133 54.7999 72.9308 51.6349 69.7658C48.4699 66.6008 46.8863 62.8603 46.8863 58.2567C46.8863 53.653 48.4699 49.9125 51.6349 46.7475C54.7999 43.5825 58.5376 42 63.1412 42C67.7449 42 71.486 43.5825 74.6511 46.7475C77.8161 49.9125 79.3997 53.653 79.3997 58.2567C79.3997 62.8603 77.8161 66.6008 74.6511 69.7658ZM204.129 69.7658C200.964 72.9308 197.223 74.5133 192.619 74.5133C188.015 74.5133 184.278 72.9308 181.113 69.7658C177.948 66.6008 176.364 62.8603 176.364 58.2567C176.364 53.653 177.948 49.9125 181.113 46.7475C184.278 43.5825 188.015 42 192.619 42C197.223 42 200.964 43.5825 204.129 46.7475C207.294 49.9125 208.877 53.653 208.877 58.2567C208.877 62.8603 207.294 66.6008 204.129 69.7658ZM235.206 199.963C236.356 202.696 236.212 205.43 235.062 208.163C233.767 211.04 231.894 212.911 229.161 214.061C227.866 214.493 226.427 214.781 225.132 214.781C220.241 214.781 216.789 212.479 215.062 208.019L206.001 184.713L206.717 178.239L220.531 162.702L235.346 199.819L235.206 199.963Z" fill="currentColor"/>
</svg>
