<svg width="256" height="256" viewBox="0 0 256 256" fill="none" xmlns="http://www.w3.org/2000/svg">
<path d="M220.825 124.452C224.144 127.77 224.144 133.533 220.825 136.852L159.756 197.922C154.321 203.357 144.875 199.353 144.875 191.722V156.847H95.4309C90.5549 156.847 86.75 153.043 86.75 148.167V113.292C86.75 108.415 90.5549 104.612 95.4309 104.612H144.875V69.7368C144.875 62.0775 154.329 58.1099 159.756 63.5368L220.825 124.607V124.452ZM67.875 217.457H104.41C107.355 217.457 108.75 216.062 108.75 213.117V198.547C108.75 195.602 107.355 194.207 104.41 194.207H67.875C61.5092 194.207 56.25 188.935 56.25 182.582V72.8318C56.25 66.4661 61.5214 61.2068 67.875 61.2068H104.41C107.355 61.2068 108.75 59.8118 108.75 56.8668V42.2968C108.75 39.3518 107.355 37.9568 104.41 37.9568H67.875C48.7957 37.9568 33 53.742 33 72.8318V182.582C33 201.616 48.79 217.457 67.875 217.457Z" fill="currentColor"/>
</svg>
