<svg width="256" height="256" viewBox="0 0 256 256" fill="none" xmlns="http://www.w3.org/2000/svg">
<path d="M220.825 124.452C224.144 127.771 224.144 133.533 220.825 136.852L159.756 197.922C154.321 203.358 144.875 199.353 144.875 191.722V156.847H95.4309C90.5549 156.847 86.75 153.043 86.75 148.167V113.292C86.75 108.416 90.5549 104.612 95.4309 104.612H144.875V69.7371C144.875 62.0777 154.329 58.1101 159.756 63.537L220.825 124.607V124.452ZM67.875 217.457H104.41C107.355 217.457 108.75 216.062 108.75 213.117V198.547C108.75 195.602 107.355 194.207 104.41 194.207H67.875C61.5092 194.207 56.25 188.936 56.25 182.582V72.832C56.25 66.4663 61.5214 61.207 67.875 61.207H104.41C107.355 61.207 108.75 59.8121 108.75 56.8671V42.2971C108.75 39.3521 107.355 37.957 104.41 37.957H67.875C48.7957 37.957 33 53.7423 33 72.832V182.582C33 201.617 48.79 217.457 67.875 217.457Z" fill="currentColor"/>
</svg>
