<svg width="256" height="256" viewBox="0 0 256 256" fill="none" xmlns="http://www.w3.org/2000/svg">
<path d="M233.122 206.864C235.102 208.843 236 211.181 236 214.058C236 216.936 235.102 219.274 233.122 221.252L221.243 233.122C219.263 235.101 216.921 236 214.041 236C211.161 236 208.822 235.101 206.842 233.122L164.721 191.038C162.741 189.059 161.842 186.721 161.842 183.844V177.009C146.002 189.419 128.002 195.534 107.842 195.534C83.7223 195.534 63.0232 186.901 45.7432 169.815C28.6432 152.73 20 132.047 20 107.767C20 83.4871 28.6432 62.984 45.7432 45.7184C62.8432 28.4528 83.5423 20 107.842 20C132.142 20 152.661 28.6327 169.941 45.7184C187.041 62.8042 195.68 83.4871 195.68 107.767C195.68 127.91 189.56 146.075 177.14 161.722H183.982C186.862 161.722 189.2 162.621 191.18 164.6L233.302 206.684L233.122 206.864ZM69.6802 145.895C80.3002 156.506 92.9023 161.722 107.842 161.722C122.782 161.722 135.56 156.506 146 145.895C156.44 135.284 161.842 122.694 161.842 107.767C161.842 92.8393 156.62 80.0701 146 69.6388C135.38 59.2075 122.782 53.8119 107.842 53.8119C92.9023 53.8119 80.1202 59.0276 69.6802 69.6388C59.2402 80.2499 53.8423 92.8393 53.8423 107.767C53.8423 122.694 59.0602 135.464 69.6802 145.895Z" fill="currentColor"/>
</svg>
