<svg width="256" height="256" viewBox="0 0 256 256" fill="none" xmlns="http://www.w3.org/2000/svg">
<path d="M168.321 164.599C170.481 163.52 172.82 161.722 175.16 159.204C193.52 162.621 208.1 167.477 219.26 173.952C230.42 180.426 236 187.62 236 195.534C236 206.864 225.381 216.396 204.321 224.129C183.261 232.043 157.7 236 128 236C98.3002 236 72.7404 232.043 51.6804 224.129C30.6204 216.216 20.0002 206.684 20.0002 195.534C20.0002 187.62 25.5807 180.426 36.7407 173.952C47.9007 167.477 62.4803 162.621 80.8403 159.204C83.0003 161.722 85.3404 163.52 87.6804 164.599V174.311C73.2804 176.289 61.9404 179.167 53.3004 182.944C44.6604 186.721 40.5205 190.857 40.5205 195.354C40.5205 201.828 49.1604 207.404 66.2604 212.08C83.3604 216.756 104.061 219.094 128.361 219.094C152.661 219.094 173.18 216.756 190.46 212.08C207.56 207.404 216.2 201.828 216.2 195.354C216.2 190.857 211.88 186.721 203.42 182.944C194.78 179.167 183.44 176.289 169.04 174.311V164.599H168.321ZM100.821 154.887C97.2206 154.887 93.9806 153.628 91.2806 150.93C88.5806 148.232 87.3206 145.176 87.3206 141.399V100.932C87.3206 95.3571 89.3004 90.5014 93.2604 86.5447C97.2204 82.588 101.9 80.6094 107.66 80.6094H112.7C117.56 82.9474 122.601 84.0266 127.821 84.0266C133.041 84.0266 138.261 82.9474 142.941 80.6094H147.981C153.561 80.6094 158.42 82.588 162.38 86.5447C166.34 90.5014 168.321 95.1773 168.321 100.932V141.399C168.321 144.996 167.061 148.232 164.361 150.93C161.661 153.628 158.601 154.887 154.821 154.887V195.354C154.821 198.951 153.561 202.187 150.861 204.885C148.161 207.583 145.101 208.842 141.321 208.842H114.321C110.721 208.842 107.481 207.583 104.781 204.885C102.081 202.187 100.821 199.131 100.821 195.354V154.887ZM147.08 66.2216C141.86 71.4372 135.561 73.955 127.821 73.955C120.081 73.955 113.78 71.4372 108.56 66.2216C103.34 61.0059 100.821 54.711 100.821 46.9775C100.821 39.2439 103.34 32.9491 108.56 27.7334C113.78 22.5178 120.081 20 127.821 20C135.561 20 141.86 22.5178 147.08 27.7334C152.3 32.9491 154.821 39.2439 154.821 46.9775C154.821 54.711 152.3 61.0059 147.08 66.2216Z" fill="currentColor"/>
</svg>
