<svg width="256" height="256" viewBox="0 0 256 256" fill="none" xmlns="http://www.w3.org/2000/svg">
<path d="M168.32 164.599C170.48 163.52 172.82 161.722 175.16 159.204C193.52 162.621 208.1 167.477 219.26 173.952C230.42 180.426 236 187.62 236 195.534C236 206.864 225.38 216.396 204.32 224.129C183.26 232.043 157.7 236 128 236C98.3 236 72.7402 232.043 51.6802 224.129C30.6202 216.216 20 206.684 20 195.534C20 187.62 25.5804 180.426 36.7404 173.952C47.9004 167.477 62.4801 162.621 80.8401 159.204C83.0001 161.722 85.3402 163.52 87.6802 164.599V174.311C73.2802 176.289 61.9401 179.167 53.3001 182.944C44.6601 186.721 40.5203 190.857 40.5203 195.354C40.5203 201.828 49.1601 207.404 66.2601 212.08C83.3601 216.756 104.06 219.094 128.36 219.094C152.66 219.094 173.18 216.756 190.46 212.08C207.56 207.404 216.2 201.828 216.2 195.354C216.2 190.857 211.88 186.721 203.42 182.944C194.78 179.167 183.44 176.289 169.04 174.311V164.599H168.32ZM100.82 154.887C97.2204 154.887 93.9804 153.628 91.2804 150.93C88.5804 148.232 87.3204 145.176 87.3204 141.399V100.932C87.3204 95.3571 89.3001 90.5014 93.2601 86.5447C97.2201 82.588 101.9 80.6094 107.66 80.6094H112.7C117.56 82.9474 122.6 84.0266 127.82 84.0266C133.04 84.0266 138.26 82.9474 142.94 80.6094H147.98C153.56 80.6094 158.42 82.588 162.38 86.5447C166.34 90.5014 168.32 95.1773 168.32 100.932V141.399C168.32 144.996 167.06 148.232 164.36 150.93C161.66 153.628 158.6 154.887 154.82 154.887V195.354C154.82 198.951 153.56 202.187 150.86 204.885C148.16 207.583 145.1 208.842 141.32 208.842H114.32C110.72 208.842 107.48 207.583 104.78 204.885C102.08 202.187 100.82 199.131 100.82 195.354V154.887ZM147.08 66.2216C141.86 71.4372 135.56 73.955 127.82 73.955C120.08 73.955 113.78 71.4372 108.56 66.2216C103.34 61.0059 100.82 54.711 100.82 46.9775C100.82 39.2439 103.34 32.9491 108.56 27.7334C113.78 22.5178 120.08 20 127.82 20C135.56 20 141.86 22.5178 147.08 27.7334C152.3 32.9491 154.82 39.2439 154.82 46.9775C154.82 54.711 152.3 61.0059 147.08 66.2216Z" fill="currentColor"/>
</svg>
