<svg width="256" height="256" viewBox="0 0 256 256" fill="none" xmlns="http://www.w3.org/2000/svg">
<path d="M30.9414 72.672C30.9414 66.857 33.2467 62.7526 37.714 60.7002L84.9815 38.2949V192.221L38.4352 217.534C36.5619 218.389 34.9788 218.047 33.3936 216.679C31.8084 215.311 31.0857 213.6 31.0857 211.548V72.8432L30.9414 72.672ZM95.7895 192.051V38.1243L160.638 63.7786V217.705L95.7895 192.051ZM217.992 38.4661C219.721 37.611 221.452 37.9533 223.037 39.3216C224.622 40.6898 225.341 42.3999 225.341 44.4522V183.157C225.341 188.972 223.036 193.077 218.569 195.129L171.301 217.534V63.6074L217.848 38.2949L217.992 38.4661Z" fill="currentColor"/>
</svg>
