<svg width="256" height="256" viewBox="0 0 256 256" fill="none" xmlns="http://www.w3.org/2000/svg">
<path fill-rule="evenodd" clip-rule="evenodd" d="M115.04 224.989C116.66 227.336 118.239 229.624 119.781 231.856H119.421C121.402 234.559 124.284 236 127.887 236C131.49 236 134.372 234.739 136.354 231.856C137.896 229.624 139.475 227.336 141.095 224.99C146.664 216.923 152.715 208.159 159.414 198.529C163.609 192.585 167.212 187.447 170.22 183.155C173.411 178.603 175.934 175.004 177.789 172.407C181.275 167.527 185.265 161.467 189.925 154.39L190.399 153.671C195.263 146.285 198.326 140.88 199.947 137.818C200.226 137.191 200.518 136.544 200.821 135.873C202.085 133.073 203.539 129.852 204.992 125.928C206.794 121.245 208.054 117.101 208.414 113.498C208.954 110.075 209.135 105.932 209.135 101.068C209.135 78.5488 201.208 59.4529 185.534 43.5996C169.681 27.9266 150.586 20 128.068 20C105.549 20 86.2694 27.7464 70.5963 43.5996C54.9233 59.4529 47 78.5488 47 101.068C47 105.752 47.361 109.895 47.7213 113.498C48.2618 116.921 49.3416 121.064 51.1431 125.928C52.9446 130.793 54.5665 134.755 56.1878 137.818C57.8092 140.88 60.8723 146.285 65.7363 153.671C70.4202 161.057 74.743 167.363 78.346 172.407C81.949 177.451 88.0744 186.099 96.7216 198.529C103.42 208.158 109.471 216.923 115.04 224.989ZM81.2928 106.178L112.953 137.471C113.843 138.517 114.976 139 116.353 139C117.729 139 118.862 138.517 119.753 137.471L175.703 82.0435C176.594 81.1586 177 80.0325 177 78.6649C177 77.2973 176.594 76.1707 175.703 75.2858L168.658 68.5285C167.767 67.4827 166.637 67 165.341 67C164.046 67 162.83 67.5631 161.858 68.5285L116.353 113.74L95.1381 92.6626C94.1665 91.6167 92.9545 91.134 91.659 91.134C90.3635 91.134 89.2287 91.6972 88.338 92.6626L81.2928 99.4198C80.4022 100.305 80 101.431 80 102.799C80 104.167 80.4022 105.293 81.2928 106.178Z" fill="currentColor"/>
</svg>
