<svg width="256" height="256" viewBox="0 0 256 256" fill="none" xmlns="http://www.w3.org/2000/svg">
<path d="M235.794 170.583V224.48C235.794 227.771 234.766 230.446 232.503 232.708C230.24 234.971 227.566 236 224.274 236H170.377C165.234 236 161.737 233.532 159.68 228.801C157.623 224.069 158.651 219.749 162.149 216.252L179.429 198.972L127.794 147.337L76.16 198.972L93.44 216.252C96.9371 219.749 97.76 224.069 95.9086 228.801C94.0571 233.532 90.3543 236 85.2114 236H31.52C28.2286 236 25.5543 234.971 23.2914 232.708C21.0286 230.446 20 227.771 20 224.48V170.583C20 165.44 22.4686 161.943 27.2 159.886C31.9314 157.829 36.2514 158.857 39.7486 162.355L57.0286 179.634L108.663 128L57.0286 76.3661L39.7486 93.6461C36.2514 97.1432 31.9314 97.966 27.2 96.1145C22.4686 94.2631 20 90.5605 20 85.4176V31.5199C20 28.2285 21.0286 25.5544 23.2914 23.2915C25.5543 21.0286 28.2286 20 31.52 20H85.4171C90.56 20 94.0571 22.4687 96.1143 27.2001C98.1714 31.9316 97.1429 36.2519 93.6457 39.749L76.3657 57.0289L128 108.663L179.634 57.0289L162.354 39.749C158.857 36.2519 158.034 31.9316 159.886 27.2001C161.737 22.4687 165.44 20 170.583 20H224.48C227.771 20 230.446 21.0286 232.709 23.2915C234.971 25.5544 236 28.2285 236 31.5199V85.4176C236 90.5605 233.531 94.0574 228.8 96.1145C224.069 98.1717 219.749 97.1432 216.251 93.6461L198.971 76.3661L147.337 128L198.971 179.634L216.251 162.355C219.749 158.857 224.069 158.035 228.8 159.886C233.531 161.738 236 165.44 236 170.583H235.794Z" fill="currentColor"/>
</svg>
