<svg width="256" height="256" viewBox="0 0 256 256" fill="none" xmlns="http://www.w3.org/2000/svg">
<path d="M20.0001 120.84C20.0001 96.72 30.6201 76.02 51.6801 58.74C72.7401 41.64 98.1201 33 128 33C157.88 33 183.26 41.64 204.32 58.74C225.38 75.84 236 96.54 236 120.84C236 145.14 225.38 165.66 204.32 182.94C183.26 200.04 157.7 208.68 128 208.68C112.16 208.68 97.2201 205.98 82.8201 200.58C64.4601 214.98 44.6601 222.18 23.4201 222.18C20.5098 222.18 19.3238 218.356 21.2601 216.42C31.7961 205.884 40.5227 190.37 44.3001 176.1C28.2801 160.08 20.1801 141.72 20.1801 120.84H20.0001ZM74.0001 134.34C81.3966 134.34 87.5001 128.236 87.5001 120.84C87.5001 113.444 81.3966 107.34 74.0001 107.34C66.6037 107.34 60.5001 113.444 60.5001 120.84C60.5001 128.236 66.6037 134.34 74.0001 134.34ZM128 134.34C135.397 134.34 141.5 128.236 141.5 120.84C141.5 113.444 135.397 107.34 128 107.34C120.604 107.34 114.5 113.444 114.5 120.84C114.5 128.236 120.604 134.34 128 134.34ZM182 134.34C189.397 134.34 195.5 128.236 195.5 120.84C195.5 113.444 189.397 107.34 182 107.34C174.604 107.34 168.5 113.444 168.5 120.84C168.5 128.236 174.604 134.34 182 134.34Z" fill="currentColor"/>
</svg>
