<svg width="256" height="256" viewBox="0 0 256 256" fill="none" xmlns="http://www.w3.org/2000/svg">
<path d="M20 120.84C20 96.72 30.62 76.02 51.68 58.74C72.74 41.64 98.12 33 128 33C157.88 33 183.26 41.64 204.32 58.74C225.38 75.84 236 96.54 236 120.84C236 145.14 225.38 165.66 204.32 182.94C183.26 200.04 157.7 208.68 128 208.68C112.16 208.68 97.22 205.98 82.82 200.58C64.46 214.98 44.66 222.18 23.42 222.18C21.98 222.18 21.08 221.46 20.54 220.02C20 218.58 20.18 217.5 21.26 216.42C22.16 215.52 23.96 213.54 26.3 210.48C28.64 207.6 31.88 202.56 35.84 195.72C39.8 188.88 42.68 182.22 44.3 176.1C28.28 160.08 20.18 141.72 20.18 120.84H20ZM64.46 130.38C67.16 133.08 70.22 134.34 74 134.34C77.78 134.34 80.84 133.08 83.54 130.38C86.24 127.68 87.5 124.62 87.5 120.84C87.5 117.06 86.24 114 83.54 111.3C80.84 108.6 77.78 107.34 74 107.34C70.22 107.34 67.16 108.6 64.46 111.3C61.76 114 60.5 117.06 60.5 120.84C60.5 124.62 61.76 127.68 64.46 130.38ZM118.46 130.38C121.16 133.08 124.22 134.34 128 134.34C131.78 134.34 134.84 133.08 137.54 130.38C140.24 127.68 141.5 124.62 141.5 120.84C141.5 117.06 140.24 114 137.54 111.3C134.84 108.6 131.78 107.34 128 107.34C124.22 107.34 121.16 108.6 118.46 111.3C115.76 114 114.5 117.06 114.5 120.84C114.5 124.62 115.76 127.68 118.46 130.38ZM172.46 130.38C175.16 133.08 178.22 134.34 182 134.34C185.78 134.34 188.84 133.08 191.54 130.38C194.24 127.68 195.5 124.62 195.5 120.84C195.5 117.06 194.24 114 191.54 111.3C188.84 108.6 185.78 107.34 182 107.34C178.22 107.34 175.16 108.6 172.46 111.3C169.76 114 168.5 117.06 168.5 120.84C168.5 124.62 169.76 127.68 172.46 130.38Z" fill="currentColor"/>
</svg>
