<svg width="256" height="256" viewBox="0 0 256 256" fill="none" xmlns="http://www.w3.org/2000/svg">
<path d="M128 47C177.626 47 218 79.328 218 119.063C218 163.316 171.704 190.712 128.81 190.712C111.377 190.712 98.354 187.139 89.264 184.916C80.264 190.433 74.918 194.249 50.816 201.296C55.631 188.939 57.314 176.564 56.225 162.911C48.692 153.911 38 141.311 38 119.063C38 79.328 78.374 47 128 47ZM128 29C70.958 29 20 67.034 20 119.063C20 137.513 26.651 155.63 38.423 169.688C38.918 186.158 29.216 209.792 20.486 227C43.904 222.77 77.195 213.428 92.288 204.176C105.041 207.281 117.254 208.703 128.819 208.703C192.575 208.703 236.009 165.17 236.009 119.054C236 66.755 184.691 29 128 29ZM87.959 120.359C90.173 122.852 91.28 125.948 91.28 129.665C91.28 134.426 89.408 138.287 85.664 141.266C81.92 144.236 76.7 145.721 70.004 145.721C64.271 145.721 59.195 144.614 54.794 142.418L57.26 132.671C61.706 134.912 66.197 136.046 70.769 136.046C73.406 136.046 75.458 135.542 76.943 134.543C79.778 132.617 79.949 128.729 77.15 126.515C75.809 125.462 73.514 124.391 70.229 123.302C60.356 120.008 55.424 114.869 55.424 107.858C55.424 103.331 57.242 99.605 60.86 96.671C64.496 93.746 69.347 92.279 75.386 92.279C80.66 92.279 85.25 93.17 89.201 94.961L86.51 104.402C82.901 102.719 79.13 101.882 75.224 101.882C72.821 101.882 70.94 102.35 69.581 103.259C66.89 105.095 66.944 108.389 69.266 110.342C70.4 111.305 73.118 112.556 77.456 114.086C82.244 115.769 85.736 117.866 87.959 120.359ZM197.804 120.17C195.563 117.65 191.999 115.508 187.175 113.816C182.9 112.304 180.191 111.053 179.084 110.126C176.897 108.281 176.843 105.221 179.372 103.484C180.686 102.593 182.54 102.152 184.853 102.152C189.029 102.152 192.683 103.088 196.319 104.807L199.163 94.808L198.965 94.7C194.996 92.909 190.307 92 185.015 92C178.94 92 173.99 93.494 170.327 96.455C166.637 99.425 164.765 103.268 164.765 107.858C164.765 114.977 169.823 120.251 179.795 123.563C183.008 124.661 185.303 125.714 186.608 126.74C189.236 128.819 189.128 132.473 186.41 134.309C184.997 135.281 182.981 135.767 180.407 135.767C175.466 135.767 171.029 134.462 166.709 132.257L164.099 142.58C169.04 145.037 174.197 146 179.651 146C186.392 146 191.711 144.488 195.482 141.482C199.28 138.476 201.206 134.498 201.206 129.665C201.206 125.903 200.063 122.717 197.804 120.17ZM138.008 93.125L126.956 128.828L117.83 93.125H101.711L98.417 144.875H109.478L111.314 103.097H111.476C111.476 103.097 117.794 128.999 122.078 144.02H131.357C138.503 122.249 142.706 108.596 143.948 103.097H144.182C144.182 110.414 144.587 124.337 145.406 144.875H157.088L154.307 93.125H138.008Z" fill="currentColor"/>
</svg>
