<svg width="256" height="256" viewBox="0 0 256 256" fill="none" xmlns="http://www.w3.org/2000/svg">
<path d="M189.948 102.875C191.779 102.875 193.276 103.541 194.441 104.705C195.606 105.87 196.271 107.368 196.271 109.198V127.834C196.271 144.972 190.614 159.947 179.299 172.925C167.985 185.904 153.843 193.391 137.038 195.72V209.032H158.834C160.664 209.032 162.162 209.697 163.326 210.862C164.491 212.027 165.157 213.524 165.157 215.354V221.677C165.157 223.508 164.491 225.005 163.326 226.17C162.162 227.334 160.664 228 158.834 228H96.4376C94.6073 228 93.1095 227.334 91.9448 226.17C90.78 225.005 90.1147 223.508 90.1147 221.677V215.354C90.1147 213.524 90.78 212.027 91.9448 210.862C93.1095 209.697 94.6073 209.032 96.4376 209.032H118.236V195.72C101.264 193.391 87.2865 185.404 75.972 171.76C64.6576 158.117 59 142.476 59 124.839V109.198C59 107.368 59.6653 105.87 60.83 104.705C61.9948 103.541 63.4926 102.875 65.3229 102.875H71.6458C73.476 102.875 74.9739 103.541 76.1386 104.705C77.3033 105.87 77.9686 107.368 77.9686 109.198V125.504C77.9686 138.815 82.2951 150.463 90.7809 160.612C99.2668 170.762 110.083 176.419 122.728 177.418C137.537 178.915 150.348 174.755 161.33 164.772C172.312 154.789 177.636 142.476 177.636 128V109.364C177.636 107.534 178.301 106.037 179.466 104.872C180.63 103.707 182.128 103.042 183.959 103.042H190.281L189.948 102.875ZM164.99 127.834C164.99 138.316 161.331 147.135 154.01 154.289C146.689 161.444 137.868 165.271 127.552 165.271C117.236 165.271 108.252 161.611 101.097 154.289C93.7759 146.968 90.1147 138.15 90.1147 127.834V65.4376C90.1147 55.1215 93.7759 46.1364 101.097 38.9816C108.418 31.8269 117.236 28 127.552 28C137.868 28 146.855 31.6605 154.01 38.9816C161.331 46.3028 164.99 55.1215 164.99 65.4376V127.834Z" fill="currentColor"/>
</svg>
