<svg width="256" height="256" viewBox="0 0 256 256" fill="none" xmlns="http://www.w3.org/2000/svg">
<path d="M211.261 38C215.854 38 219.851 39.6416 223.11 42.9252C226.369 46.2088 228 50.0892 228 54.8653V166.806C228 171.432 226.369 175.463 223.11 178.746C219.851 182.03 216.002 183.671 211.261 183.671H144.594L150.222 200.388H175.258C177.629 200.388 179.553 201.134 181.183 202.776C182.812 204.418 183.556 206.358 183.556 208.746C183.556 211.134 182.812 213.075 181.183 214.716C179.553 216.358 177.629 217.104 175.258 217.104H80.7416C78.3712 217.104 76.4468 216.358 74.8171 214.716C73.1875 213.075 72.4444 211.134 72.4444 208.746C72.4444 206.358 73.1875 204.418 74.8171 202.776C76.4468 201.134 78.3712 200.388 80.7416 200.388H105.778L111.406 183.671H44.739C40.1464 183.671 36.1493 182.03 32.89 178.746C29.6308 175.463 28 171.582 28 166.806V54.8653C28 50.2384 29.6308 46.2088 32.89 42.9252C36.1493 39.6416 39.9983 38 44.739 38H211.406H211.261ZM205.626 161.134V60.3881H50.0703V161.134H205.626Z" fill="currentColor"/>
</svg>
