<svg width="256" height="256" viewBox="0 0 256 256" fill="none" xmlns="http://www.w3.org/2000/svg">
<path fill-rule="evenodd" clip-rule="evenodd" d="M97.151 154.238V105.475C97.151 94.827 92.1497 89.503 82.147 89.503H66.054C56.0513 89.503 51.05 94.827 51.05 105.475V154.238C51.05 164.886 56.0513 170.21 66.054 170.21H82.147C92.1497 170.21 97.151 164.886 97.151 154.238ZM80.211 103.418V156.174C80.211 157.402 79.1675 158.594 77.912 158.594H70.289C68.9447 158.594 67.99 157.478 67.99 156.174V103.418C67.99 102.114 68.9447 100.998 70.289 100.998H77.912C79.1675 100.998 80.211 102.19 80.211 103.418Z" fill="currentColor"/>
<path d="M105.182 90.713V105.112H117.887V169H134.827V105.112H147.532V90.713H105.182Z" fill="currentColor"/>
<path d="M172.211 169V138.266H185.642V169H202.582V90.713H185.642V123.504H172.211V90.713H155.271V169H172.211Z" fill="currentColor"/>
<path fill-rule="evenodd" clip-rule="evenodd" d="M14 128.412C14 191.032 65.5849 242.825 128.253 242.825C190.92 242.825 242.505 191.032 242.505 128.412C242.505 65.7922 190.92 14 128.253 14C65.5229 14 14 65.7655 14 128.412ZM35.8279 128.412C35.8279 77.7962 77.3526 36.0554 128.056 36.0554C178.684 36.0554 220.284 77.8095 220.284 128.412C220.284 179.028 178.759 220.769 128.056 220.769C77.4013 220.769 35.8279 179.077 35.8279 128.412Z" fill="currentColor"/>
</svg>
