<svg width="256" height="256" viewBox="0 0 256 256" fill="none" xmlns="http://www.w3.org/2000/svg">
<path d="M227.294 59.8917L197.005 201.829C194.528 211.927 189.191 214.594 180.427 209.831L134.513 175.918L112.219 197.257C109.171 200.305 106.123 201.639 102.884 201.639L106.508 154.77L191.86 77.9913C193.956 75.8956 193.956 74.7525 191.86 74.3714C190.146 73.7999 188.049 74.3716 186.144 75.7052L80.7854 142.197L35.2531 127.908C30.1091 126.383 27.8204 124.096 28.011 121.239C28.392 118.19 31.4401 115.714 37.3463 113.619L214.531 44.841C218.913 43.3169 222.534 43.8876 225.201 46.3643C227.869 48.8411 228.628 53.2231 227.485 59.5103L227.294 59.8917Z" fill="currentColor"/>
</svg>
