<svg width="256" height="256" viewBox="0 0 256 256" fill="none" xmlns="http://www.w3.org/2000/svg">
<path d="M94.3366 210.842H65.8328C56.0349 210.842 48 202.798 48 193.011V62.8309C48 53.0321 56.0472 45 65.8328 45H94.3366C104.137 45 112.166 53.0438 112.166 62.8309V193.011C112.166 202.811 104.124 210.842 94.3366 210.842ZM208.684 193.169C208.684 202.969 200.643 211 190.855 211H162.352C152.554 211 144.519 202.955 144.519 193.169V62.9886C144.519 53.1898 152.566 45.1577 162.352 45.1577H190.855C200.656 45.1577 208.684 53.2015 208.684 62.9886V193.169Z" fill="currentColor"/>
</svg>
