<svg width="256" height="256" viewBox="0 0 256 256" fill="none" xmlns="http://www.w3.org/2000/svg">
<path d="M196.579 66.9184C200.193 70.5454 202 74.8318 202 80.1074V208.371C202 218.606 193.628 227 183.438 227H72.5616C62.3593 227 54 218.593 54 208.371V47.6295C54 37.3942 62.3722 29 72.5616 29H151.079C156.171 29 160.606 30.8135 164.22 34.4405L196.579 66.9184ZM72.5616 208.371H183.438V97.0883H143.358C138.19 97.0883 134.16 93.0413 134.16 87.8559V47.6295H72.5616V208.371ZM144.18 150.339C151.938 149.268 175.729 146.843 170.79 161.714C166.745 173.895 147.689 164.984 140.73 161.055C136.952 161.879 128.082 164.352 114.12 168.803C104.1 186.279 95.7225 192.873 88.6593 188.587C85.5383 186.774 84.2242 184.136 84.8812 180.838C86.1953 175.233 92.7658 169.298 104.593 163.033C108.699 155.779 113.299 146.217 118.391 134.512C116.401 127.024 108.992 102.657 123.811 103.188C137.183 104.147 131.783 124.81 129.889 132.534C133.01 140.447 137.774 146.382 144.18 150.339ZM104.1 169.298C97.3652 175.728 93.5871 180.179 92.6016 182.817C93.7407 182.817 97.7973 178.327 98.1865 177.871C105.66 169.746 104.1 168.673 104.1 169.298ZM124.14 140.777C120.855 149.844 117.569 156.933 114.448 162.044C125.947 157.593 133.01 155.285 135.638 154.625C131.039 151.328 127.097 146.712 124.14 140.777ZM124.14 109.453C122.304 111.295 123.483 118.685 123.483 118.685C123.483 118.685 124.14 123.301 124.797 124.95C125.618 123.466 125.947 120.499 125.947 116.047C125.947 111.596 125.454 109.453 124.14 109.453ZM165.37 160.066C166.684 159.241 166.027 158.582 163.234 157.758C160.442 156.933 156.499 156.769 151.079 156.933C154.693 158.417 157.649 159.571 160.113 160.066C161.999 160.444 163.592 160.78 165.37 160.066ZM181.96 78.4588L152.721 49.1132V78.4588H181.96Z" fill="currentColor"/>
</svg>
