<svg width="256" height="256" viewBox="0 0 256 256" fill="none" xmlns="http://www.w3.org/2000/svg">
<path d="M138.832 67.1068C141.161 64.777 143.323 64.777 145.485 67.1068L188.739 110.374C191.068 112.537 191.068 114.701 188.739 117.03L86.5946 219.207L39.0161 227.861C35.8552 228.36 33.1937 227.528 30.8646 225.198C28.5356 222.868 27.5369 220.206 28.2023 217.044L36.8533 169.45L138.998 67.2732L138.832 67.1068ZM62.4723 193.413V174.775H48.4987L43.8401 199.737L56.3171 212.218L81.271 207.558V193.58H62.6388L62.4723 193.413ZM76.4469 152.809C73.7852 155.472 73.7852 157.968 76.4469 160.63C79.1087 163.293 81.6036 163.293 84.2653 160.63L144.321 100.556C146.983 97.893 146.983 95.3968 144.321 92.7342C141.659 90.0716 139.164 90.0716 136.502 92.7342L76.4469 152.809ZM222.343 83.4152L204.377 101.388C202.048 103.717 199.885 103.717 197.722 101.388L154.469 58.1205C152.14 56.1236 152.14 53.7938 154.469 51.4641L172.436 33.4916C176.095 29.8305 180.422 28 185.745 28C191.069 28 195.394 29.8305 199.054 33.4916L222.51 56.9557C226.17 60.6167 228 64.9434 228 70.2686C228 75.5938 226.17 79.9205 222.51 83.5816L222.343 83.4152Z" fill="currentColor"/>
</svg>
