<svg width="256" height="256" viewBox="0 0 256 256" fill="none" xmlns="http://www.w3.org/2000/svg">
<path d="M124.441 111.538C119.873 121.421 128.235 132.367 138.92 130.491L209.029 118.185C213.417 117.414 216.293 113.134 215.357 108.763L214.218 103.446C213.339 99.3414 209.403 96.6589 205.276 97.351L151.634 106.346L166.739 69.7777L183.779 77.3667C190.883 80.5301 198.384 73.3032 195.604 66.0344L180.864 27.4949C179.095 22.8674 174.116 20.6502 169.504 22.4356L131.093 37.305C123.875 40.0991 123.515 50.5281 130.63 53.6965L147.67 61.2854L124.441 111.538Z" fill="currentColor"/>
<path d="M218 172.938C218 169.188 216.2 166.488 212.75 165.138L212.901 165.288L173.601 148.488C172.701 148.038 171.651 147.737 170.451 147.737C167.751 147.737 165.5 148.788 163.7 150.888L146.45 172.038C118.1 158.838 97.2512 138.138 84.2012 109.788L105.35 92.5374C107.45 90.5874 108.501 88.3381 108.501 85.7881C108.501 84.5881 108.2 83.5378 107.75 82.6378L90.9504 43.3379C89.4504 39.8879 86.9001 38.0873 83.1501 38.0873C82.4001 38.0873 81.3502 38.3876 81.3502 38.3876L44.7511 46.7876C40.2511 47.6876 38 50.3872 38 54.8872C38 99.8872 53.901 138.437 85.851 170.237C117.801 202.187 156.2 218.087 201.2 218.087C205.7 218.087 208.401 215.838 209.301 211.338L217.7 174.738C218 174.288 218 173.688 218 172.938Z" fill="currentColor"/>
</svg>
