<svg width="256" height="256" viewBox="0 0 256 256" fill="none" xmlns="http://www.w3.org/2000/svg">
<path d="M47 74C50.6 74 53.84 75.2595 56.54 77.9595C59.24 80.6595 60.5 83.72 60.5 87.5V222.5C60.5 226.1 59.24 229.341 56.54 232.041C53.84 234.741 50.78 236 47 236H33.5C29.9 236 26.66 234.741 23.96 232.041C21.26 229.341 20 226.28 20 222.5V87.5C20 83.9 21.26 80.6595 23.96 77.9595C26.66 75.2595 29.72 74 33.5 74H47ZM222.5 87.5C226.1 87.5 229.34 88.7595 232.04 91.4595C234.74 94.1595 236 97.22 236 101V222.5C236 226.1 234.74 229.341 232.04 232.041C229.34 234.741 226.28 236 222.5 236H87.5C83.9 236 80.66 234.741 77.96 232.041C75.26 229.341 74 226.28 74 222.5V33.5C74 29.9 75.26 26.6595 77.96 23.9595C80.66 21.2595 83.72 20 87.5 20H190.1C193.7 20 196.94 21.2604 199.46 23.7804L218.9 43.2196C221.42 45.7396 222.68 48.8 222.68 52.58V87.6802L222.5 87.5ZM195.5 101V74H175.34C173.36 74 171.74 73.2803 170.48 72.0203C169.22 70.7603 168.5 69.1399 168.5 67.1599V47H101V101H195.5ZM141.5 148.16V134.66C141.5 132.68 140.78 131.06 139.52 129.8C138.26 128.54 136.64 127.82 134.66 127.82H121.16C119.18 127.82 117.56 128.54 116.3 129.8C115.04 131.06 114.32 132.68 114.32 134.66V148.16C114.32 150.14 115.04 151.76 116.3 153.02C117.56 154.28 119.18 155 121.16 155H134.66C136.64 155 138.26 154.28 139.52 153.02C140.78 151.76 141.5 150.14 141.5 148.16ZM141.5 202.16V188.66C141.5 186.68 140.78 185.06 139.52 183.8C138.26 182.54 136.64 181.82 134.66 181.82H121.16C119.18 181.82 117.56 182.54 116.3 183.8C115.04 185.06 114.32 186.68 114.32 188.66V202.16C114.32 204.14 115.04 205.76 116.3 207.02C117.56 208.28 119.18 209 121.16 209H134.66C136.64 209 138.26 208.28 139.52 207.02C140.78 205.76 141.5 204.14 141.5 202.16ZM195.5 148.16V134.66C195.5 132.68 194.78 131.06 193.52 129.8C192.26 128.54 190.64 127.82 188.66 127.82H175.16C173.18 127.82 171.56 128.54 170.3 129.8C169.04 131.06 168.32 132.68 168.32 134.66V148.16C168.32 150.14 169.04 151.76 170.3 153.02C171.56 154.28 173.18 155 175.16 155H188.66C190.64 155 192.26 154.28 193.52 153.02C194.78 151.76 195.5 150.14 195.5 148.16ZM195.5 202.16V188.66C195.5 186.68 194.78 185.06 193.52 183.8C192.26 182.54 190.64 181.82 188.66 181.82H175.16C173.18 181.82 171.56 182.54 170.3 183.8C169.04 185.06 168.32 186.68 168.32 188.66V202.16C168.32 204.14 169.04 205.76 170.3 207.02C171.56 208.28 173.18 209 175.16 209H188.66C190.64 209 192.26 208.28 193.52 207.02C194.78 205.76 195.5 204.14 195.5 202.16Z" fill="currentColor"/>
</svg>
