<svg width="256" height="256" viewBox="0 0 256 256" fill="none" xmlns="http://www.w3.org/2000/svg">
<path d="M20.1796 69.5281C20.1796 67.3708 20.8977 65.3932 22.334 64.1348C41.3645 45.0786 63.8059 32.1348 89.4791 25.1236C115.152 18.2921 140.826 18.2921 166.499 25.1236C192.172 31.9551 214.614 45.0786 233.644 64.1348C236.517 67.0112 236.697 70.2471 234.542 73.8426L216.409 102.966C214.973 105.303 212.818 106.382 209.587 106.382C208.689 106.382 207.971 106.382 207.073 106.023L170.449 91.2808C167.397 90.2021 165.781 87.6854 165.781 84.0899V83.7303L168.294 58.3819C141.364 48.4942 114.434 48.4942 87.5045 58.3819L90.0177 83.7303V84.0899C90.0177 87.6854 88.4017 90.2021 85.3497 91.2808L48.7253 106.023C48.7253 106.023 47.1093 106.382 46.2116 106.382C43.1595 106.382 40.8255 105.303 39.3893 102.966L21.2568 73.8426C20.3591 72.4044 19.9999 70.9662 19.9999 69.7078L20.1796 69.5281ZM60.5746 150.067C60.5746 153.483 58.9588 155.101 55.5477 155.101H38.6715C35.2604 155.101 33.6446 153.483 33.6446 150.067V133.168C33.6446 129.753 35.2604 128.135 38.6715 128.135H55.5477C58.9588 128.135 60.5746 129.753 60.5746 133.168V150.067ZM60.5746 230.966C60.5746 234.382 58.9588 236 55.5477 236H38.6715C35.2604 236 33.6446 234.382 33.6446 230.966V214.067C33.6446 210.652 35.2604 209.034 38.6715 209.034H55.5477C58.9588 209.034 60.5746 210.652 60.5746 214.067V230.966ZM80.6822 190.517C80.6822 193.933 79.0664 195.551 75.6553 195.551H58.7791C55.368 195.551 53.7522 193.933 53.7522 190.517V173.618C53.7522 170.202 55.368 168.584 58.7791 168.584H75.6553C79.0664 168.584 80.6822 170.202 80.6822 173.618V190.517ZM100.79 150.067C100.79 153.483 99.174 155.101 95.7629 155.101H78.8867C75.4756 155.101 73.8598 153.483 73.8598 150.067V133.168C73.8598 129.753 75.4756 128.135 78.8867 128.135H95.7629C99.174 128.135 100.79 129.753 100.79 133.168V150.067ZM181.58 230.966C181.58 234.382 179.964 236 176.553 236H78.8867C75.4756 236 73.8598 234.382 73.8598 230.966V214.067C73.8598 210.652 75.4756 209.034 78.8867 209.034H176.553C179.964 209.034 181.58 210.652 181.58 214.067V230.966ZM120.897 190.517C120.897 193.933 119.282 195.551 115.871 195.551H98.9944C95.5832 195.551 93.9675 193.933 93.9675 190.517V173.618C93.9675 170.202 95.5832 168.584 98.9944 168.584H115.871C119.282 168.584 120.897 170.202 120.897 173.618V190.517ZM141.005 150.067C141.005 153.483 139.389 155.101 135.978 155.101H119.102C115.691 155.101 114.075 153.483 114.075 150.067V133.168C114.075 129.753 115.691 128.135 119.102 128.135H135.978C139.389 128.135 141.005 129.753 141.005 133.168V150.067ZM161.113 190.517C161.113 193.933 159.497 195.551 156.086 195.551H139.21C135.798 195.551 134.183 193.933 134.183 190.517V173.618C134.183 170.202 135.798 168.584 139.21 168.584H156.086C159.497 168.584 161.113 170.202 161.113 173.618V190.517ZM181.221 150.067C181.221 153.483 179.605 155.101 176.194 155.101H159.318C155.907 155.101 154.291 153.483 154.291 150.067V133.168C154.291 129.753 155.907 128.135 159.318 128.135H176.194C179.605 128.135 181.221 129.753 181.221 133.168V150.067ZM201.328 190.517C201.328 193.933 199.713 195.551 196.301 195.551H179.425C176.014 195.551 174.398 193.933 174.398 190.517V173.618C174.398 170.202 176.014 168.584 179.425 168.584H196.301C199.713 168.584 201.328 170.202 201.328 173.618V190.517ZM221.436 150.067C221.436 153.483 219.82 155.101 216.409 155.101H199.533C196.122 155.101 194.506 153.483 194.506 150.067V133.168C194.506 129.753 196.122 128.135 199.533 128.135H216.409C219.82 128.135 221.436 129.753 221.436 133.168V150.067ZM221.436 230.966C221.436 234.382 219.82 236 216.409 236H199.533C196.122 236 194.506 234.382 194.506 230.966V214.067C194.506 210.652 196.122 209.034 199.533 209.034H216.409C219.82 209.034 221.436 210.652 221.436 214.067V230.966Z" fill="currentColor"/>
</svg>
