<svg width="256" height="256" viewBox="0 0 256 256" fill="none" xmlns="http://www.w3.org/2000/svg">
<path d="M218 172.851C218 169.101 216.2 166.4 212.75 165.05L212.901 165.201L173.601 148.401C172.701 147.951 171.651 147.65 170.451 147.65C167.751 147.65 165.5 148.7 163.7 150.8L146.45 171.951C118.1 158.751 97.2512 138.05 84.2012 109.7L105.35 92.4501C107.45 90.5001 108.501 88.2508 108.501 85.7008C108.501 84.5008 108.2 83.4505 107.75 82.5505L90.9504 43.2505C89.4504 39.8005 86.9001 38 83.1501 38C82.4001 38 81.3502 38.3003 81.3502 38.3003L44.7511 46.7003C40.2511 47.6003 38 50.2999 38 54.7999C38 99.7999 53.901 138.35 85.851 170.15C117.801 202.1 156.2 218 201.2 218C205.7 218 208.401 215.751 209.301 211.251L217.7 174.651C218 174.201 218 173.601 218 172.851Z" fill="currentColor"/>
<path d="M126.599 93.6844L156.747 123.537C157.596 124.535 158.674 124.995 159.985 124.995C161.296 124.995 162.375 124.535 163.223 123.537L216.502 70.6618C217.35 69.8176 217.737 68.7433 217.737 67.4387C217.737 66.1341 217.35 65.0594 216.502 64.2152L209.793 57.7692C208.945 56.7715 207.868 56.311 206.634 56.311C205.401 56.311 204.243 56.8482 203.318 57.7692L159.985 100.898L139.783 80.7918C138.858 79.7941 137.704 79.3336 136.47 79.3336C135.237 79.3336 134.156 79.8709 133.308 80.7918L126.599 87.2378C125.751 88.082 125.368 89.1567 125.368 90.4613C125.368 91.7659 125.751 92.8402 126.599 93.6844Z" fill="currentColor"/>
</svg>
