<svg width="256" height="256" viewBox="0 0 256 256" fill="none" xmlns="http://www.w3.org/2000/svg">
<path fill-rule="evenodd" clip-rule="evenodd" d="M173 135C202.271 135 226 111.047 226 81.5C226 51.9528 202.271 28 173 28C143.729 28 120 51.9528 120 81.5C120 111.047 143.729 135 173 135ZM173 119.644C193.869 119.644 210.787 102.566 210.787 81.5C210.787 74.143 208.724 67.2725 205.149 61.446L151.897 113.145C157.923 117.248 165.184 119.644 173 119.644ZM194.019 49.7972L140.618 101.169C137.187 95.4259 135.213 88.6957 135.213 81.5C135.213 60.4339 152.131 43.3565 173 43.3565C180.779 43.3565 188.009 45.7294 194.019 49.7972Z" fill="currentColor"/>
<path d="M217.636 172.893C217.636 169.146 215.84 166.449 212.397 165.1L212.547 165.25L173.327 148.466C172.428 148.016 171.381 147.716 170.184 147.716C167.489 147.716 165.242 148.765 163.446 150.863L146.231 171.994C117.938 158.806 97.1315 138.125 84.1078 109.801L105.214 92.5672C107.31 90.619 108.359 88.3719 108.359 85.8243C108.359 84.6254 108.059 83.576 107.609 82.6769L90.8435 43.4136C89.3465 39.9668 86.8014 38.168 83.0589 38.168C82.3104 38.168 81.2626 38.468 81.2626 38.468L44.7375 46.8601C40.2466 47.7593 38 50.4564 38 54.9522C38 99.9102 53.8688 138.424 85.7543 170.195C117.64 202.115 155.961 218 200.87 218C205.361 218 208.056 215.753 208.955 211.257L217.337 174.691C217.636 174.242 217.636 173.642 217.636 172.893Z" fill="currentColor"/>
</svg>
