<svg width="256" height="256" viewBox="0 0 256 256" fill="none" xmlns="http://www.w3.org/2000/svg">
<path d="M153.754 100.696C149.846 96.7886 144.887 93.9326 139.025 92.2794C137.071 91.8285 135.418 91.9789 134.065 93.3315C132.562 94.5339 131.811 96.1874 131.51 98.2915L131.51 102.499C131.51 105.505 133.013 107.308 135.719 108.21C138.274 108.961 140.529 110.315 142.332 112.118C144.136 113.922 145.488 116.176 146.239 118.731C147.291 121.586 149.245 122.939 151.951 122.939L156.158 122.939C158.262 122.638 159.765 121.737 161.118 120.384C162.32 118.881 162.621 117.378 162.17 115.424C160.517 109.563 157.662 104.604 153.754 100.696Z" fill="currentColor"/>
<path d="M139.025 59.8156C134.967 59.3647 132.712 61.3184 132.412 65.8272V70.0358C132.261 73.4926 133.915 75.4468 137.372 75.5971C148.043 76.9497 157.511 81.6088 165.176 89.2738C172.841 96.9387 177.349 106.256 178.852 117.077C179.003 120.534 180.806 122.338 184.413 122.038H188.622C192.981 121.887 195.085 119.783 194.634 115.424C192.68 100.846 186.668 88.5225 176.298 78.1523C165.928 67.782 153.604 61.7694 139.025 59.8156Z" fill="currentColor"/>
<path d="M139.476 27.8035C135.418 27.3526 133.163 29.3064 132.863 33.8151L133.163 37.7229C133.013 41.7808 134.817 43.8848 138.574 43.7346C157.812 45.5381 174.344 53.353 187.87 66.8793C201.396 80.4057 209.212 96.9384 211.016 116.176C211.016 120.084 213.12 121.887 217.027 121.587L220.934 121.887C225.293 121.736 227.398 119.633 226.947 115.274C224.692 91.9788 215.524 72.2901 198.991 55.7578C182.459 39.2256 162.621 29.9076 139.476 27.8035Z" fill="currentColor"/>
<path d="M217.918 172.871C217.918 169.123 216.119 166.424 212.671 165.075L212.821 165.225L173.539 148.432C172.639 147.983 171.59 147.682 170.391 147.682C167.692 147.682 165.442 148.732 163.643 150.831L146.4 171.972C118.063 158.778 97.2241 138.087 84.1801 109.75L105.319 92.5073C107.418 90.5581 108.469 88.3099 108.469 85.7611C108.469 84.5616 108.168 83.5118 107.719 82.6122L90.9263 43.3302C89.427 39.8818 86.8778 38.082 83.1295 38.082C82.3799 38.082 81.3304 38.3822 81.3304 38.3822L44.748 46.7783C40.2501 47.6779 38 50.3763 38 54.8743C38 99.8538 53.8937 138.386 85.8291 170.172C117.765 202.107 156.146 218 201.126 218C205.624 218 208.323 215.752 209.222 211.254L217.618 174.67C217.918 174.221 217.918 173.621 217.918 172.871Z" fill="currentColor"/>
</svg>
