<svg width="256" height="256" viewBox="0 0 256 256" fill="none" xmlns="http://www.w3.org/2000/svg">
<path d="M124.441 111.538C119.873 121.421 128.235 132.366 138.92 130.491L209.029 118.184C213.417 117.414 216.293 113.133 215.357 108.763L214.218 103.446C213.339 99.3411 209.403 96.6586 205.276 97.3507L151.634 106.346L166.739 69.7775L183.779 77.3664C190.883 80.5299 198.384 73.303 195.604 66.0341L180.864 27.4946C179.095 22.8671 174.116 20.65 169.504 22.4353L131.093 37.3048C123.875 40.0989 123.515 50.5279 130.63 53.6962L147.67 61.2852L124.441 111.538Z" fill="currentColor"/>
<path d="M218 172.938C218 169.188 216.2 166.488 212.75 165.138L212.901 165.288L173.601 148.488C172.701 148.038 171.651 147.737 170.451 147.737C167.751 147.737 165.5 148.787 163.7 150.887L146.45 172.038C118.1 158.838 97.2512 138.138 84.2012 109.788L105.35 92.5371C107.45 90.5871 108.501 88.3379 108.501 85.7879C108.501 84.5879 108.2 83.5375 107.75 82.6375L90.9504 43.3376C89.4504 39.8876 86.9001 38.0871 83.1501 38.0871C82.4001 38.0871 81.3502 38.3874 81.3502 38.3874L44.7511 46.7873C40.2511 47.6873 38 50.387 38 54.887C38 99.887 53.901 138.437 85.851 170.237C117.801 202.187 156.2 218.087 201.2 218.087C205.7 218.087 208.401 215.838 209.301 211.338L217.7 174.738C218 174.288 218 173.688 218 172.938Z" fill="currentColor"/>
</svg>
