<svg width="256" height="256" viewBox="0 0 256 256" fill="none" xmlns="http://www.w3.org/2000/svg">
<path d="M140.548 111.066L162.986 88.6492L162.899 88.8232L185.295 111.198C187.836 113.736 191.917 113.464 194.519 111.189L199.049 106.663C201.334 104.055 201.606 99.9927 199.059 97.4477L176.749 75.0728L199.187 52.6563C201.726 50.1204 201.477 46.0447 199.197 43.4409L194.676 38.9247C192.062 36.6401 187.997 36.3913 185.452 38.9342L163.014 61.1768L140.618 38.802C138.077 36.264 133.996 36.5356 131.394 38.8115L126.864 43.3369C124.579 45.945 124.307 50.0073 126.854 52.5523L149.251 74.9271L126.813 97.3436C124.274 99.8795 124.523 103.955 126.803 106.559L131.324 111.075C133.938 113.36 138.003 113.609 140.548 111.066Z" fill="currentColor"/>
<path d="M201.918 172.92C201.918 169.171 200.119 166.472 196.671 165.123L196.821 165.273L157.539 148.481C156.639 148.031 155.59 147.73 154.391 147.73C151.692 147.73 149.442 148.78 147.643 150.879L130.4 172.02C102.063 158.826 81.2241 138.135 68.1801 109.798L89.3191 92.5556C91.4182 90.6065 92.4689 88.3582 92.4689 85.8094C92.4689 84.61 92.1683 83.5601 91.7185 82.6605L74.9263 43.3785C73.427 39.9301 70.8778 38.1304 67.1295 38.1304C66.3799 38.1304 65.3304 38.4305 65.3304 38.4305L28.748 46.8267C24.2501 47.7262 22 50.4247 22 54.9226C22 99.9021 37.8937 138.435 69.8291 170.22C101.765 202.155 140.146 218.048 185.126 218.048C189.624 218.048 192.323 215.8 193.222 211.302L201.618 174.719C201.918 174.269 201.918 173.669 201.918 172.92Z" fill="currentColor"/>
</svg>
