<svg width="256" height="256" viewBox="0 0 256 256" fill="none" xmlns="http://www.w3.org/2000/svg">
<path d="M20.1797 69.5281C20.1797 67.3708 20.8978 65.3932 22.334 64.1348C41.3645 45.0786 63.806 32.1348 89.4792 25.1236C115.152 18.2921 140.826 18.2921 166.499 25.1236C192.172 31.9551 214.614 45.0786 233.644 64.1348C236.517 67.0112 236.697 70.2471 234.542 73.8426L216.409 102.966C214.973 105.303 212.818 106.382 209.587 106.382C208.689 106.382 207.971 106.382 207.073 106.023L170.449 91.2808C167.397 90.2021 165.781 87.6854 165.781 84.0899V83.7303L168.294 58.3819C141.365 48.4942 114.435 48.4942 87.5046 58.3819L90.0178 83.7303V84.0899C90.0178 87.6854 88.4018 90.2021 85.3497 91.2808L48.7254 106.023C48.7254 106.023 47.1093 106.382 46.2117 106.382C43.1596 106.382 40.8256 105.303 39.3893 102.966L21.2569 73.8426C20.3592 72.4044 20 70.9662 20 69.7078L20.1797 69.5281ZM60.5746 150.067C60.5746 153.483 58.9589 155.101 55.5477 155.101H38.6716C35.2605 155.101 33.6447 153.483 33.6447 150.067V133.168C33.6447 129.753 35.2605 128.135 38.6716 128.135H55.5477C58.9589 128.135 60.5746 129.753 60.5746 133.168V150.067ZM60.5746 230.966C60.5746 234.382 58.9589 236 55.5477 236H38.6716C35.2605 236 33.6447 234.382 33.6447 230.966V214.067C33.6447 210.652 35.2605 209.034 38.6716 209.034H55.5477C58.9589 209.034 60.5746 210.652 60.5746 214.067V230.966ZM80.6823 190.517C80.6823 193.933 79.0665 195.551 75.6553 195.551H58.7792C55.3681 195.551 53.7523 193.933 53.7523 190.517V173.618C53.7523 170.202 55.3681 168.584 58.7792 168.584H75.6553C79.0665 168.584 80.6823 170.202 80.6823 173.618V190.517ZM100.79 150.067C100.79 153.483 99.1741 155.101 95.763 155.101H78.8868C75.4757 155.101 73.8599 153.483 73.8599 150.067V133.168C73.8599 129.753 75.4757 128.135 78.8868 128.135H95.763C99.1741 128.135 100.79 129.753 100.79 133.168V150.067ZM181.58 230.966C181.58 234.382 179.964 236 176.553 236H78.8868C75.4757 236 73.8599 234.382 73.8599 230.966V214.067C73.8599 210.652 75.4757 209.034 78.8868 209.034H176.553C179.964 209.034 181.58 210.652 181.58 214.067V230.966ZM120.897 190.517C120.897 193.933 119.282 195.551 115.871 195.551H98.9944C95.5833 195.551 93.9675 193.933 93.9675 190.517V173.618C93.9675 170.202 95.5833 168.584 98.9944 168.584H115.871C119.282 168.584 120.897 170.202 120.897 173.618V190.517ZM141.005 150.067C141.005 153.483 139.389 155.101 135.978 155.101H119.102C115.691 155.101 114.075 153.483 114.075 150.067V133.168C114.075 129.753 115.691 128.135 119.102 128.135H135.978C139.389 128.135 141.005 129.753 141.005 133.168V150.067ZM161.113 190.517C161.113 193.933 159.497 195.551 156.086 195.551H139.21C135.799 195.551 134.183 193.933 134.183 190.517V173.618C134.183 170.202 135.799 168.584 139.21 168.584H156.086C159.497 168.584 161.113 170.202 161.113 173.618V190.517ZM181.221 150.067C181.221 153.483 179.605 155.101 176.194 155.101H159.318C155.907 155.101 154.291 153.483 154.291 150.067V133.168C154.291 129.753 155.907 128.135 159.318 128.135H176.194C179.605 128.135 181.221 129.753 181.221 133.168V150.067ZM201.328 190.517C201.328 193.933 199.713 195.551 196.302 195.551H179.425C176.014 195.551 174.399 193.933 174.399 190.517V173.618C174.399 170.202 176.014 168.584 179.425 168.584H196.302C199.713 168.584 201.328 170.202 201.328 173.618V190.517ZM221.436 150.067C221.436 153.483 219.82 155.101 216.409 155.101H199.533C196.122 155.101 194.506 153.483 194.506 150.067V133.168C194.506 129.753 196.122 128.135 199.533 128.135H216.409C219.82 128.135 221.436 129.753 221.436 133.168V150.067ZM221.436 230.966C221.436 234.382 219.82 236 216.409 236H199.533C196.122 236 194.506 234.382 194.506 230.966V214.067C194.506 210.652 196.122 209.034 199.533 209.034H216.409C219.82 209.034 221.436 210.652 221.436 214.067V230.966Z" fill="currentColor"/>
</svg>
