<svg width="256" height="256" viewBox="0 0 256 256" fill="none" xmlns="http://www.w3.org/2000/svg">
<path d="M228 83.7978V196.206C228 201.369 226.167 205.864 222.503 209.528C218.839 213.191 214.513 215.024 209.184 215.024H46.8161C41.6536 215.024 37.1524 213.191 33.4887 209.528C29.825 205.864 28 201.535 28 196.206V83.7978C28 78.6353 29.825 74.1381 33.4887 70.4745C37.1524 66.8108 41.4871 64.9797 46.8161 64.9797H81.1225L85.7818 52.1564C87.2805 48.4928 89.6107 45.6612 92.7748 43.3298C95.9389 41.1649 99.4422 40 103.272 40H152.394C156.224 40 159.886 41.1649 162.884 43.3298C166.048 45.4947 168.386 48.4928 169.885 52.1564L174.544 64.9797H208.851C214.013 64.9797 218.506 66.8108 222.17 70.4745C225.833 74.1381 227.667 78.4688 227.667 83.7978H228ZM161.225 173.225C170.384 164.066 174.878 153.075 174.878 140.085C174.878 127.096 170.384 115.939 161.225 106.946C152.066 97.7866 141.071 93.2891 128.081 93.2891C115.092 93.2891 103.939 97.7866 94.9458 106.946C85.9532 116.105 81.2851 127.096 81.2851 140.085C81.2851 153.075 85.7866 164.232 94.9458 173.225C104.105 182.384 115.092 186.88 128.081 186.88C141.071 186.88 152.232 182.384 161.225 173.225ZM152.232 115.77C159.059 122.598 162.388 130.593 162.388 139.919C162.388 149.244 159.059 157.404 152.232 164.065C145.404 170.726 137.407 174.223 128.081 174.223C118.756 174.223 110.592 170.893 103.931 164.065C97.1033 157.237 93.7749 149.244 93.7749 139.919C93.7749 130.593 97.1033 122.432 103.931 115.77C110.759 109.109 118.756 105.612 128.081 105.612C137.407 105.612 145.57 108.943 152.232 115.77Z" fill="currentColor"/>
</svg>
