<svg width="256" height="256" viewBox="0 0 256 256" fill="none" xmlns="http://www.w3.org/2000/svg">
<path d="M230.96 182.616C234.38 182.616 236 184.244 236 187.679V204.677C236 208.112 234.38 209.74 230.96 209.74H25.04C21.62 209.74 20 208.112 20 204.677V52.063C20 48.6274 21.62 47 25.04 47H41.96C45.38 47 47 48.6274 47 52.063V182.616H230.96ZM177.32 87.6849C178.4 86.6 179.84 86.2384 181.28 86.6C182.9 86.9616 183.8 87.8657 184.52 89.3123L222.5 169.055H60.5V124.934L97.22 63.4548C98.12 62.0082 99.38 61.2849 101.18 61.1041C102.98 61.1041 104.42 61.6466 105.68 63.0932L141.5 111.373L177.32 87.6849Z" fill="currentColor"/>
</svg>
