<svg width="256" height="256" viewBox="0 0 256 256" fill="none" xmlns="http://www.w3.org/2000/svg">
<path d="M84.6396 37.6396C96.5196 25.7596 110.738 20 127.658 20C144.578 20 158.8 25.9396 170.68 37.6396C182.56 49.3396 188.32 63.7399 188.32 80.6599C188.32 97.5799 182.38 111.8 170.68 123.68C158.98 135.56 144.578 141.32 127.658 141.32C110.738 141.32 96.5196 135.38 84.6396 123.68C72.7596 111.98 67 97.5799 67 80.6599C67 63.7399 72.9396 49.5196 84.6396 37.6396ZM127.658 52.04C131.078 52.04 132.698 50.42 132.698 47C132.698 43.58 131.078 41.96 127.658 41.96C117.038 41.96 107.857 45.7401 100.297 53.3001C92.7374 60.8601 88.9595 70.0399 88.9595 80.6599C88.9595 84.0799 90.58 85.6999 94 85.6999C97.42 85.6999 99.0405 84.0799 99.0405 80.6599C99.0405 72.7399 101.92 66.08 107.5 60.5C113.08 54.92 119.918 52.04 127.658 52.04ZM114.158 153.74C119.018 154.64 123.518 155 127.658 155C131.798 155 136.298 154.64 141.158 153.74V219.98L131.797 233.84C130.717 235.28 129.278 236 127.658 236C126.038 236 124.598 235.28 123.518 233.84L114.158 219.98V153.74Z" fill="currentColor"/>
</svg>
