<svg width="256" height="256" viewBox="0 0 256 256" fill="none" xmlns="http://www.w3.org/2000/svg">
<path d="M147.997 147.974L147.997 207.514C147.997 214.949 141.697 220.522 134.539 221L121.334 221C114.198 220.523 107.876 214.929 107.876 207.514V147.974H48.458C41.0171 147.974 35.4757 141.638 35 134.488L35 121.257C35.4742 114.129 41.0374 107.772 48.458 107.772L107.876 107.772L108.13 48.4856C108.13 41.0508 114.43 35.4782 121.588 35L134.792 35C141.929 35.4767 148.251 41.0712 148.251 48.4856V108.026L207.542 108.153C214.983 108.153 220.524 114.489 221 121.639V134.87C220.526 141.998 214.963 148.356 207.542 148.356H148.124L147.997 147.974Z" fill="currentColor"/>
</svg>
