<svg width="256" height="256" viewBox="0 0 256 256" fill="none" xmlns="http://www.w3.org/2000/svg">
<path d="M228 49.5039V206.501C228 212.4 225.915 217.538 221.728 221.724C217.541 225.911 212.588 228.005 206.498 228.005H49.5016C43.6023 228.005 38.4679 225.911 34.2814 221.724C30.0948 217.538 28 212.59 28 206.501V49.5039C28 43.6046 30.0948 38.4662 34.2814 34.2796C38.4679 30.093 43.412 28 49.5016 28H206.498C212.398 28 217.541 30.093 221.728 34.2796C225.915 38.4662 228 43.4143 228 49.5039ZM203.841 206.501C205.554 206.501 206.498 205.549 206.498 203.836V52.1678C206.498 50.4551 205.554 49.5039 203.841 49.5039H52.1684C50.4557 49.5039 49.5016 50.4551 49.5016 52.1678V203.836C49.5016 205.549 50.4557 206.501 52.1684 206.501H203.841ZM179.673 115.538C183.288 115.538 184.997 117.25 184.997 120.866V135.139C184.997 138.754 183.288 140.467 179.673 140.467H140.47V179.669C140.47 183.284 138.752 184.997 135.136 184.997H120.864C117.248 184.997 115.539 183.284 115.539 179.669V140.467H76.3367C72.7211 140.467 71.0032 138.754 71.0032 135.139V120.866C71.0032 117.25 72.7211 115.538 76.3367 115.538H115.539V76.3362C115.539 72.7205 117.248 71.0078 120.864 71.0078H135.136C138.752 71.0078 140.47 72.7205 140.47 76.3362V115.538H179.673Z" fill="currentColor"/>
</svg>
