<svg width="256" height="256" viewBox="0 0 256 256" fill="none" xmlns="http://www.w3.org/2000/svg">
<path fill-rule="evenodd" clip-rule="evenodd" d="M88.008 107.38C88.008 97.876 83.544 93.124 74.616 93.124H47.292V163H62.412V135.568H74.616C83.544 135.568 88.008 130.816 88.008 121.312V107.38ZM72.888 105.652V123.04C72.888 124.136 71.9566 125.2 70.836 125.2H62.412V103.492H70.836C71.9566 103.492 72.888 104.556 72.888 105.652Z" fill="currentColor"/>
<path d="M95.4912 163H110.611V105.004C110.611 103.84 111.463 102.844 112.663 102.844H118.495C119.616 102.844 120.547 103.908 120.547 105.004V163H135.667V105.004C135.667 103.84 136.519 102.844 137.719 102.844H143.551C144.672 102.844 145.603 103.908 145.603 105.004V163H160.723V106.3C160.723 96.796 156.259 92.044 147.331 92.044H139.339C133.939 92.044 130.195 93.772 128.107 97.228C125.875 93.772 122.131 92.044 116.875 92.044H108.883C99.9552 92.044 95.4912 96.796 95.4912 106.3V163Z" fill="currentColor"/>
<path d="M195.523 111.484H209.887V106.3C209.887 96.796 205.423 92.044 196.495 92.044H184.507C175.579 92.044 171.115 96.796 171.115 106.3V120.232C171.115 129.736 175.579 134.488 184.507 134.488H194.227C195.347 134.488 196.279 135.552 196.279 136.648V150.364C196.279 151.46 195.347 152.524 194.227 152.524H187.531C186.331 152.524 185.479 151.528 185.479 150.364V142.588H171.115V149.824C171.115 159.328 175.579 164.08 184.507 164.08H197.251C206.179 164.08 210.643 159.328 210.643 149.824V134.812C210.643 125.452 206.179 120.7 197.251 120.556H187.531C186.331 120.556 185.479 119.56 185.479 118.396V105.976C185.479 104.812 186.331 103.816 187.531 103.816H193.471C194.591 103.816 195.523 104.88 195.523 105.976V111.484Z" fill="currentColor"/>
<path fill-rule="evenodd" clip-rule="evenodd" d="M14 128.412C14 191.032 65.5849 242.825 128.253 242.825C190.92 242.825 242.505 191.032 242.505 128.412C242.505 65.7922 190.92 14 128.253 14C65.5229 14 14 65.7655 14 128.412ZM35.8279 128.412C35.8279 77.7962 77.3526 36.0554 128.056 36.0554C178.684 36.0554 220.284 77.8095 220.284 128.412C220.284 179.028 178.759 220.769 128.056 220.769C77.4013 220.769 35.8279 179.077 35.8279 128.412Z" fill="currentColor"/>
</svg>
