<svg width="256" height="256" viewBox="0 0 256 256" fill="none" xmlns="http://www.w3.org/2000/svg">
<path d="M123.486 103.637C119.35 95.9545 114.181 89.5681 107.131 84.6625C104.539 83.0212 100.975 83.7491 99.4244 86.4211L95.8526 92.5297C94.6349 94.7567 95.2644 97.7877 97.3568 99.2863C102.056 102.711 105.721 107.061 108.353 112.152C110.985 117.335 112.301 122.704 112.301 128.35C112.301 138.624 108.635 147.232 101.398 154.359C94.0665 161.486 85.514 165.003 75.2689 165.003C65.0237 165.003 56.2821 161.393 49.0447 154.266C41.8073 147.046 38.2354 138.531 38.2354 128.535C38.2354 122.611 39.5517 117.15 42.1835 112.059C44.8152 107.061 48.4802 102.804 53.1798 99.2863C55.347 97.7342 55.7647 94.8354 54.684 92.5297L51.1123 86.4211C49.5609 83.7476 45.9964 83.0222 43.4054 84.6625C36.356 89.6606 30.8102 96.0471 26.6745 103.729C22.5389 111.412 20.4707 119.649 20.4707 128.442C20.4707 143.344 25.8279 156.025 36.543 166.484C47.2581 176.943 60.1361 182.219 75.1748 182.219C90.2136 182.219 103.09 176.943 113.711 166.484C124.333 156.025 129.69 143.344 129.69 128.442C129.69 119.649 127.621 111.412 123.486 103.637Z" fill="currentColor"/>
<path d="M78.5584 135.384C81.5161 135.384 83.8214 133.113 83.8214 130.201V78.1833C83.8214 75.2709 81.5161 73 78.5584 73H71.509C68.552 73 66.2449 75.2711 66.2449 78.1833V130.201C66.2449 133.113 68.552 135.384 71.509 135.384H78.5584Z" fill="currentColor"/>
<path d="M148.363 170.33L186.588 131.589C188.387 129.766 188.387 126.6 186.588 124.777L148.363 86.036C146.564 84.2129 143.441 84.2129 141.642 86.036L137.106 90.4632C135.307 92.2859 135.307 95.452 137.106 97.2747L167.434 128.183L137.106 159.09C135.307 160.913 135.307 164.079 137.106 165.902L141.642 170.33C143.441 172.153 146.564 172.153 148.363 170.33Z" fill="currentColor"/>
<path d="M231.766 172.884C234.409 172.884 236.471 170.795 236.471 168.116V161.73C236.471 159.052 234.409 156.962 231.766 156.962H193.023C190.38 156.962 188.318 159.052 188.318 161.73V168.116C188.318 170.795 190.379 172.884 193.023 172.884H231.766Z" fill="currentColor"/>
</svg>
