<svg width="256" height="256" viewBox="0 0 256 256" fill="none" xmlns="http://www.w3.org/2000/svg">
<path d="M176.83 61.1527C187.635 68.7883 195.559 78.7288 201.898 90.6865C208.237 102.788 211.407 115.61 211.407 129.297C211.407 152.492 203.196 172.229 186.916 188.508C170.636 204.788 150.899 213 127.849 213C104.798 213 85.0588 204.788 68.635 188.508C52.2113 172.229 44 152.492 44 129.297C44 115.61 47.17 102.788 53.5089 90.8307C59.8479 78.873 68.3484 68.9324 79.1535 61.1527C83.1249 58.5996 88.5883 59.7287 90.9663 63.89L96.4409 73.3981C98.0973 76.987 97.4571 81.499 94.1353 83.9148C86.9319 89.3894 81.3144 96.0166 77.2805 103.796C73.2466 111.72 71.229 120.22 71.229 129.441C71.229 145 76.704 158.254 87.7972 169.491C98.8904 180.584 112.289 186.204 127.993 186.204C143.696 186.204 156.805 180.729 168.042 169.635C179.135 158.542 184.755 145.144 184.755 129.152C184.755 120.364 182.737 112.008 178.703 103.94C174.669 96.0167 169.052 89.2453 161.848 83.9148C158.641 81.5822 157.676 76.8645 159.543 73.3981L165.017 63.89C167.394 59.731 172.856 58.5981 176.83 61.1527ZM141.102 132.034C141.102 136.567 137.568 140.102 133.035 140.102H122.23C117.697 140.102 114.161 136.567 114.161 132.034V51.0678C114.161 46.535 117.697 43 122.23 43H133.035C137.568 43 141.102 46.5347 141.102 51.0678V132.034Z" fill="currentColor"/>
</svg>
