<svg width="256" height="256" viewBox="0 0 256 256" fill="none" xmlns="http://www.w3.org/2000/svg">
<path fill-rule="evenodd" clip-rule="evenodd" d="M97.546 106.685C97.546 96.037 92.5447 90.713 82.542 90.713H51.929V169H68.869V138.266H82.542C92.5447 138.266 97.546 132.942 97.546 122.294V106.685ZM80.606 104.749V124.23C80.606 125.458 79.5625 126.65 78.307 126.65H68.869V102.329H78.307C79.5625 102.329 80.606 103.521 80.606 104.749Z" fill="currentColor"/>
<path d="M133.397 111.283H149.49V105.475C149.49 94.827 144.489 89.503 134.486 89.503H121.055C111.052 89.503 106.051 94.827 106.051 105.475V121.084C106.051 131.732 111.052 137.056 121.055 137.056H131.945C133.201 137.056 134.244 138.248 134.244 139.476V154.843C134.244 156.071 133.201 157.263 131.945 157.263H124.443C123.099 157.263 122.144 156.147 122.144 154.843V146.131H106.051V154.238C106.051 164.886 111.052 170.21 121.055 170.21H135.333C145.336 170.21 150.337 164.886 150.337 154.238V137.419C150.337 126.932 145.336 121.608 135.333 121.447H124.443C123.099 121.447 122.144 120.331 122.144 119.027V105.112C122.144 103.808 123.099 102.692 124.443 102.692H131.098C132.354 102.692 133.397 103.884 133.397 105.112V111.283Z" fill="currentColor"/>
<path d="M188.816 111.283H204.909V105.475C204.909 94.827 199.908 89.503 189.905 89.503H176.474C166.471 89.503 161.47 94.827 161.47 105.475V121.084C161.47 131.732 166.471 137.056 176.474 137.056H187.364C188.619 137.056 189.663 138.248 189.663 139.476V154.843C189.663 156.071 188.619 157.263 187.364 157.263H179.862C178.518 157.263 177.563 156.147 177.563 154.843V146.131H161.47V154.238C161.47 164.886 166.471 170.21 176.474 170.21H190.752C200.755 170.21 205.756 164.886 205.756 154.238V137.419C205.756 126.932 200.755 121.608 190.752 121.447H179.862C178.518 121.447 177.563 120.331 177.563 119.027V105.112C177.563 103.808 178.518 102.692 179.862 102.692H186.517C187.772 102.692 188.816 103.884 188.816 105.112V111.283Z" fill="currentColor"/>
<path fill-rule="evenodd" clip-rule="evenodd" d="M14 128.412C14 191.032 65.5849 242.825 128.253 242.825C190.92 242.825 242.505 191.032 242.505 128.412C242.505 65.7922 190.92 14 128.253 14C65.5229 14 14 65.7655 14 128.412ZM35.8279 128.412C35.8279 77.7962 77.3526 36.0554 128.056 36.0554C178.684 36.0554 220.284 77.8095 220.284 128.412C220.284 179.028 178.759 220.769 128.056 220.769C77.4013 220.769 35.8279 179.077 35.8279 128.412Z" fill="currentColor"/>
</svg>
