<svg width="256" height="256" viewBox="0 0 256 256" fill="none" xmlns="http://www.w3.org/2000/svg">
<path d="M236 128C236 187.176 187.174 236 127.999 236C68.8243 236 20 187.174 20 128C20 68.8248 68.8234 20 127.999 20C187.175 20 236 68.8234 236 128ZM130.974 55.6899C109.411 55.6899 92.4954 64.9842 80.041 83.5729C78.368 86.1753 78.741 88.5919 81.3434 90.6366L96.5851 101.975C99.1875 104.02 101.604 103.649 103.649 101.046C110.305 93.0594 117.27 85.4313 128.371 85.4313C136.479 85.4313 148.448 90.0895 148.448 99.7449C148.448 102.905 147.332 105.507 145.101 107.366C138.302 113.031 129.952 116.318 122.982 121.679C115.44 126.9 110.713 136.5 110.713 147.332C110.713 150.864 112.386 152.536 115.918 152.536H140.268C143.8 152.536 145.473 150.864 145.473 147.332C145.473 144.729 147.333 141.755 151.051 139.153C160.093 132.823 169.25 129.271 175.959 120.006C179.677 114.429 181.534 107.923 181.534 100.488C181.534 88.2195 176.33 77.8098 165.92 69.0732C155.511 60.3365 143.8 55.6899 130.974 55.6899ZM127.999 163.69C117.158 163.69 107.924 172.925 107.924 183.766C107.924 194.626 117.153 203.841 127.999 203.841C138.865 203.841 148.076 194.633 148.076 183.766C148.076 172.918 138.86 163.69 127.999 163.69Z" fill="currentColor"/>
</svg>
