<svg width="256" height="256" viewBox="0 0 256 256" fill="none" xmlns="http://www.w3.org/2000/svg">
<path d="M81.9399 84.9724C93.4821 67.6575 109.159 59 129.142 59C141.029 59 151.882 63.3287 161.529 71.4667C171.176 79.6048 176 89.3011 176 100.729C176 112.253 169.863 124.504 159.29 129.818C155.155 132.069 151.193 134.32 147.748 136.744C145.167 138.56 142.579 140.98 142.579 144.363C142.579 147.652 141.029 149.211 137.756 149.211H115.188C111.915 149.211 110.365 147.652 110.365 144.363C110.365 135.327 114.082 125.793 121.735 120.468C124.753 118.134 128.05 116.223 131.35 114.31C135.113 112.13 138.878 109.947 142.235 107.136C144.302 105.404 145.336 102.98 145.336 100.036C145.336 91.0417 134.246 86.7039 126.73 86.7039C116.441 86.7039 109.987 93.8083 103.818 101.248C101.923 103.673 99.6839 104.019 97.2721 102.114L83.1458 91.5521C80.734 89.6474 80.3895 87.3965 81.9399 84.9724Z" fill="currentColor"/>
<path d="M107.781 178.3C107.781 168.2 116.337 159.6 126.386 159.6C136.453 159.6 144.991 168.195 144.991 178.3C144.991 188.422 136.457 197 126.386 197C116.333 197 107.781 188.418 107.781 178.3Z" fill="currentColor"/>
<path fill-rule="evenodd" clip-rule="evenodd" d="M236 128C236 68.8229 187.165 20 127.991 20C68.8235 20 20 68.8345 20 128C20 187.166 68.823 236 127.991 236C187.165 236 236 187.178 236 128ZM215.36 128C215.36 175.822 176.062 215.181 128.191 215.181C80.3842 215.181 41.0028 175.821 41.0028 128C41.0028 80.1666 80.3133 40.8192 128.191 40.8192C176.015 40.8192 215.36 80.1321 215.36 128Z" fill="currentColor"/>
</svg>
