<svg width="256" height="256" viewBox="0 0 256 256" fill="none" xmlns="http://www.w3.org/2000/svg">
<path d="M129.114 38C102.916 38 82.364 49.2923 67.2322 71.877C65.1996 75.0389 65.6513 77.9749 68.8132 80.4592L87.3326 94.2359C90.4945 96.7202 93.4305 96.2685 95.9148 93.1066C104.002 83.4022 112.464 74.1355 125.952 74.1355C135.805 74.1355 150.344 79.7935 150.344 91.5257C150.344 95.3651 148.989 98.527 146.279 100.785C138.018 107.669 127.872 111.661 119.403 118.176C109.37 125.121 104.497 137.558 104.497 149.343C104.497 153.634 106.53 155.666 110.821 155.666H140.407C144.698 155.666 146.73 153.634 146.73 149.343C146.73 144.931 150.123 141.773 153.506 139.405C158.023 136.243 163.217 133.307 168.638 130.371C182.5 123.44 190.545 107.461 190.545 92.4291C190.545 77.5232 184.221 64.8758 171.574 54.261C158.926 43.6462 144.698 38 129.114 38ZM125.501 169.217C112.327 169.217 101.109 180.435 101.109 193.609C101.109 206.806 112.321 218 125.501 218C138.704 218 149.892 206.812 149.892 193.609C149.892 180.429 138.698 169.217 125.501 169.217Z" fill="currentColor"/>
</svg>
