<svg width="256" height="256" viewBox="0 0 256 256" fill="none" xmlns="http://www.w3.org/2000/svg">
<path fill-rule="evenodd" clip-rule="evenodd" d="M192.485 181.59C202.172 181.59 206.378 170.279 200.266 163.296C192.374 155.405 188.152 148.245 184.849 137.511C182.687 129.877 181.535 121.234 181.535 111.295C181.535 98.1865 177.5 86.8068 169.431 77.1557C161.218 67.3605 150.844 61.3106 138.308 58.8618V51.8035C138.308 45.8831 133.421 41 127.502 41C121.597 41 116.695 45.8866 116.695 51.8035V58.8618C104.016 61.4546 93.6413 67.5046 85.5724 77.1557C77.5035 86.8068 73.469 98.1865 73.469 111.295C73.469 121.234 72.4604 130.021 70.155 137.511C67.1842 148.005 62.7084 155.615 55.0259 163.296C48.9058 170.288 53.1092 181.59 62.8066 181.59H192.485ZM101.727 124.007C97.3826 124.007 95.6071 118.517 98.2198 115.395L124.777 87.5338C126.294 85.4887 129.774 85.4887 131.291 87.5338L157.723 115.395C160.513 118.472 158.457 124.007 154.215 124.007H137.429V153.188C137.429 155.974 135.425 158 132.669 158H123.274C120.518 158 118.514 155.974 118.514 153.188V124.007H101.727Z" fill="currentColor"/>
<path d="M127.646 214C139.462 214 149.259 204.198 149.259 192.393H106.033C106.033 204.227 115.799 214 127.646 214Z" fill="currentColor"/>
</svg>
