<svg width="256" height="256" viewBox="0 0 256 256" fill="none" xmlns="http://www.w3.org/2000/svg">
<path d="M200.266 163.296C206.378 170.279 202.172 181.59 192.485 181.59H62.8065C53.109 181.59 48.9057 170.288 55.0257 163.296C62.7083 155.615 67.1841 148.005 70.1549 137.511C72.4603 130.021 73.4689 121.234 73.4689 111.295C73.4689 98.1865 77.5033 86.8068 85.5722 77.1557C93.6411 67.5046 104.015 61.4546 116.695 58.8618V51.8035C116.695 45.8866 121.597 41 127.502 41C133.421 41 138.308 45.8831 138.308 51.8035V58.8618C150.844 61.3106 161.218 67.3605 169.431 77.1557C177.5 86.8068 181.534 98.1865 181.534 111.295C181.534 121.234 182.687 129.877 184.848 137.511C188.156 148.257 192.356 155.388 200.266 163.296ZM149.259 192.393C149.259 204.198 139.462 214 127.646 214C115.799 214 106.033 204.227 106.033 192.393H149.259Z" fill="currentColor"/>
</svg>
