<svg width="256" height="256" viewBox="0 0 256 256" fill="none" xmlns="http://www.w3.org/2000/svg">
<path d="M233.668 195.468C236.396 197.764 236.683 200.348 234.673 203.219L227.925 211.688C225.627 214.415 223.186 214.703 220.458 212.693L22.3125 59.5322C19.5844 57.2355 19.2972 54.6518 21.3074 51.7809L28.0558 43.3118C30.3532 40.5845 32.7941 40.2974 35.5222 42.307L84.3408 79.9154C92.6686 68.8625 103.581 61.9725 117.365 59.1016V52.068C117.365 46.1718 122.25 41.3022 128.134 41.3022C134.033 41.3022 138.903 46.1683 138.903 52.068V59.1016C151.394 61.5418 161.733 67.5707 169.917 77.3316C177.957 86.949 181.978 98.2889 181.978 111.351C181.978 121.256 183.127 129.868 185.28 137.476C188.499 147.935 192.623 155.439 200.357 163.171C202.367 165.467 203.372 167.907 203.372 170.635C203.372 170.922 203.372 171.352 203.085 171.927L233.668 195.468ZM73.1412 126.136L144.79 181.257H63.3775C53.7139 181.257 49.5253 169.995 55.624 163.027C65.5854 152.616 71.3268 140.504 73.1412 125.993V126.136ZM149.528 192.023C149.528 203.787 139.765 213.554 127.99 213.554C116.185 213.554 106.453 203.816 106.453 192.023H149.528Z" fill="currentColor"/>
</svg>
