<svg width="256" height="256" viewBox="0 0 256 256" fill="none" xmlns="http://www.w3.org/2000/svg">
<path fill-rule="evenodd" clip-rule="evenodd" d="M192.485 181.59C202.172 181.59 206.378 170.279 200.266 163.296C192.374 155.405 188.152 148.245 184.848 137.511C182.687 129.877 181.534 121.234 181.534 111.295C181.534 98.1865 177.5 86.8068 169.431 77.1557C161.218 67.3605 150.844 61.3106 138.308 58.8618V51.8035C138.308 45.8831 133.421 41 127.502 41C121.597 41 116.695 45.8866 116.695 51.8035V58.8618C104.015 61.4546 93.6411 67.5046 85.5722 77.1557C77.5033 86.8068 73.4689 98.1865 73.4689 111.295C73.4689 121.234 72.4603 130.021 70.1549 137.511C67.1841 148.005 62.7083 155.615 55.0257 163.296C48.9057 170.288 53.109 181.59 62.8065 181.59H192.485ZM127.646 214C139.462 214 149.259 204.198 149.259 192.393H106.033C106.033 204.227 115.799 214 127.646 214ZM101.727 124.007C97.3825 124.007 95.607 118.517 98.2196 115.395L124.777 87.5338C126.294 85.4887 129.774 85.4887 131.291 87.5338L157.723 115.395C160.512 118.472 158.457 124.007 154.215 124.007H137.429V153.188C137.429 155.974 135.425 158 132.669 158H123.274C120.518 158 118.513 155.974 118.513 153.188V124.007H101.727Z" fill="currentColor"/>
</svg>
