<svg width="256" height="256" viewBox="0 0 256 256" fill="none" xmlns="http://www.w3.org/2000/svg">
<path d="M234.871 183.2C236.63 187.2 236.311 191.04 234.073 194.56C231.835 198.24 228.638 200 224.321 200H150.941L146.786 163.2C146.786 161.76 146.145 160.48 145.026 159.52C143.906 158.56 142.469 158.08 140.711 158.08H115.29C113.532 158.08 112.093 158.56 110.974 159.52C109.855 160.48 109.215 161.76 109.215 163.2L105.059 200H31.6799C27.3635 200 24.1664 198.24 21.9282 194.56C19.6901 190.88 19.3696 187.2 21.1281 183.2L73.5652 63.2002C75.4836 58.4002 79.0008 56 83.6369 56H120.407L119.287 64.6396C119.287 65.5996 119.608 66.4 120.247 67.04C120.887 67.68 121.526 68 122.326 68H133.516C133.516 68 134.954 67.68 135.594 67.04C136.233 66.4 136.554 65.5996 136.554 64.6396L135.434 56H172.204C177 56 180.358 58.4002 182.276 63.2002L234.713 183.2H234.871ZM138.632 146.08C140.391 146.08 141.828 145.44 142.947 144C144.066 142.56 144.707 141.119 144.707 139.359L142.469 121.439C142.469 119.999 141.83 118.72 140.711 117.76C139.592 116.8 138.313 116.319 136.714 116.319H119.447C118.008 116.319 116.57 116.8 115.45 117.76C114.331 118.72 113.692 119.999 113.692 121.439L111.454 139.359C111.454 141.119 112.093 142.72 113.212 144C114.331 145.44 115.77 146.08 117.529 146.08H138.472H138.632ZM120.727 80.1602C118.969 80.1602 118.009 80.9597 117.689 82.7197L116.251 99.2002C115.931 100.48 116.25 101.6 117.209 102.56C118.008 103.52 119.288 104 120.727 104H135.754C137.193 104 138.471 103.52 139.271 102.56C140.07 101.6 140.391 100.48 140.231 99.2002L138.792 82.7197C138.473 80.9597 137.512 80.1602 135.754 80.1602H120.727Z" fill="currentColor"/>
</svg>
