<svg width="256" height="256" viewBox="0 0 256 256" fill="none" xmlns="http://www.w3.org/2000/svg">
<path d="M30.8 105.457H41.6V170.257H30.8C27.92 170.257 25.3276 169.248 23.1676 167.088C21.0076 164.928 20 162.481 20 159.457V116.257C20 113.377 21.0076 110.784 23.1676 108.624C25.3276 106.464 27.776 105.457 30.8 105.457ZM203.6 89.3279V181.057C203.6 186.961 201.441 192.001 197.121 196.177C192.801 200.497 187.76 202.657 182 202.657H74C68.096 202.657 63.0571 200.497 58.8811 196.177C54.7051 191.857 52.4 186.817 52.4 181.057V89.3279C52.4 81.8399 54.9927 75.5047 60.3207 70.3207C65.6487 65.1367 71.9839 62.4 79.3279 62.4H117.056V40.8C117.056 37.92 118.063 35.3285 120.223 33.1685C122.383 31.0085 124.832 30 127.856 30C130.88 30 133.328 31.0085 135.488 33.1685C137.648 35.3285 138.656 37.776 138.656 40.8V62.4H176.384C183.872 62.4 190.209 64.9927 195.393 70.3207C200.721 75.6487 203.312 81.9839 203.312 89.3279H203.6ZM105.249 125.904C107.841 123.312 109.137 120.145 109.137 116.257C109.137 112.369 107.841 109.2 105.249 106.608C102.657 104.016 99.488 102.721 95.6 102.721C91.712 102.721 88.5434 104.016 85.9514 106.608C83.3594 109.2 82.0648 112.369 82.0648 116.257C82.0648 120.145 83.3594 123.312 85.9514 125.904C88.5434 128.496 91.712 129.793 95.6 129.793C99.488 129.793 102.657 128.496 105.249 125.904ZM106.4 159.457H84.8V170.257H106.4V159.457ZM138.8 159.457H117.2V170.257H138.8V159.457ZM170.049 125.904C172.641 123.312 173.937 120.145 173.937 116.257C173.937 112.369 172.641 109.2 170.049 106.608C167.457 104.016 164.288 102.721 160.4 102.721C156.512 102.721 153.343 104.016 150.751 106.608C148.159 109.2 146.865 112.369 146.865 116.257C146.865 120.145 148.159 123.312 150.751 125.904C153.343 128.496 156.512 129.793 160.4 129.793C164.288 129.793 167.457 128.496 170.049 125.904ZM171.2 159.457H149.6V170.257H171.2V159.457ZM236 116.257V159.457C236 162.337 234.992 164.928 232.832 167.088C230.672 169.248 228.224 170.257 225.2 170.257H214.4V105.457H225.2C228.08 105.457 230.672 106.464 232.832 108.624C234.992 110.784 236 113.233 236 116.257Z" fill="currentColor"/>
</svg>
