<svg width="256" height="256" viewBox="0 0 256 256" fill="none" xmlns="http://www.w3.org/2000/svg">
<path d="M20 168.5C20 157.34 23.9584 147.62 31.8784 139.88C39.7984 132.14 49.34 128 60.5 128C71.66 128 81.3794 131.96 89.1194 139.88C97.0394 147.8 101 157.34 101 168.5C101 175.34 97.5789 184.34 90.9189 195.5C84.0789 206.84 77.419 216.379 70.759 224.119L60.6802 236C57.6202 232.58 53.8401 228.259 49.3401 222.859C44.8401 217.459 38.9001 208.82 31.3401 196.76C23.9601 184.7 20.1802 175.16 20.1802 168.5H20ZM50.9595 178.039C53.6595 180.739 56.72 182 60.5 182C64.28 182 67.3405 180.739 70.0405 178.039C72.7405 175.339 74 172.28 74 168.5C74 164.72 72.7405 161.66 70.0405 158.96C67.3405 156.26 64.28 155 60.5 155C56.72 155 53.6595 156.26 50.9595 158.96C48.2595 161.66 47 164.72 47 168.5C47 172.28 48.2595 175.339 50.9595 178.039ZM195.5 155C206.66 155 216.379 158.96 224.119 166.88C232.039 174.8 236 184.34 236 195.5C236 206.66 232.039 216.379 224.119 224.119C216.199 232.039 206.66 236 195.5 236H78.1396C85.6996 226.64 92.5396 217.64 98.2996 209H195.32C198.92 209 202.16 207.739 204.86 205.039C207.56 202.339 208.82 199.28 208.82 195.5C208.82 191.72 207.56 188.66 204.86 185.96C202.16 183.26 199.1 182 195.32 182H154.82C143.48 182 133.94 178.039 126.2 170.119C118.28 162.199 114.32 152.66 114.32 141.5C114.32 130.34 118.28 120.62 126.2 112.88C134.12 105.14 143.66 101 154.82 101H173.719C161.118 83 154.82 69.5 154.82 60.5C154.82 49.34 158.78 39.6195 166.7 31.8795C174.62 24.1395 184.16 20 195.32 20C206.48 20 216.199 23.9595 223.939 31.8795C231.859 39.7995 235.82 49.34 235.82 60.5C235.82 67.34 232.399 76.34 225.739 87.5C218.899 98.84 212.239 108.379 205.579 116.119L195.5 128H155C151.4 128 148.159 129.259 145.459 131.959C142.759 134.66 141.5 137.72 141.5 141.5C141.5 145.28 142.759 148.339 145.459 151.039C148.159 153.739 151.22 155 155 155H195.5ZM205.041 50.9595C202.341 48.2595 199.28 47 195.5 47C191.72 47 188.659 48.2595 185.959 50.9595C183.259 53.6595 182 56.72 182 60.5C182 64.28 183.259 67.3394 185.959 70.0394C188.659 72.7394 191.72 74 195.5 74C199.28 74 202.341 72.7394 205.041 70.0394C207.741 67.3394 209 64.28 209 60.5C209 56.72 207.741 53.6595 205.041 50.9595Z" fill="currentColor"/>
</svg>
