<svg width="256" height="256" viewBox="0 0 256 256" fill="none" xmlns="http://www.w3.org/2000/svg">
<path d="M212.314 60.3717C213.96 60.3717 215.307 60.9702 216.354 62.0176C217.402 63.0649 218 64.4116 218 66.0575V77.2795C218 78.9254 217.402 80.2721 216.354 81.3195C215.307 82.3668 213.96 82.9654 212.314 82.9654H139.296V88.6512C139.296 90.2971 138.698 91.6437 137.65 92.6911C136.603 93.7385 135.256 94.337 133.61 94.337H122.388C120.742 94.337 119.397 93.7385 118.35 92.6911C117.302 91.6437 116.702 90.2971 116.702 88.6512V82.9654H43.6841C42.0382 82.9654 40.6931 82.3668 39.6457 81.3195C38.5983 80.2721 38 78.9254 38 77.2795V66.0575C38 64.4116 38.5983 63.0649 39.6457 62.0176C40.6931 60.9702 42.0382 60.3717 43.6841 60.3717H116.702V54.6858C116.702 53.0399 117.302 51.6933 118.35 50.6459C119.397 49.5985 120.742 49 122.388 49H133.61C135.256 49 136.603 49.5985 137.65 50.6459C138.698 51.6933 139.296 53.0399 139.296 54.6858V60.3717H212.314ZM212.314 116.482C213.96 116.482 215.307 117.08 216.354 118.128C217.402 119.175 218 120.522 218 122.168V133.39C218 135.036 217.402 136.382 216.354 137.43C215.307 138.477 213.96 139.076 212.314 139.076H184.184V144.761C184.184 146.407 183.586 147.754 182.538 148.801C181.491 149.849 180.144 150.447 178.498 150.447H167.276C165.63 150.447 164.285 149.849 163.238 148.801C162.19 147.754 161.59 146.407 161.59 144.761V139.076H43.6841C42.0382 139.076 40.6931 138.477 39.6457 137.43C38.5983 136.382 38 135.036 38 133.39V122.168C38 120.522 38.5983 119.175 39.6457 118.128C40.6931 117.08 42.0382 116.482 43.6841 116.482H161.59V110.796C161.59 109.15 162.19 107.803 163.238 106.756C164.285 105.709 165.63 105.11 167.276 105.11H178.498C180.144 105.11 181.491 105.709 182.538 106.756C183.586 107.803 184.184 109.15 184.184 110.796V116.482H212.314ZM212.314 172.592C213.96 172.592 215.307 173.19 216.354 174.238C217.402 175.285 218 176.632 218 178.278V189.5C218 191.146 217.402 192.492 216.354 193.54C215.307 194.587 213.96 195.186 212.314 195.186H94.4079V200.871C94.4079 202.517 93.8096 203.864 92.7622 204.911C91.7148 205.959 90.3679 206.557 88.722 206.557H77.4999C75.854 206.557 74.5089 205.959 73.4615 204.911C72.4142 203.864 71.814 202.517 71.814 200.871V195.186H43.6841C42.0382 195.186 40.6931 194.587 39.6457 193.54C38.5983 192.492 38 191.146 38 189.5V178.278C38 176.632 38.5983 175.285 39.6457 174.238C40.6931 173.19 42.0382 172.592 43.6841 172.592H71.814V166.906C71.814 165.26 72.4142 163.914 73.4615 162.866C74.5089 161.819 75.854 161.22 77.4999 161.22H88.722C90.3679 161.22 91.7148 161.819 92.7622 162.866C93.8096 163.914 94.4079 165.26 94.4079 166.906V172.592H212.314Z" fill="currentColor"/>
</svg>
