<svg width="256" height="256" viewBox="0 0 256 256" fill="none" xmlns="http://www.w3.org/2000/svg">
<path d="M167.239 156.571C164.192 156.571 161.715 157.524 159.62 159.619C157.524 161.714 156.571 164.191 156.571 167.238V228H38.6678C35.6202 228 33.1435 227.048 31.0483 224.952C28.953 222.857 28 220.381 28 217.333V38.6668C28 35.6191 28.953 33.1429 31.0483 31.0477C33.1435 28.9525 35.6202 28 38.6678 28H217.335C220.382 28 222.859 28.9525 224.954 31.0477C227.049 33.1429 228 35.6191 228 38.6668V156.571H167.239ZM228 173.524C228 176.572 227.049 179.048 224.954 181.143L181.144 224.952C179.048 227.048 176.572 228 173.524 228H170.857V170.857H228V173.524Z" fill="currentColor"/>
</svg>
