<svg width="256" height="256" viewBox="0 0 256 256" fill="none" xmlns="http://www.w3.org/2000/svg">
<path d="M167.239 156.571C164.191 156.571 161.715 157.524 159.62 159.619C157.524 161.714 156.571 164.191 156.571 167.238V228H38.6676C35.62 228 33.1433 227.048 31.0481 224.952C28.9528 222.857 27.9998 220.381 27.9998 217.333V38.6668C27.9998 35.6191 28.9528 33.1429 31.0481 31.0477C33.1433 28.9525 35.62 28 38.6676 28H217.334C220.382 28 222.859 28.9525 224.954 31.0477C227.049 33.1429 228 35.6191 228 38.6668V156.571H167.239ZM228 173.524C228 176.572 227.049 179.048 224.954 181.143L181.143 224.952C179.048 227.048 176.572 228 173.524 228H170.857V170.857H228V173.524Z" fill="currentColor"/>
</svg>
