<svg width="256" height="256" viewBox="0 0 256 256" fill="none" xmlns="http://www.w3.org/2000/svg">
<path d="M210.062 61C213.712 62.3333 216.533 64.4999 218.691 67.6665C220.682 70.8332 221.842 74.3333 221.842 78.1666C221.842 98.5 219.021 117.5 213.213 135.333C207.572 153.167 200.105 168 190.979 179.833C181.852 191.667 172.725 201.5 163.433 209.333C154.141 217.167 144.849 222.833 135.391 226.5C130.745 228.5 126.099 228.5 121.453 226.5C110.502 222 100.048 215.5 90.0915 206.833C80.1355 198.167 71.0087 187.5 62.712 175.167C54.4153 162.833 47.7786 148.167 42.6346 131.167C37.6566 114.167 35.0002 96.5001 35.0002 78C35.0002 74.1667 35.9969 70.5 38.154 67.5C40.1453 64.3333 43.1324 62.1667 46.7829 60.8334L121.453 29.4999C123.445 28.4999 125.932 28 128.421 28C130.91 28 133.4 28.4999 135.391 29.4999L210.062 60.8334V61ZM128.421 202.333C147.836 192.667 163.932 177.334 176.875 156.167C189.818 135 196.454 110.5 196.952 82.3333L128.587 53.5V202.333H128.421Z" fill="currentColor"/>
</svg>
