<svg width="256" height="256" viewBox="0 0 256 256" fill="none" xmlns="http://www.w3.org/2000/svg">
<path d="M20 152C20 122.24 30.56 96.8 51.68 75.68C72.8 54.56 98.24 44 128 44C157.76 44 183.2 54.56 204.32 75.68C225.44 96.8 236 122.24 236 152C236 171.52 231.2 189.6 221.44 206.4C219.2 210.08 215.84 212 211.36 212H44.8C40.32 212 36.96 210.08 34.72 206.4C24.96 189.6 20.16 171.52 20.16 152H20ZM47.52 172.48C49.92 174.88 52.64 176 56 176C59.36 176 62.08 174.88 64.48 172.48C66.88 170.08 68 167.36 68 164C68 160.64 66.88 157.92 64.48 155.52C62.08 153.12 59.36 152 56 152C52.64 152 49.92 153.12 47.52 155.52C45.12 157.92 44 160.64 44 164C44 167.36 45.12 170.08 47.52 172.48ZM65.44 112.48C67.84 114.88 70.56 116 73.92 116C77.28 116 80 114.88 82.4 112.48C84.8 110.08 85.92 107.36 85.92 104C85.92 100.64 84.8 97.92 82.4 95.52C80 93.12 77.28 92 73.92 92C70.56 92 67.84 93.12 65.44 95.52C63.04 97.92 61.92 100.64 61.92 104C61.92 107.36 63.04 110.08 65.44 112.48ZM166.56 89.12C167.36 86.56 167.2 84.32 165.92 81.92C164.64 79.52 163.04 78.24 160.64 77.44C158.24 76.64 156 76.8 153.76 78.08C151.52 79.36 150.08 80.96 149.28 83.2L126.4 152.16C120.16 152.64 114.88 155.2 110.4 159.84C106.08 164.48 103.84 169.92 103.84 176.16C103.84 180.48 104.96 184.48 107.2 188.16H148.48C150.72 184.48 151.84 180.48 151.84 176.16C151.84 168.96 148.96 162.88 143.2 158.24L166.4 89.28L166.56 89.12ZM128 68.16C124.8 68.16 121.92 69.28 119.52 71.68C117.12 74.08 116 76.8 116 80.16C116 83.52 117.12 86.24 119.52 88.64C121.92 91.04 124.64 92.16 128 92.16C130.24 92.16 132.48 91.36 134.72 89.92L138.08 79.36C138.08 79.36 138.4 78.4 139.2 77.12C138.4 74.4 137.12 72.16 135.04 70.56C132.96 68.96 130.72 68.16 127.84 68.16H128ZM171.84 110.56C174.4 114.24 177.76 116.16 181.92 116.16C185.12 116.16 188 115.04 190.4 112.64C192.8 110.24 193.92 107.52 193.92 104.16C193.92 100.8 192.8 98.08 190.4 95.68C188 93.28 185.28 92.16 181.92 92.16C180.64 92.16 179.36 92.48 177.76 92.96L171.68 110.56H171.84ZM191.52 172.64C193.92 175.04 196.64 176.16 200 176.16C203.36 176.16 206.08 175.04 208.48 172.64C210.88 170.24 212 167.52 212 164.16C212 160.8 210.88 158.08 208.48 155.68C206.08 153.28 203.36 152.16 200 152.16C196.64 152.16 193.92 153.28 191.52 155.68C189.12 158.08 188 160.8 188 164.16C188 167.52 189.12 170.24 191.52 172.64Z" fill="currentColor"/>
</svg>
