<svg width="256" height="256" viewBox="0 0 256 256" fill="none" xmlns="http://www.w3.org/2000/svg">
<path d="M85.9274 65.7928C85.9274 76.6002 76.7566 85.7446 65.9227 85.7446C55.0768 85.7446 45.918 76.6663 45.918 65.7928C45.918 54.9312 55.0647 45.841 65.9227 45.841C76.7686 45.841 85.9274 54.9193 85.9274 65.7928Z" fill="currentColor"/>
<path d="M152.204 39.9422C152.204 53.2055 141.443 63.8843 128.198 63.8843C114.954 63.8843 104.193 53.2055 104.193 39.9422C104.193 26.6789 114.954 16 128.198 16C141.443 16 152.204 26.6788 152.204 39.9422Z" fill="currentColor"/>
<path d="M218.654 65.7928C218.654 81.1063 205.747 93.7253 190.474 93.7253C175.149 93.7253 162.467 81.1397 162.467 65.7928C162.467 50.5162 175.187 37.6867 190.474 37.6867C205.689 37.6867 218.654 50.5557 218.654 65.7928Z" fill="currentColor"/>
<path d="M56.0076 128.004C56.0076 119.274 48.7212 112.042 40.0038 112.042C31.2864 112.042 24 119.274 24 128.004C24 136.734 31.2864 143.965 40.0038 143.965C48.7212 143.965 56.0076 136.734 56.0076 128.004Z" fill="currentColor"/>
<path d="M216.004 112.042C224.721 112.042 232.008 119.274 232.008 128.004C232.008 136.734 224.721 143.965 216.004 143.965C207.286 143.965 200 136.734 200 128.004C200 119.274 207.286 112.042 216.004 112.042Z" fill="currentColor"/>
<path d="M201.516 178.943C207.68 185.107 207.719 195.372 201.546 201.545C195.373 207.718 185.107 207.68 178.943 201.515C172.779 195.351 172.74 185.086 178.913 178.913C185.086 172.74 195.352 172.779 201.516 178.943Z" fill="currentColor"/>
<path d="M77.095 178.913C70.922 172.74 60.6563 172.779 54.4922 178.943C48.3281 185.107 48.2892 195.372 54.4622 201.545C60.6352 207.718 70.901 207.68 77.0651 201.516C83.2292 195.351 83.268 185.086 77.095 178.913Z" fill="currentColor"/>
<path d="M128.004 200C119.274 200 112.043 207.286 112.043 216.004C112.043 224.721 119.274 232.008 128.004 232.008C136.734 232.008 143.966 224.721 143.966 216.004C143.966 207.286 136.734 200 128.004 200Z" fill="currentColor"/>
</svg>
