<svg width="256" height="256" viewBox="0 0 256 256" fill="none" xmlns="http://www.w3.org/2000/svg">
<path d="M116.096 23.2457C118.512 18.4152 122.48 16 127.828 16C133.176 16 137.143 18.4152 139.558 23.2457L165.781 76.5534L224.783 85.5243C230.131 86.0419 233.753 88.9746 235.306 93.9776C236.859 99.1531 235.823 103.466 232.027 107.262L189.243 148.838L199.421 207.839C200.284 213.014 198.56 217.155 194.247 220.088C189.934 223.193 185.448 223.538 180.963 221.123L127.999 193.692L75.0371 221.123C70.3792 223.883 66.0659 223.538 61.753 220.26C57.4401 216.982 55.7162 212.842 56.5788 207.666L66.7567 148.665L23.9728 107.089C20.1774 103.294 19.1412 98.8081 20.6939 93.8051C22.2465 88.6296 25.8691 85.8693 31.2172 85.3518L90.2187 76.3809L116.442 23.0731L116.096 23.2457Z" fill="currentColor"/>
</svg>
