<svg width="256" height="256" viewBox="0 0 256 256" fill="none" xmlns="http://www.w3.org/2000/svg">
<path fill-rule="evenodd" clip-rule="evenodd" d="M128 234C186.542 234 234 186.542 234 128C234 69.4578 186.542 22 128 22C69.4578 22 22 69.4578 22 128C22 186.542 69.4578 234 128 234ZM193.146 131.765C200.113 129.821 207.013 135.146 205.716 142.262C200.199 172.52 177.446 196.764 148.001 204.446C142.226 205.953 136.969 201.243 137.187 195.278C138.794 151.308 151.228 143.46 193.146 131.765ZM195.153 110.387C200.339 109.839 203.689 104.701 201.829 99.8287C190.482 70.1092 161.706 49 128 49C94.3172 49 65.5579 70.0797 54.1946 99.7664C52.3216 104.66 55.7043 109.81 60.9153 110.356C80.8379 112.44 88.9327 108.583 97.3832 104.556C104.694 101.073 112.271 97.463 128.002 97.463C143.828 97.463 151.763 101.117 159.37 104.62C168.018 108.602 176.241 112.389 195.153 110.387ZM62.8541 131.765C55.8874 129.821 48.9866 135.146 50.2839 142.262C55.8007 172.52 78.5544 196.764 107.999 204.446C113.774 205.953 119.031 201.243 118.813 195.278C117.207 151.305 104.774 143.46 62.8541 131.765Z" fill="currentColor"/>
</svg>
