<svg width="256" height="256" viewBox="0 0 256 256" fill="none" xmlns="http://www.w3.org/2000/svg">
<path d="M195.21 24C203.894 24 211 31.1393 211 39.8068V216.193C211 224.872 203.883 232 195.21 232H60.7862C52.1006 232 45 224.861 45 216.193V39.8068C45 31.1277 52.1117 24 60.7862 24H195.21ZM191.298 189.895C193.953 189.895 195.21 188.636 195.21 185.978V43.7235C195.21 41.0657 193.953 39.8068 191.298 39.8068H64.6986C62.044 39.8068 60.7862 41.0657 60.7862 43.7235V185.978C60.7862 188.636 62.044 189.895 64.6986 189.895H191.298ZM128.07 221.369C133.817 221.369 138.549 216.621 138.549 210.878C138.549 205.135 133.817 200.386 128.07 200.386C122.323 200.386 117.591 205.135 117.591 210.878C117.591 216.621 122.323 221.369 128.07 221.369Z" fill="currentColor"/>
</svg>
