<svg width="256" height="256" viewBox="0 0 256 256" fill="none" xmlns="http://www.w3.org/2000/svg">
<path d="M215.677 34C221.252 34 226.108 35.9652 230.065 39.895C234.022 43.8249 236 48.469 236 54.1851V201.553C236 207.091 234.022 211.913 230.065 215.843C226.108 219.773 221.432 221.738 215.677 221.738H40.3231C34.7477 221.738 29.8918 219.773 25.9351 215.843C21.9784 211.913 20 207.269 20 201.553V54.1851C20 48.6476 21.9784 43.8249 25.9351 39.895C29.8918 35.9652 34.5679 34 40.3231 34H215.677ZM114.601 127.78V87.5884H47.1574V127.78H114.601ZM114.601 194.765V154.574H47.1574V194.765H114.601ZM209.022 127.78V87.5884H141.579V127.78H209.022ZM209.022 194.765V154.574H141.579V194.765H209.022Z" fill="currentColor"/>
</svg>
