<svg width="256" height="256" viewBox="0 0 256 256" fill="none" xmlns="http://www.w3.org/2000/svg">
<path d="M236 110.04C231.044 110.04 226.727 111.799 223.209 115.316C219.692 118.834 217.933 122.991 217.933 128.107C217.933 133.223 219.692 137.38 223.209 140.897C226.727 144.414 230.884 146.173 236 146.173V182.147C236 187.103 234.241 191.42 230.724 194.937C227.207 198.455 223.05 200.213 217.933 200.213H38.0666C33.1103 200.213 28.7935 198.455 25.2761 194.937C21.7587 191.42 20 187.263 20 182.147V146.173C24.9563 146.173 29.2731 144.414 32.7905 140.897C36.3079 137.38 38.0666 133.223 38.0666 128.107C38.0666 122.991 36.3079 118.834 32.7905 115.316C29.2731 111.799 25.1162 110.04 20 110.04V74.0667C20 69.1104 21.7587 64.7938 25.2761 61.2764C28.7935 57.759 32.9504 56 38.0666 56H217.933C222.89 56 227.207 57.759 230.724 61.2764C234.241 64.7938 236 68.9505 236 74.0667V110.04ZM200.027 89.0956C200.027 86.5375 199.227 84.4586 197.469 82.6999C195.71 80.9412 193.631 80.1423 191.073 80.1423H65.0866C62.5285 80.1423 60.45 80.9412 58.6913 82.6999C56.9326 84.4586 56.1332 86.5375 56.1332 89.0956V167.118C56.1332 169.676 56.9326 171.755 58.6913 173.514C60.45 175.272 62.5285 176.071 65.0866 176.071H191.073C193.631 176.071 195.71 175.272 197.469 173.514C199.227 171.755 200.027 169.676 200.027 167.118V89.0956ZM68.1244 92.1334H188.036V164.08H68.1244V92.1334Z" fill="currentColor"/>
</svg>
