<svg width="256" height="256" viewBox="0 0 256 256" fill="none" xmlns="http://www.w3.org/2000/svg">
<path d="M236 110.04C231.044 110.04 226.727 111.799 223.21 115.316C219.692 118.834 217.934 122.991 217.934 128.107C217.934 133.223 219.692 137.38 223.21 140.897C226.727 144.414 230.884 146.173 236 146.173V182.147C236 187.103 234.241 191.42 230.724 194.937C227.207 198.455 223.05 200.213 217.934 200.213H38.0667C33.1104 200.213 28.7936 198.455 25.2762 194.937C21.7588 191.42 20.0001 187.263 20.0001 182.147V146.173C24.9565 146.173 29.2733 144.414 32.7906 140.897C36.308 137.38 38.0667 133.223 38.0667 128.107C38.0667 122.991 36.308 118.834 32.7906 115.316C29.2733 111.799 25.1163 110.04 20.0001 110.04V74.0667C20.0001 69.1104 21.7588 64.7938 25.2762 61.2764C28.7936 57.759 32.9505 56 38.0667 56H217.934C222.89 56 227.207 57.759 230.724 61.2764C234.241 64.7938 236 68.9505 236 74.0667V110.04ZM200.027 89.0956C200.027 86.5375 199.227 84.4586 197.469 82.6999C195.71 80.9412 193.632 80.1423 191.073 80.1423H65.0867C62.5286 80.1423 60.4502 80.9412 58.6915 82.6999C56.9328 84.4586 56.1334 86.5375 56.1334 89.0956V167.118C56.1334 169.676 56.9328 171.755 58.6915 173.514C60.4502 175.272 62.5286 176.071 65.0867 176.071H191.073C193.632 176.071 195.71 175.272 197.469 173.514C199.227 171.755 200.027 169.676 200.027 167.118V89.0956ZM68.1245 92.1334H188.036V164.08H68.1245V92.1334Z" fill="currentColor"/>
</svg>
