<svg width="256" height="256" viewBox="0 0 256 256" fill="none" xmlns="http://www.w3.org/2000/svg">
<path d="M226.307 70.7016C230.994 89.0579 225.917 109.367 211.466 123.818C195.844 139.44 173.582 143.736 154.054 137.487L70.8642 220.677C61.1002 230.441 45.0872 230.441 35.3231 220.677C25.5591 210.913 25.5591 194.9 35.3231 185.136L118.903 101.946C112.264 82.4184 116.56 59.7659 132.182 44.534C146.633 30.0832 166.942 25.0059 185.299 29.6927C188.814 30.4738 190.376 34.77 187.642 37.5039L158.74 66.4054L163.037 92.9635L189.595 97.2597L218.496 68.3582C221.23 66.0148 225.526 67.1865 226.307 70.7016ZM53.2889 212.085C58.3662 212.085 62.6624 208.179 62.6624 202.711C62.6624 197.634 58.3662 193.338 53.2889 193.338C47.8211 193.338 43.9155 197.634 43.9155 202.711C43.9155 208.179 47.8211 212.085 53.2889 212.085Z" fill="currentColor"/>
</svg>
