<svg width="256" height="256" viewBox="0 0 256 256" fill="none" xmlns="http://www.w3.org/2000/svg">
<path d="M226.307 70.7016C230.994 89.0579 225.917 109.367 211.466 123.818C195.844 139.44 173.582 143.736 154.054 137.487L70.8641 220.677C61.1 230.441 45.087 230.441 35.323 220.677C25.559 210.913 25.559 194.9 35.323 185.136L118.903 101.946C112.264 82.4184 116.56 59.7659 132.182 44.534C146.633 30.0832 166.942 25.0059 185.298 29.6927C188.813 30.4738 190.376 34.77 187.642 37.5039L158.74 66.4054L163.036 92.9635L189.595 97.2597L218.496 68.3582C221.23 66.0148 225.526 67.1865 226.307 70.7016ZM53.2888 212.085C58.3661 212.085 62.6623 208.179 62.6623 202.711C62.6623 197.634 58.3661 193.338 53.2888 193.338C47.821 193.338 43.9154 197.634 43.9154 202.711C43.9154 208.179 47.821 212.085 53.2888 212.085Z" fill="currentColor"/>
</svg>
