<svg width="256" height="256" viewBox="0 0 256 256" fill="none" xmlns="http://www.w3.org/2000/svg">
<path d="M145.641 226.297C143.531 234.312 135.094 236 127.5 236C119.484 236 111.047 234.312 108.938 226.297C105.562 214.484 100.5 184.109 100.5 170.188C100.5 155.422 113.578 151.625 127.5 151.625C141 151.625 154.5 155.422 154.5 170.188C154.5 184.109 149.016 214.062 145.641 226.297ZM98.8125 141.922C100.078 143.188 100.078 144.875 98.8125 145.719C94.5938 148.672 91.6406 152.469 89.9531 156.688C89.1094 157.953 87 158.375 85.7344 157.109C73.9219 146.141 66.75 130.531 66.75 112.812C66.75 79.0625 94.5938 51.2188 129.188 52.4844C161.25 53.3281 187.406 79.4844 187.828 111.547C188.25 129.688 181.078 145.719 168.844 157.109C167.578 158.375 165.469 157.953 164.625 156.688C162.938 152.469 159.984 148.672 155.766 145.719C154.5 144.875 154.5 143.188 155.766 141.922C162.938 134.75 168 124.203 168 112.812C168 90.0312 148.594 71.4688 125.812 72.7344C104.719 73.1562 87.8438 90.4531 87 111.125C86.1562 123.359 91.2188 134.328 98.8125 141.922ZM127.5 20C179.391 20 222 62.6094 222 114.5C222 152.891 199.641 184.531 168.844 199.719C166.734 200.562 164.625 198.875 165.047 197.188C166.312 190.016 167.156 182.844 167.578 176.938C187.828 163.859 201.75 140.656 201.75 114.5C201.75 73.5781 168 40.25 127.078 40.6719C86.5781 40.6719 53.25 73.5781 53.25 114.078C52.8281 140.234 65.9062 163.016 86.1562 176.516C86.5781 176.938 87 177.359 87 178.203C87.4219 184.109 88.2656 190.438 89.5312 197.188C89.9531 198.875 87.8438 200.562 85.7344 199.719C54.9375 184.531 33 152.469 33 114.5C33 62.6094 75.1875 20 127.5 20ZM127.5 87.5C142.266 87.5 154.5 99.7344 154.5 114.5C154.5 129.688 142.266 141.5 127.5 141.5C112.312 141.5 100.5 129.688 100.5 114.5C100.5 99.7344 112.312 87.5 127.5 87.5Z" fill="currentColor"/>
</svg>
