<svg width="256" height="256" viewBox="0 0 256 256" fill="none" xmlns="http://www.w3.org/2000/svg">
<path d="M208.738 53.5353C210.557 53.5353 212.046 54.1992 213.204 55.361C214.362 56.5228 215.024 58.0166 215.024 59.8423V66.1494C215.024 67.9751 214.362 69.4689 213.204 70.6307C212.046 71.7925 210.557 72.4564 208.738 72.4564H202.452V203.245C202.452 208.39 200.632 212.871 196.993 216.523C193.354 220.174 189.053 222 183.759 222H72.2647C67.1367 222 62.6703 220.174 59.031 216.523C55.3917 212.871 53.5721 208.556 53.5721 203.245V72.1245H47.286C45.4664 72.1245 43.9776 71.4606 42.8196 70.2988C41.6617 69.1369 41 67.6432 41 65.8174V59.5104C41 57.6846 41.6617 56.1909 42.8196 55.029C43.9776 53.8672 45.4664 53.2033 47.286 53.2033H79.047L92.2808 30.9627C95.9201 24.9876 101.379 22 108.492 22H147.201C154.479 22 159.938 24.9876 163.412 30.9627L176.646 53.2033H208.407L208.738 53.5353ZM183.924 202.913V72.1245H72.2647V202.913H183.924ZM101.71 184.324C98.5668 184.324 97.078 182.83 97.078 179.676V95.6929C97.078 92.5394 98.5668 91.0456 101.71 91.0456H110.973C114.116 91.0456 115.605 92.5394 115.605 95.6929V179.676C115.605 182.83 114.116 184.324 110.973 184.324H101.71ZM109.815 41.2531C109.815 41.2531 108.327 41.5851 107.83 42.4149L100.883 53.7012H155.141L148.193 42.4149C148.193 42.4149 147.035 41.2531 146.208 41.2531H109.815ZM145.05 184.324C141.907 184.324 140.419 182.83 140.419 179.676V95.6929C140.419 92.5394 141.907 91.0456 145.05 91.0456H154.314C157.457 91.0456 158.946 92.5394 158.946 95.6929V179.676C158.946 182.83 157.457 184.324 154.314 184.324H145.05Z" fill="currentColor"/>
</svg>
