<svg width="256" height="256" viewBox="0 0 256 256" fill="none" xmlns="http://www.w3.org/2000/svg">
<path d="M165.66 141.5C181.14 141.5 194.46 147.08 205.44 158.24C216.6 169.4 222.18 182.72 222.18 198.02V215.66C222.18 221.24 220.2 226.1 216.24 230.06C212.28 234.02 207.6 236 201.84 236H53.34C47.76 236 42.9 234.02 38.94 230.06C34.98 226.1 33 221.42 33 215.66V198.02C33 182.54 38.58 169.22 49.74 158.24C60.9 147.26 74.22 141.5 89.52 141.5H96.72C106.62 146 116.88 148.34 127.5 148.34C138.12 148.34 148.38 146.18 158.28 141.5H165.48H165.66ZM165.84 112.16C155.22 122.78 142.62 128 127.68 128C112.74 128 99.96 122.78 89.52 112.16C79.08 101.54 73.68 88.94 73.68 74C73.68 59.06 78.9 46.2801 89.52 35.8401C100.14 25.4001 112.74 20 127.68 20C142.62 20 155.4 25.2201 165.84 35.8401C176.28 46.4601 181.68 59.06 181.68 74C181.68 88.94 176.46 101.72 165.84 112.16Z" fill="currentColor"/>
</svg>
