<svg width="256" height="256" viewBox="0 0 256 256" fill="none" xmlns="http://www.w3.org/2000/svg">
<path d="M110.781 138.458C121.588 138.458 130.81 142.204 138.303 149.841C145.796 157.334 149.686 166.556 149.686 177.364V187.162C149.686 196.11 142.34 203.445 133.404 203.445H36.2829C27.335 203.445 20 196.099 20 187.162V177.364C20 166.556 23.7465 157.334 31.3836 149.841C39.0207 142.348 48.0987 138.458 58.9059 138.458H61.9319C69.4249 142.06 77.062 143.933 84.8432 143.933C92.6244 143.933 100.406 142.204 107.754 138.458H110.781ZM84.8432 127.65C64.2565 127.65 47.0901 110.484 47.0901 89.8973C47.0901 69.3989 64.2833 52 84.8432 52C105.43 52 122.596 69.1664 122.596 89.7532C122.596 110.44 105.524 127.65 84.8432 127.65ZM198.247 138.458C208.622 138.458 217.556 142.204 224.905 149.553C232.253 156.902 236 165.836 236 176.211C236 185.159 228.654 192.494 219.717 192.494H159.917C160.205 187.957 160.205 182.395 160.205 177.364C160.205 164.539 155.738 153.3 146.66 143.645C152.712 140.331 159.053 138.602 165.537 138.602H166.834C172.021 140.475 176.921 141.34 181.676 141.34C186.431 141.34 191.33 140.475 196.518 138.602L198.247 138.458ZM182.108 127.65C164.372 127.65 149.686 112.975 149.686 95.2288C149.686 77.5382 164.382 62.8072 182.108 62.8072C199.844 62.8072 214.53 77.483 214.53 95.2288C214.53 112.965 199.854 127.65 182.108 127.65Z" fill="currentColor"/>
</svg>
