<svg width="256" height="256" viewBox="0 0 256 256" fill="none" xmlns="http://www.w3.org/2000/svg">
<path d="M53.7693 113.539C41.1058 113.539 31.2564 103.689 31.2564 91.0257C31.2564 78.714 41.1058 68.5128 53.7693 68.5128C66.081 68.5128 76.2821 78.714 76.2821 91.0257C76.2821 103.689 66.081 113.539 53.7693 113.539Z" fill="currentColor"/>
<path d="M132.564 124.795C110.755 124.795 93.1667 107.207 93.1667 85.3975C93.1667 63.9399 110.755 46 132.564 46C154.022 46 171.962 63.9399 171.962 85.3975C171.962 95.833 167.854 105.302 161.219 112.34C156.802 114.76 152.722 117.719 149.068 121.13C144.025 123.482 138.426 124.795 132.564 124.795Z" fill="currentColor"/>
<path d="M130 165C130 156.711 131.681 148.815 134.72 141.634C134.004 141.664 133.285 141.68 132.564 141.68C123.77 141.68 115.68 139.569 108.293 136.051H105.478C82.9656 136.051 65.0257 154.343 65.0257 176.856V186.705C65.0257 196.203 72.4127 203.59 81.9103 203.59H144.055C135.283 193.158 130 179.696 130 165Z" fill="currentColor"/>
<path d="M80.855 131.478C66.4327 139.217 56.5834 153.288 54.121 169.821H31.2564C24.9247 169.821 20 164.896 20 158.564V147.308C20 134.996 29.8494 124.795 42.5128 124.795H65.0257C71.0057 124.795 76.6339 127.609 80.855 131.478Z" fill="currentColor"/>
<path fill-rule="evenodd" clip-rule="evenodd" d="M236 165C236 190.405 215.405 211 190 211C164.595 211 144 190.405 144 165C144 139.595 164.595 119 190 119C215.405 119 236 139.595 236 165ZM184.686 186.863C183.258 188.379 181.91 188.379 180.562 186.863L180.482 186.943L161.13 167.475C159.623 166.039 159.623 164.682 161.13 163.326L165.254 159.017C166.761 157.661 168.189 157.661 169.537 159.017L182.545 172.102L210.463 144.017C211.811 142.661 213.239 142.661 214.746 144.017L218.87 148.326C220.377 149.762 220.377 151.118 218.87 152.475L184.686 186.863Z" fill="currentColor"/>
</svg>
