<svg width="256" height="256" viewBox="0 0 256 256" fill="none" xmlns="http://www.w3.org/2000/svg">
<path d="M154.84 112.16C144.22 122.78 131.62 128 116.68 128C101.74 128 88.96 122.78 78.52 112.16C68.08 101.54 62.68 88.94 62.68 74C62.68 59.06 67.9 46.28 78.52 35.84C89.14 25.4 101.74 20 116.68 20C131.62 20 144.4 25.22 154.84 35.84C165.28 46.46 170.68 59.06 170.68 74C170.68 88.94 165.46 101.72 154.84 112.16Z" fill="currentColor"/>
<path d="M129 188C129 207.627 138.424 225.053 152.994 236H42.34C36.76 236 31.9 234.02 27.94 230.06C23.98 226.1 22 221.42 22 215.66V198.02C22 182.54 27.58 169.22 38.74 158.24C49.9 147.26 63.22 141.5 78.52 141.5H85.72C95.62 146 105.88 148.34 116.5 148.34C127.12 148.34 137.38 146.18 147.28 141.5H151.079C137.604 152.503 129 169.247 129 188Z" fill="currentColor"/>
<path fill-rule="evenodd" clip-rule="evenodd" d="M234 188C234 213.405 213.405 234 188 234C162.595 234 142 213.405 142 188C142 162.595 162.595 142 188 142C213.405 142 234 162.595 234 188ZM181.898 194.089L161.866 194.08C159.594 194.079 157.89 192.152 157.743 189.964L157.741 185.929C157.885 183.748 159.594 181.816 161.86 181.817L181.892 181.827L181.883 161.833C181.882 159.558 183.817 157.866 186.002 157.721L190.046 157.723C192.225 157.869 194.169 159.57 194.17 161.838L194.18 181.833L214.134 181.92C216.406 181.921 218.11 183.848 218.257 186.035L218.259 190.071C218.115 192.252 216.406 194.184 214.14 194.182L194.108 194.173L194.079 214.128C194.08 216.403 192.144 218.095 189.959 218.24L185.915 218.238C183.736 218.092 181.792 216.391 181.791 214.123L181.781 194.128L181.898 194.089Z" fill="currentColor"/>
</svg>
