<svg width="256" height="256" viewBox="0 0 256 256" fill="none" xmlns="http://www.w3.org/2000/svg">
<path d="M154.84 112.16C144.22 122.78 131.62 128 116.68 128C101.74 128 88.96 122.78 78.52 112.16C68.08 101.54 62.68 88.94 62.68 74C62.68 59.06 67.9 46.28 78.52 35.84C89.14 25.4 101.74 20 116.68 20C131.62 20 144.4 25.22 154.84 35.84C165.28 46.46 170.68 59.06 170.68 74C170.68 88.94 165.46 101.72 154.84 112.16Z" fill="currentColor"/>
<path d="M129 188C129 207.627 138.424 225.053 152.994 236H42.34C36.76 236 31.9 234.02 27.94 230.06C23.98 226.1 22 221.42 22 215.66V198.02C22 182.54 27.58 169.22 38.74 158.24C49.9 147.26 63.22 141.5 78.52 141.5H85.72C95.62 146 105.88 148.34 116.5 148.34C127.12 148.34 137.38 146.18 147.28 141.5H151.079C137.604 152.503 129 169.247 129 188Z" fill="currentColor"/>
<path fill-rule="evenodd" clip-rule="evenodd" d="M234 188C234 213.405 213.405 234 188 234C162.595 234 142 213.405 142 188C142 162.595 162.595 142 188 142C213.405 142 234 162.595 234 188ZM196.794 185.03C200.568 186.13 203.412 188.495 205.326 192.125C207.24 195.755 207.512 199.495 206.145 203.345C205.106 206.205 203.357 208.46 200.896 210.11C198.435 211.76 195.646 212.695 192.584 212.75V218.91C192.584 219.515 192.366 220.01 191.983 220.395C191.6 220.78 191.108 221 190.506 221H186.405C185.803 221 185.311 220.78 184.928 220.395C184.545 220.01 184.327 219.515 184.327 218.91V212.75C180.226 212.75 176.562 211.485 173.281 208.9C172.789 208.46 172.46 207.965 172.405 207.36C172.296 206.755 172.515 206.26 173.062 205.82L177.436 201.42C178.311 200.65 179.132 200.54 180.007 201.145C181.265 202.025 182.74 202.41 184.381 202.41H192.856C193.95 202.41 194.879 202.025 195.59 201.31C196.301 200.595 196.685 199.66 196.685 198.56C196.685 196.69 195.811 195.48 194.007 194.93L180.827 191.08C177.928 190.2 175.469 188.66 173.5 186.46C171.531 184.205 170.381 181.675 170.053 178.705C169.725 174.47 170.927 170.84 173.716 167.815C176.505 164.79 179.951 163.25 184.162 163.25H184.437V157.09C184.437 156.485 184.655 155.99 185.038 155.605C185.42 155.22 185.913 155 186.514 155H190.616C191.217 155 191.709 155.22 192.092 155.605C192.475 155.99 192.693 156.485 192.693 157.09V163.25C196.794 163.25 200.458 164.515 203.74 167.1C204.232 167.54 204.561 168.035 204.615 168.64C204.725 169.245 204.505 169.74 203.958 170.18L199.585 174.58C198.71 175.35 197.888 175.46 197.013 174.855C195.756 173.975 194.28 173.59 192.64 173.59H184.162C183.068 173.59 182.139 173.975 181.428 174.69C180.717 175.405 180.335 176.34 180.335 177.44C180.335 178.21 180.607 178.925 181.099 179.64C181.591 180.355 182.248 180.795 183.014 181.07L196.85 185.085L196.794 185.03Z" fill="currentColor"/>
</svg>
