<svg width="256" height="256" viewBox="0 0 256 256" fill="none" xmlns="http://www.w3.org/2000/svg">
<path d="M52.4 116.8C40.25 116.8 30.8 107.35 30.8 95.2C30.8 83.3875 40.25 73.6 52.4 73.6C64.2125 73.6 74 83.3875 74 95.2C74 107.35 64.2125 116.8 52.4 116.8ZM203.6 116.8C191.45 116.8 182 107.35 182 95.2C182 83.3875 191.45 73.6 203.6 73.6C215.413 73.6 225.2 83.3875 225.2 95.2C225.2 107.35 215.413 116.8 203.6 116.8ZM214.4 127.6C226.213 127.6 236 137.388 236 149.2V160C236 166.075 230.938 170.8 225.2 170.8H202.925C200.562 154.938 191.113 141.438 177.275 134.012C181.325 130.3 186.725 127.6 192.8 127.6H214.4ZM128 127.6C107.075 127.6 90.2 110.725 90.2 89.8C90.2 69.2125 107.075 52 128 52C148.587 52 165.8 69.2125 165.8 89.8C165.8 110.725 148.587 127.6 128 127.6ZM153.65 138.4C175.25 138.4 192.8 155.95 192.8 177.55V187C192.8 196.113 185.375 203.2 176.6 203.2H79.4C70.2875 203.2 63.2 196.113 63.2 187V177.55C63.2 155.95 80.4125 138.4 102.012 138.4H104.713C111.8 141.775 119.562 143.8 128 143.8C136.1 143.8 143.863 141.775 150.95 138.4H153.65ZM78.3875 134.012C64.55 141.438 55.1 154.938 52.7375 170.8H30.8C24.725 170.8 20 166.075 20 160V149.2C20 137.388 29.45 127.6 41.6 127.6H63.2C68.9375 127.6 74.3375 130.3 78.3875 134.012Z" fill="currentColor"/>
</svg>
