<svg width="256" height="256" viewBox="0 0 256 256" fill="none" xmlns="http://www.w3.org/2000/svg">
<path d="M25.4682 157.758C23.8852 157.758 22.5903 158.29 21.5829 159.221C20.5756 160.153 19.9998 161.35 19.9998 162.813V172.791C19.9998 174.255 20.5756 175.452 21.5829 176.384C22.5903 177.315 23.8852 177.847 25.4682 177.847H41.5854C41.5854 186.228 44.7513 193.279 51.0831 199C57.4148 204.854 65.0417 207.781 73.9637 207.781C82.8858 207.781 90.6566 204.854 96.8444 199C103.032 193.146 106.342 186.095 106.342 177.847H149.513C149.513 186.228 152.679 193.279 159.011 199C165.343 204.854 172.97 207.781 181.892 207.781C190.814 207.781 198.585 204.854 204.772 199C210.96 193.146 214.27 186.095 214.27 177.847H219.739C224.2 177.847 228.085 176.384 231.251 173.457C234.417 170.53 236 167.071 236 162.813V63.0332C236 58.9089 234.417 55.317 231.251 52.3901C228.085 49.4633 224.343 48 219.739 48H111.811C107.35 48 103.464 49.4633 100.298 52.3901C97.1325 55.317 95.5493 58.7759 95.5493 63.0332V77.934H80.7272C76.2662 77.934 72.381 79.3973 69.2151 82.3242L35.5416 113.455C32.3757 116.382 30.7926 119.841 30.7926 124.099V157.758H25.3241H25.4682ZM193.404 188.357C190.238 191.284 186.497 192.747 181.892 192.747C177.287 192.747 173.545 191.284 170.38 188.357C167.214 185.43 165.631 181.971 165.631 177.714C165.631 173.457 167.214 169.997 170.38 167.071C173.545 164.144 177.287 162.68 181.892 162.68C186.497 162.68 190.238 164.144 193.404 167.071C196.57 169.997 198.153 173.457 198.153 177.714C198.153 181.971 196.57 185.43 193.404 188.357ZM47.0538 127.824V124.099L80.7272 92.9672H95.5493V127.824H46.9097H47.0538ZM85.4763 188.357C82.3104 191.284 78.5687 192.747 73.9637 192.747C69.3588 192.747 65.6175 191.284 62.4516 188.357C59.2857 185.43 57.7025 181.971 57.7025 177.714C57.7025 173.457 59.2857 169.997 62.4516 167.071C65.6175 164.144 69.3588 162.68 73.9637 162.68C78.5687 162.68 82.3104 164.144 85.4763 167.071C88.6422 169.997 90.225 173.457 90.225 177.714C90.225 181.971 88.6422 185.43 85.4763 188.357Z" fill="currentColor"/>
</svg>
