<svg width="256" height="256" viewBox="0 0 256 256" fill="none" xmlns="http://www.w3.org/2000/svg">
<path d="M25.4684 157.758C23.8855 157.758 22.5905 158.29 21.5832 159.221C20.5758 160.153 20 161.35 20 162.813V172.791C20 174.255 20.5758 175.452 21.5832 176.384C22.5905 177.315 23.8855 177.847 25.4684 177.847H41.5856C41.5856 186.228 44.7515 193.279 51.0833 199C57.4151 204.854 65.0419 207.781 73.964 207.781C82.886 207.781 90.6568 204.854 96.8447 199C103.033 193.146 106.342 186.095 106.342 177.847H149.514C149.514 186.228 152.68 193.279 159.011 199C165.343 204.854 172.97 207.781 181.892 207.781C190.814 207.781 198.585 204.854 204.773 199C210.961 193.146 214.27 186.095 214.27 177.847H219.739C224.2 177.847 228.085 176.384 231.251 173.457C234.417 170.53 236 167.071 236 162.813V63.0332C236 58.9089 234.417 55.317 231.251 52.3901C228.085 49.4633 224.344 48 219.739 48H111.811C107.35 48 103.465 49.4633 100.299 52.3901C97.1328 55.317 95.5496 58.7759 95.5496 63.0332V77.934H80.7275C76.2665 77.934 72.3812 79.3973 69.2153 82.3242L35.5419 113.455C32.376 116.382 30.7928 119.841 30.7928 124.099V157.758H25.3244H25.4684ZM193.405 188.357C190.239 191.284 186.497 192.747 181.892 192.747C177.287 192.747 173.546 191.284 170.38 188.357C167.214 185.43 165.631 181.971 165.631 177.714C165.631 173.457 167.214 169.997 170.38 167.071C173.546 164.144 177.287 162.68 181.892 162.68C186.497 162.68 190.239 164.144 193.405 167.071C196.57 169.997 198.153 173.457 198.153 177.714C198.153 181.971 196.57 185.43 193.405 188.357ZM47.054 127.824V124.099L80.7275 92.9672H95.5496V127.824H46.91H47.054ZM85.4766 188.357C82.3107 191.284 78.5689 192.747 73.964 192.747C69.3591 192.747 65.6177 191.284 62.4518 188.357C59.286 185.43 57.7028 181.971 57.7028 177.714C57.7028 173.457 59.286 169.997 62.4518 167.071C65.6177 164.144 69.3591 162.68 73.964 162.68C78.5689 162.68 82.3107 164.144 85.4766 167.071C88.6425 169.997 90.2252 173.457 90.2252 177.714C90.2252 181.971 88.6425 185.43 85.4766 188.357Z" fill="currentColor"/>
</svg>
