<svg width="256" height="256" viewBox="0 0 256 256" fill="none" xmlns="http://www.w3.org/2000/svg">
<path d="M21 236L36.183 180.533C26.814 164.297 21.891 145.892 21.9 127.019C21.927 68.015 69.942 20 128.937 20C157.566 20.009 184.44 31.16 204.654 51.392C224.859 71.624 235.983 98.516 235.974 127.118C235.947 186.131 187.932 234.146 128.937 234.146C111.027 234.137 93.378 229.646 77.745 221.114L21 236ZM80.373 201.737C95.457 210.692 109.857 216.056 128.901 216.065C177.933 216.065 217.875 176.159 217.902 127.1C217.92 77.942 178.167 38.09 128.973 38.072C79.905 38.072 39.99 77.978 39.972 127.028C39.963 147.053 45.831 162.047 55.686 177.734L46.695 210.566L80.373 201.737ZM182.856 152.561C182.19 151.445 180.408 150.779 177.726 149.438C175.053 148.097 161.904 141.626 159.447 140.735C156.999 139.844 155.217 139.394 153.426 142.076C151.644 144.749 146.514 150.779 144.957 152.561C143.4 154.343 141.834 154.568 139.161 153.227C136.488 151.886 127.866 149.069 117.651 139.952C109.704 132.86 104.331 124.103 102.774 121.421C101.217 118.748 102.612 117.299 103.944 115.967C105.15 114.77 106.617 112.844 107.958 111.278C109.317 109.73 109.758 108.614 110.658 106.823C111.549 105.041 111.108 103.475 110.433 102.134C109.758 100.802 104.412 87.635 102.189 82.28C100.011 77.069 97.806 77.771 96.168 77.69L91.038 77.6C89.256 77.6 86.358 78.266 83.91 80.948C81.462 83.63 74.55 90.092 74.55 103.259C74.55 116.426 84.135 129.143 85.467 130.925C86.808 132.707 104.322 159.725 131.151 171.308C137.532 174.062 142.518 175.709 146.397 176.942C152.805 178.976 158.637 178.688 163.245 178.004C168.384 177.239 179.067 171.533 181.299 165.287C183.531 159.032 183.531 153.677 182.856 152.561Z" fill="currentColor"/>
</svg>
