<svg width="256" height="256" viewBox="0 0 256 256" fill="none" xmlns="http://www.w3.org/2000/svg">
<path d="M215.679 33C221.255 33 226.107 34.9783 230.064 38.9349C234.02 42.8915 236 47.5676 236 53.3226V201.696C236 207.271 234.02 212.127 230.064 216.084C226.107 220.04 221.435 222.018 215.679 222.018H40.3293C34.7541 222.018 29.893 220.04 25.9363 216.084C21.9797 212.127 20 207.451 20 201.696V53.3226C20 47.7474 21.9797 42.8915 25.9363 38.9349C29.893 34.9783 34.5742 33 40.3293 33H215.679ZM213.159 201.696C214.778 201.696 215.679 200.797 215.679 199.178V100.622H40.3293V199.178C40.3293 200.797 41.2222 201.696 42.8408 201.696H213.159Z" fill="currentColor"/>
</svg>
