<svg width="256" height="256" viewBox="0 0 256 256" fill="none" xmlns="http://www.w3.org/2000/svg">
<path d="M251.857 60.5257C251.857 64.4343 250 66.2857 246.092 66.2857H240.346V189.714H246.092C250 189.714 251.857 191.566 251.857 195.474V230.24C251.857 234.149 250 236 246.092 236H211.337C207.428 236 205.571 234.149 205.571 230.24V224.48H51.2857V230.24C51.2857 234.149 49.4287 236 45.5201 236H10.7656C6.85705 236 5 234.149 5 230.24V195.474C5 191.566 6.85705 189.714 10.7656 189.714H16.5112V66.2857H10.7656C6.85705 66.2857 5 64.4343 5 60.5257V25.76C5 21.8514 6.85705 20 10.7656 20H45.5201C49.4287 20 51.2857 21.8514 51.2857 25.76V31.52H205.571V25.76C205.571 21.8514 207.428 20 211.337 20H246.092C250 20 251.857 21.8514 251.857 25.76V60.5257ZM20.4286 35.4286V50.8571H35.8571V35.4286H20.4286ZM35.8571 220.571V205.143H20.4286V220.571H35.8571ZM217.083 189.714V66.2857H211.337C207.428 66.2857 205.571 64.4343 205.571 60.5257V54.7657H51.2857V60.5257C51.2857 64.4343 49.4287 66.2857 45.5201 66.2857H39.7746V189.714H45.5201C49.4287 189.714 51.2857 191.566 51.2857 195.474V201.234H205.571V195.474C205.571 191.566 207.428 189.714 211.337 189.714H217.083ZM199.806 97.1429C203.714 97.1429 205.571 98.9943 205.571 102.903V183.954C205.571 187.863 203.714 189.714 199.806 189.714H103.337C99.4285 189.714 97.5714 187.863 97.5714 183.954V158.857H57.0513C53.1428 158.857 51.2857 157.006 51.2857 153.097V72.0457C51.2857 68.1371 53.1428 66.2857 57.0513 66.2857H153.52C157.429 66.2857 159.286 68.1371 159.286 72.0457V97.1429H199.806ZM70.6317 85.6229V139.52H140.161V85.6229H70.6317ZM186.225 170.377V116.48H159.286V153.097C159.286 157.006 157.429 158.857 153.52 158.857H116.917V170.377H186.446H186.225ZM221 35.4286V50.8571H236.429V35.4286H221ZM236.429 220.571V205.143H221V220.571H236.429Z" fill="currentColor"/>
</svg>
