<svg width="256" height="256" viewBox="0 0 256 256" fill="none" xmlns="http://www.w3.org/2000/svg">
<path d="M251.857 60.5257C251.857 64.4343 250 66.2857 246.092 66.2857H240.346V189.714H246.092C250 189.714 251.857 191.566 251.857 195.474V230.24C251.857 234.149 250 236 246.092 236H211.337C207.429 236 205.572 234.149 205.572 230.24V224.48H51.2858V230.24C51.2858 234.149 49.4288 236 45.5202 236H10.7657C6.85718 236 5.00012 234.149 5.00012 230.24V195.474C5.00012 191.566 6.85718 189.714 10.7657 189.714H16.5113V66.2857H10.7657C6.85718 66.2857 5.00012 64.4343 5.00012 60.5257V25.76C5.00012 21.8514 6.85718 20 10.7657 20H45.5202C49.4288 20 51.2858 21.8514 51.2858 25.76V31.52H205.572V25.76C205.572 21.8514 207.429 20 211.337 20H246.092C250 20 251.857 21.8514 251.857 25.76V60.5257ZM20.4287 35.4286V50.8571H35.8573V35.4286H20.4287ZM35.8573 220.571V205.143H20.4287V220.571H35.8573ZM217.083 189.714V66.2857H211.337C207.429 66.2857 205.572 64.4343 205.572 60.5257V54.7657H51.2858V60.5257C51.2858 64.4343 49.4288 66.2857 45.5202 66.2857H39.7747V189.714H45.5202C49.4288 189.714 51.2858 191.566 51.2858 195.474V201.234H205.572V195.474C205.572 191.566 207.429 189.714 211.337 189.714H217.083ZM199.806 97.1429C203.714 97.1429 205.572 98.9943 205.572 102.903V183.954C205.572 187.863 203.714 189.714 199.806 189.714H103.337C99.4286 189.714 97.5715 187.863 97.5715 183.954V158.857H57.0515C53.1429 158.857 51.2858 157.006 51.2858 153.097V72.0457C51.2858 68.1371 53.1429 66.2857 57.0515 66.2857H153.52C157.429 66.2857 159.286 68.1371 159.286 72.0457V97.1429H199.806ZM70.6318 85.6229V139.52H140.161V85.6229H70.6318ZM186.226 170.377V116.48H159.286V153.097C159.286 157.006 157.429 158.857 153.52 158.857H116.918V170.377H186.447H186.226ZM221 35.4286V50.8571H236.429V35.4286H221ZM236.429 220.571V205.143H221V220.571H236.429Z" fill="currentColor"/>
</svg>
